<?xml version="1.0" encoding="utf-8" standalone="no"?>
<!DOCTYPE svg PUBLIC "-//W3C//DTD SVG 1.1//EN"
  "http://www.w3.org/Graphics/SVG/1.1/DTD/svg11.dtd">
<svg xmlns:xlink="http://www.w3.org/1999/xlink" width="216pt" height="216pt" viewBox="0 0 216 216" xmlns="http://www.w3.org/2000/svg" version="1.1">
 <metadata>
  <rdf:RDF xmlns:dc="http://purl.org/dc/elements/1.1/" xmlns:cc="http://creativecommons.org/ns#" xmlns:rdf="http://www.w3.org/1999/02/22-rdf-syntax-ns#">
   <cc:Work>
    <dc:type rdf:resource="http://purl.org/dc/dcmitype/StillImage"/>
    <dc:date>2025-09-28T18:37:43.661436</dc:date>
    <dc:format>image/svg+xml</dc:format>
    <dc:creator>
     <cc:Agent>
      <dc:title>Matplotlib v3.9.2, https://matplotlib.org/</dc:title>
     </cc:Agent>
    </dc:creator>
   </cc:Work>
  </rdf:RDF>
 </metadata>
 <defs>
  <style type="text/css">*{stroke-linejoin: round; stroke-linecap: butt}</style>
 </defs>
 <g id="figure_1">
  <g id="patch_1">
   <path d="M 0 216 
L 216 216 
L 216 0 
L 0 0 
z
" style="fill: #ffffff"/>
  </g>
  <g id="axes_1">
   <g id="patch_2">
    <path d="M 94.25 174.04 
L 204.844091 174.04 
L 204.844091 10.8 
L 94.25 10.8 
z
" style="fill: #ffffff"/>
   </g>
   <g id="matplotlib.axis_1">
    <g id="xtick_1">
     <g id="line2d_1">
      <defs>
       <path id="me3c0245eb8" d="M 0 0 
L 0 3.5 
" style="stroke: #000000; stroke-width: 0.8"/>
      </defs>
      <g>
       <use xlink:href="#me3c0245eb8" x="99.277004" y="174.04" style="stroke: #000000; stroke-width: 0.8"/>
      </g>
     </g>
     <g id="text_1">
      <!-- −1 -->
      <g transform="translate(91.90591 188.638438) scale(0.1 -0.1)">
       <defs>
        <path id="DejaVuSans-2212" d="M 678 2272 
L 4684 2272 
L 4684 1741 
L 678 1741 
L 678 2272 
z
" transform="scale(0.015625)"/>
        <path id="DejaVuSans-31" d="M 794 531 
L 1825 531 
L 1825 4091 
L 703 3866 
L 703 4441 
L 1819 4666 
L 2450 4666 
L 2450 531 
L 3481 531 
L 3481 0 
L 794 0 
L 794 531 
z
" transform="scale(0.015625)"/>
       </defs>
       <use xlink:href="#DejaVuSans-2212"/>
       <use xlink:href="#DejaVuSans-31" x="83.789062"/>
      </g>
     </g>
    </g>
    <g id="xtick_2">
     <g id="line2d_2">
      <g>
       <use xlink:href="#me3c0245eb8" x="149.547045" y="174.04" style="stroke: #000000; stroke-width: 0.8"/>
      </g>
     </g>
     <g id="text_2">
      <!-- 0 -->
      <g transform="translate(146.365795 188.638438) scale(0.1 -0.1)">
       <defs>
        <path id="DejaVuSans-30" d="M 2034 4250 
Q 1547 4250 1301 3770 
Q 1056 3291 1056 2328 
Q 1056 1369 1301 889 
Q 1547 409 2034 409 
Q 2525 409 2770 889 
Q 3016 1369 3016 2328 
Q 3016 3291 2770 3770 
Q 2525 4250 2034 4250 
z
M 2034 4750 
Q 2819 4750 3233 4129 
Q 3647 3509 3647 2328 
Q 3647 1150 3233 529 
Q 2819 -91 2034 -91 
Q 1250 -91 836 529 
Q 422 1150 422 2328 
Q 422 3509 836 4129 
Q 1250 4750 2034 4750 
z
" transform="scale(0.015625)"/>
       </defs>
       <use xlink:href="#DejaVuSans-30"/>
      </g>
     </g>
    </g>
    <g id="xtick_3">
     <g id="line2d_3">
      <g>
       <use xlink:href="#me3c0245eb8" x="199.817087" y="174.04" style="stroke: #000000; stroke-width: 0.8"/>
      </g>
     </g>
     <g id="text_3">
      <!-- 1 -->
      <g transform="translate(196.635837 188.638438) scale(0.1 -0.1)">
       <use xlink:href="#DejaVuSans-31"/>
      </g>
     </g>
    </g>
    <g id="text_4">
     <!-- $\lambda$ -->
     <g transform="translate(146.547045 202.316563) scale(0.1 -0.1)">
      <defs>
       <path id="DejaVuSans-Oblique-3bb" d="M 2350 4316 
L 3125 0 
L 2516 0 
L 2038 2588 
L 328 0 
L -281 0 
L 1903 3356 
L 1794 3975 
Q 1725 4369 1391 4369 
L 1091 4369 
L 1184 4863 
L 1550 4856 
Q 2253 4847 2350 4316 
z
" transform="scale(0.015625)"/>
      </defs>
      <use xlink:href="#DejaVuSans-Oblique-3bb" transform="translate(0 0.015625)"/>
     </g>
    </g>
    <g id="text_5">
     <!-- 1e−5 -->
     <g transform="translate(177.586278 201.316563) scale(0.1 -0.1)">
      <defs>
       <path id="DejaVuSans-65" d="M 3597 1894 
L 3597 1613 
L 953 1613 
Q 991 1019 1311 708 
Q 1631 397 2203 397 
Q 2534 397 2845 478 
Q 3156 559 3463 722 
L 3463 178 
Q 3153 47 2828 -22 
Q 2503 -91 2169 -91 
Q 1331 -91 842 396 
Q 353 884 353 1716 
Q 353 2575 817 3079 
Q 1281 3584 2069 3584 
Q 2775 3584 3186 3129 
Q 3597 2675 3597 1894 
z
M 3022 2063 
Q 3016 2534 2758 2815 
Q 2500 3097 2075 3097 
Q 1594 3097 1305 2825 
Q 1016 2553 972 2059 
L 3022 2063 
z
" transform="scale(0.015625)"/>
       <path id="DejaVuSans-35" d="M 691 4666 
L 3169 4666 
L 3169 4134 
L 1269 4134 
L 1269 2991 
Q 1406 3038 1543 3061 
Q 1681 3084 1819 3084 
Q 2600 3084 3056 2656 
Q 3513 2228 3513 1497 
Q 3513 744 3044 326 
Q 2575 -91 1722 -91 
Q 1428 -91 1123 -41 
Q 819 9 494 109 
L 494 744 
Q 775 591 1075 516 
Q 1375 441 1709 441 
Q 2250 441 2565 725 
Q 2881 1009 2881 1497 
Q 2881 1984 2565 2268 
Q 2250 2553 1709 2553 
Q 1456 2553 1204 2497 
Q 953 2441 691 2322 
L 691 4666 
z
" transform="scale(0.015625)"/>
      </defs>
      <use xlink:href="#DejaVuSans-31"/>
      <use xlink:href="#DejaVuSans-65" x="63.623047"/>
      <use xlink:href="#DejaVuSans-2212" x="125.146484"/>
      <use xlink:href="#DejaVuSans-35" x="208.935547"/>
     </g>
    </g>
   </g>
   <g id="matplotlib.axis_2">
    <g id="ytick_1">
     <g id="line2d_4">
      <defs>
       <path id="m3ce8cc191a" d="M 0 0 
L -3.5 0 
" style="stroke: #000000; stroke-width: 0.8"/>
      </defs>
      <g>
       <use xlink:href="#m3ce8cc191a" x="94.25" y="152.596854" style="stroke: #000000; stroke-width: 0.8"/>
      </g>
     </g>
     <g id="text_6">
      <!-- −12.548260 -->
      <g transform="translate(24.792187 156.396072) scale(0.1 -0.1)">
       <defs>
        <path id="DejaVuSans-32" d="M 1228 531 
L 3431 531 
L 3431 0 
L 469 0 
L 469 531 
Q 828 903 1448 1529 
Q 2069 2156 2228 2338 
Q 2531 2678 2651 2914 
Q 2772 3150 2772 3378 
Q 2772 3750 2511 3984 
Q 2250 4219 1831 4219 
Q 1534 4219 1204 4116 
Q 875 4013 500 3803 
L 500 4441 
Q 881 4594 1212 4672 
Q 1544 4750 1819 4750 
Q 2544 4750 2975 4387 
Q 3406 4025 3406 3419 
Q 3406 3131 3298 2873 
Q 3191 2616 2906 2266 
Q 2828 2175 2409 1742 
Q 1991 1309 1228 531 
z
" transform="scale(0.015625)"/>
        <path id="DejaVuSans-2e" d="M 684 794 
L 1344 794 
L 1344 0 
L 684 0 
L 684 794 
z
" transform="scale(0.015625)"/>
        <path id="DejaVuSans-34" d="M 2419 4116 
L 825 1625 
L 2419 1625 
L 2419 4116 
z
M 2253 4666 
L 3047 4666 
L 3047 1625 
L 3713 1625 
L 3713 1100 
L 3047 1100 
L 3047 0 
L 2419 0 
L 2419 1100 
L 313 1100 
L 313 1709 
L 2253 4666 
z
" transform="scale(0.015625)"/>
        <path id="DejaVuSans-38" d="M 2034 2216 
Q 1584 2216 1326 1975 
Q 1069 1734 1069 1313 
Q 1069 891 1326 650 
Q 1584 409 2034 409 
Q 2484 409 2743 651 
Q 3003 894 3003 1313 
Q 3003 1734 2745 1975 
Q 2488 2216 2034 2216 
z
M 1403 2484 
Q 997 2584 770 2862 
Q 544 3141 544 3541 
Q 544 4100 942 4425 
Q 1341 4750 2034 4750 
Q 2731 4750 3128 4425 
Q 3525 4100 3525 3541 
Q 3525 3141 3298 2862 
Q 3072 2584 2669 2484 
Q 3125 2378 3379 2068 
Q 3634 1759 3634 1313 
Q 3634 634 3220 271 
Q 2806 -91 2034 -91 
Q 1263 -91 848 271 
Q 434 634 434 1313 
Q 434 1759 690 2068 
Q 947 2378 1403 2484 
z
M 1172 3481 
Q 1172 3119 1398 2916 
Q 1625 2713 2034 2713 
Q 2441 2713 2670 2916 
Q 2900 3119 2900 3481 
Q 2900 3844 2670 4047 
Q 2441 4250 2034 4250 
Q 1625 4250 1398 4047 
Q 1172 3844 1172 3481 
z
" transform="scale(0.015625)"/>
        <path id="DejaVuSans-36" d="M 2113 2584 
Q 1688 2584 1439 2293 
Q 1191 2003 1191 1497 
Q 1191 994 1439 701 
Q 1688 409 2113 409 
Q 2538 409 2786 701 
Q 3034 994 3034 1497 
Q 3034 2003 2786 2293 
Q 2538 2584 2113 2584 
z
M 3366 4563 
L 3366 3988 
Q 3128 4100 2886 4159 
Q 2644 4219 2406 4219 
Q 1781 4219 1451 3797 
Q 1122 3375 1075 2522 
Q 1259 2794 1537 2939 
Q 1816 3084 2150 3084 
Q 2853 3084 3261 2657 
Q 3669 2231 3669 1497 
Q 3669 778 3244 343 
Q 2819 -91 2113 -91 
Q 1303 -91 875 529 
Q 447 1150 447 2328 
Q 447 3434 972 4092 
Q 1497 4750 2381 4750 
Q 2619 4750 2861 4703 
Q 3103 4656 3366 4563 
z
" transform="scale(0.015625)"/>
       </defs>
       <use xlink:href="#DejaVuSans-2212"/>
       <use xlink:href="#DejaVuSans-31" x="83.789062"/>
       <use xlink:href="#DejaVuSans-32" x="147.412109"/>
       <use xlink:href="#DejaVuSans-2e" x="211.035156"/>
       <use xlink:href="#DejaVuSans-35" x="242.822266"/>
       <use xlink:href="#DejaVuSans-34" x="306.445312"/>
       <use xlink:href="#DejaVuSans-38" x="370.068359"/>
       <use xlink:href="#DejaVuSans-32" x="433.691406"/>
       <use xlink:href="#DejaVuSans-36" x="497.314453"/>
       <use xlink:href="#DejaVuSans-30" x="560.9375"/>
      </g>
     </g>
    </g>
    <g id="ytick_2">
     <g id="line2d_5">
      <g>
       <use xlink:href="#m3ce8cc191a" x="94.25" y="123.063189" style="stroke: #000000; stroke-width: 0.8"/>
      </g>
     </g>
     <g id="text_7">
      <!-- −12.548258 -->
      <g transform="translate(24.792187 126.862408) scale(0.1 -0.1)">
       <use xlink:href="#DejaVuSans-2212"/>
       <use xlink:href="#DejaVuSans-31" x="83.789062"/>
       <use xlink:href="#DejaVuSans-32" x="147.412109"/>
       <use xlink:href="#DejaVuSans-2e" x="211.035156"/>
       <use xlink:href="#DejaVuSans-35" x="242.822266"/>
       <use xlink:href="#DejaVuSans-34" x="306.445312"/>
       <use xlink:href="#DejaVuSans-38" x="370.068359"/>
       <use xlink:href="#DejaVuSans-32" x="433.691406"/>
       <use xlink:href="#DejaVuSans-35" x="497.314453"/>
       <use xlink:href="#DejaVuSans-38" x="560.9375"/>
      </g>
     </g>
    </g>
    <g id="ytick_3">
     <g id="line2d_6">
      <g>
       <use xlink:href="#m3ce8cc191a" x="94.25" y="93.529524" style="stroke: #000000; stroke-width: 0.8"/>
      </g>
     </g>
     <g id="text_8">
      <!-- −12.548256 -->
      <g transform="translate(24.792187 97.328743) scale(0.1 -0.1)">
       <use xlink:href="#DejaVuSans-2212"/>
       <use xlink:href="#DejaVuSans-31" x="83.789062"/>
       <use xlink:href="#DejaVuSans-32" x="147.412109"/>
       <use xlink:href="#DejaVuSans-2e" x="211.035156"/>
       <use xlink:href="#DejaVuSans-35" x="242.822266"/>
       <use xlink:href="#DejaVuSans-34" x="306.445312"/>
       <use xlink:href="#DejaVuSans-38" x="370.068359"/>
       <use xlink:href="#DejaVuSans-32" x="433.691406"/>
       <use xlink:href="#DejaVuSans-35" x="497.314453"/>
       <use xlink:href="#DejaVuSans-36" x="560.9375"/>
      </g>
     </g>
    </g>
    <g id="ytick_4">
     <g id="line2d_7">
      <g>
       <use xlink:href="#m3ce8cc191a" x="94.25" y="63.995859" style="stroke: #000000; stroke-width: 0.8"/>
      </g>
     </g>
     <g id="text_9">
      <!-- −12.548254 -->
      <g transform="translate(24.792187 67.795078) scale(0.1 -0.1)">
       <use xlink:href="#DejaVuSans-2212"/>
       <use xlink:href="#DejaVuSans-31" x="83.789062"/>
       <use xlink:href="#DejaVuSans-32" x="147.412109"/>
       <use xlink:href="#DejaVuSans-2e" x="211.035156"/>
       <use xlink:href="#DejaVuSans-35" x="242.822266"/>
       <use xlink:href="#DejaVuSans-34" x="306.445312"/>
       <use xlink:href="#DejaVuSans-38" x="370.068359"/>
       <use xlink:href="#DejaVuSans-32" x="433.691406"/>
       <use xlink:href="#DejaVuSans-35" x="497.314453"/>
       <use xlink:href="#DejaVuSans-34" x="560.9375"/>
      </g>
     </g>
    </g>
    <g id="ytick_5">
     <g id="line2d_8">
      <g>
       <use xlink:href="#m3ce8cc191a" x="94.25" y="34.462195" style="stroke: #000000; stroke-width: 0.8"/>
      </g>
     </g>
     <g id="text_10">
      <!-- −12.548252 -->
      <g transform="translate(24.792187 38.261413) scale(0.1 -0.1)">
       <use xlink:href="#DejaVuSans-2212"/>
       <use xlink:href="#DejaVuSans-31" x="83.789062"/>
       <use xlink:href="#DejaVuSans-32" x="147.412109"/>
       <use xlink:href="#DejaVuSans-2e" x="211.035156"/>
       <use xlink:href="#DejaVuSans-35" x="242.822266"/>
       <use xlink:href="#DejaVuSans-34" x="306.445312"/>
       <use xlink:href="#DejaVuSans-38" x="370.068359"/>
       <use xlink:href="#DejaVuSans-32" x="433.691406"/>
       <use xlink:href="#DejaVuSans-35" x="497.314453"/>
       <use xlink:href="#DejaVuSans-32" x="560.9375"/>
      </g>
     </g>
    </g>
    <g id="text_11">
     <!-- $\text{NLL}$ -->
     <g transform="translate(18.7125 101.77) rotate(-90) scale(0.1 -0.1)">
      <defs>
       <path id="DejaVuSans-4e" d="M 628 4666 
L 1478 4666 
L 3547 763 
L 3547 4666 
L 4159 4666 
L 4159 0 
L 3309 0 
L 1241 3903 
L 1241 0 
L 628 0 
L 628 4666 
z
" transform="scale(0.015625)"/>
       <path id="DejaVuSans-4c" d="M 628 4666 
L 1259 4666 
L 1259 531 
L 3531 531 
L 3531 0 
L 628 0 
L 628 4666 
z
" transform="scale(0.015625)"/>
      </defs>
      <use xlink:href="#DejaVuSans-4e" transform="translate(0 0.09375)"/>
      <use xlink:href="#DejaVuSans-4c" transform="translate(74.804688 0.09375)"/>
      <use xlink:href="#DejaVuSans-4c" transform="translate(130.517578 0.09375)"/>
     </g>
    </g>
   </g>
   <g id="line2d_9">
    <path d="M 99.277004 147.289026 
L 100.792684 148.141598 
L 101.29791 147.393889 
L 102.308363 148.00087 
L 102.81359 147.084838 
L 103.824043 147.70066 
L 104.32927 146.893399 
L 105.339723 147.521357 
L 105.844949 146.606642 
L 107.360629 147.613835 
L 107.865855 146.731331 
L 108.371082 147.021253 
L 108.876309 148.688594 
L 109.381535 147.702109 
L 110.391988 148.498415 
L 110.897215 147.468127 
L 111.907668 148.197665 
L 112.412894 147.206824 
L 112.918121 147.620512 
L 113.423347 147.86323 
L 113.928574 146.822625 
L 114.939027 147.58546 
L 115.444254 148.030429 
L 115.94948 146.82808 
L 116.959933 147.730723 
L 117.46516 146.463678 
L 117.970386 148.582961 
L 118.475613 149.081013 
L 118.980839 147.770131 
L 119.991293 148.783791 
L 120.496519 147.508754 
L 121.506972 148.443552 
L 122.012199 147.088392 
L 123.022652 148.052923 
L 123.527878 148.624358 
L 124.033105 147.160123 
L 124.538331 147.60274 
L 125.043558 148.196088 
L 125.548785 146.626119 
L 128.074917 149.712451 
L 128.580144 147.62945 
L 129.590597 149.058998 
L 130.095823 147.128746 
L 131.611503 149.269634 
L 132.11673 147.113907 
L 133.127183 148.790719 
L 133.632409 146.408089 
L 134.137636 147.059966 
L 134.642862 147.973841 
L 135.148089 145.304681 
L 135.653315 146.216309 
L 136.158542 151.1141 
L 136.663769 148.246171 
L 138.179448 151.656664 
L 138.684675 148.267915 
L 139.695128 151.091466 
L 140.200354 147.111754 
L 141.210807 150.28413 
L 141.716034 145.469074 
L 142.726487 148.592318 
L 143.231714 142.470196 
L 144.242167 146.494541 
L 144.747393 138.197102 
L 145.25262 152.381111 
L 145.757846 156.488286 
L 146.263073 161.84888 
L 146.768299 150.25982 
L 147.273526 156.588967 
L 147.778753 166.51559 
L 148.283979 142.805796 
L 148.789206 156.689433 
L 149.294432 18.22 
L 149.799659 18.234914 
L 150.304885 156.734396 
L 150.810112 142.880374 
L 151.315338 166.62 
L 151.820565 156.723209 
L 152.325791 150.423893 
L 152.831018 162.042785 
L 153.336245 156.712022 
L 153.841471 152.634678 
L 154.346698 138.480501 
L 154.851924 146.807772 
L 155.862377 142.843089 
L 156.367604 148.995043 
L 157.378057 145.931462 
L 157.883283 150.77635 
L 158.893737 147.663637 
L 159.398963 151.67318 
L 160.409416 148.909292 
L 160.914643 152.327872 
L 161.419869 151.034888 
L 162.430322 149.006874 
L 162.935549 151.904635 
L 163.440775 147.036675 
L 163.946002 146.154878 
L 164.451229 148.85387 
L 164.956455 147.969826 
L 165.461682 147.347781 
L 165.966908 149.760242 
L 166.977361 148.143093 
L 167.482588 150.328651 
L 167.987814 149.548299 
L 168.998267 148.277258 
L 169.503494 150.237342 
L 170.513947 148.867457 
L 171.019174 150.980289 
L 172.534853 149.055399 
L 173.545306 148.043114 
L 174.050533 149.642915 
L 175.060986 148.666612 
L 175.566213 150.16068 
L 176.576666 149.097579 
L 177.081892 148.714208 
L 177.587119 150.099199 
L 178.597572 149.224064 
L 179.102798 150.528933 
L 180.113251 149.574936 
L 180.618478 150.915649 
L 181.123705 150.447429 
L 181.628931 148.357978 
L 182.134158 149.654853 
L 183.144611 148.811873 
L 183.649837 150.044054 
L 185.165517 148.925745 
L 185.670743 149.996181 
L 186.17597 149.783295 
L 186.681197 149.399438 
L 187.186423 150.420111 
L 188.196876 149.750235 
L 188.702103 150.810355 
L 189.712556 150.073712 
L 190.217782 151.090028 
L 190.723009 149.452519 
L 191.228235 149.192428 
L 191.733462 150.104763 
L 193.249142 149.187065 
L 193.754368 150.131612 
L 194.764821 149.563317 
L 195.270048 150.40041 
L 196.280501 149.84425 
L 196.785728 150.790114 
L 197.796181 150.242795 
L 198.301407 151.020336 
L 199.817087 150.257259 
L 199.817087 150.257259 
" clip-path="url(#pc61181063c)" style="fill: none; stroke-dasharray: 5.55,2.4; stroke-dashoffset: 0; stroke: #e377c2; stroke-width: 1.5"/>
   </g>
   <g id="line2d_10">
    <path d="M 99.277004 147.223777 
L 100.287457 147.275171 
L 101.803137 147.316663 
L 103.318816 147.425228 
L 103.824043 147.341969 
L 105.339723 147.447159 
L 107.360629 147.45833 
L 109.381535 147.620445 
L 109.886762 147.516684 
L 111.907668 147.674794 
L 113.928574 147.651432 
L 115.444254 147.741881 
L 116.959933 147.730722 
L 118.980839 147.877442 
L 120.496519 147.847484 
L 121.506972 147.975637 
L 122.012199 147.922268 
L 122.517425 147.987002 
L 123.527878 147.867971 
L 125.548785 148.129604 
L 126.559238 147.983443 
L 127.569691 148.116168 
L 128.074917 148.032085 
L 129.590597 148.237185 
L 130.095823 148.140536 
L 130.60105 148.210071 
L 131.106277 148.103706 
L 133.127183 148.391191 
L 134.137636 148.124281 
L 137.168995 148.586292 
L 138.179448 148.194092 
L 140.705581 148.609221 
L 141.210807 148.31676 
L 143.73694 148.826713 
L 145.25262 149.3259 
L 145.757846 148.697498 
L 146.263073 148.864235 
L 146.768299 147.898976 
L 150.810112 148.074235 
L 152.325791 148.063049 
L 152.831018 149.058139 
L 153.336245 148.921234 
L 153.841471 149.579468 
L 155.357151 149.169775 
L 157.883283 148.808979 
L 158.38851 149.131272 
L 160.914643 148.8653 
L 161.925096 149.317163 
L 164.956455 149.034141 
L 165.966908 149.360715 
L 167.987814 149.192555 
L 168.493041 149.328752 
L 168.998267 149.289048 
L 169.503494 149.415529 
L 171.019174 149.299924 
L 171.5244 149.413838 
L 172.534853 149.340776 
L 173.545306 149.5466 
L 175.566213 149.404292 
L 176.576666 149.582986 
L 177.081892 149.548084 
L 177.587119 149.631284 
L 179.102798 149.530114 
L 180.113251 149.682247 
L 182.134158 149.654853 
L 183.649837 149.755506 
L 185.165517 149.754552 
L 187.186423 149.897239 
L 189.207329 149.858456 
L 189.712556 149.992048 
L 191.733462 149.949258 
L 193.754368 150.057414 
L 195.270048 150.041718 
L 195.775274 150.154808 
L 197.796181 150.10683 
L 199.817087 150.192009 
L 199.817087 150.192009 
" clip-path="url(#pc61181063c)" style="fill: none; stroke: #1f77b4; stroke-width: 1.5; stroke-linecap: square"/>
   </g>
   <g id="patch_3">
    <path d="M 94.25 174.04 
L 94.25 10.8 
" style="fill: none; stroke: #000000; stroke-width: 0.8; stroke-linejoin: miter; stroke-linecap: square"/>
   </g>
   <g id="patch_4">
    <path d="M 204.844091 174.04 
L 204.844091 10.8 
" style="fill: none; stroke: #000000; stroke-width: 0.8; stroke-linejoin: miter; stroke-linecap: square"/>
   </g>
   <g id="patch_5">
    <path d="M 94.25 174.04 
L 204.844091 174.04 
" style="fill: none; stroke: #000000; stroke-width: 0.8; stroke-linejoin: miter; stroke-linecap: square"/>
   </g>
   <g id="patch_6">
    <path d="M 94.25 10.8 
L 204.844091 10.8 
" style="fill: none; stroke: #000000; stroke-width: 0.8; stroke-linejoin: miter; stroke-linecap: square"/>
   </g>
   <g id="legend_1">
    <g id="patch_7">
     <path d="M 140.344091 108.598125 
L 197.844091 108.598125 
Q 199.844091 108.598125 199.844091 106.598125 
L 199.844091 78.241875 
Q 199.844091 76.241875 197.844091 76.241875 
L 140.344091 76.241875 
Q 138.344091 76.241875 138.344091 78.241875 
L 138.344091 106.598125 
Q 138.344091 108.598125 140.344091 108.598125 
z
" style="fill: #ffffff; opacity: 0.8; stroke: #cccccc; stroke-linejoin: miter"/>
    </g>
    <g id="line2d_11">
     <path d="M 142.344091 84.340313 
L 152.344091 84.340313 
L 162.344091 84.340313 
" style="fill: none; stroke-dasharray: 5.55,2.4; stroke-dashoffset: 0; stroke: #e377c2; stroke-width: 1.5"/>
    </g>
    <g id="text_12">
     <!-- $\lambda$ in -->
     <g transform="translate(170.344091 87.840313) scale(0.1 -0.1)">
      <defs>
       <path id="DejaVuSans-20" transform="scale(0.015625)"/>
       <path id="DejaVuSans-69" d="M 603 3500 
L 1178 3500 
L 1178 0 
L 603 0 
L 603 3500 
z
M 603 4863 
L 1178 4863 
L 1178 4134 
L 603 4134 
L 603 4863 
z
" transform="scale(0.015625)"/>
       <path id="DejaVuSans-6e" d="M 3513 2113 
L 3513 0 
L 2938 0 
L 2938 2094 
Q 2938 2591 2744 2837 
Q 2550 3084 2163 3084 
Q 1697 3084 1428 2787 
Q 1159 2491 1159 1978 
L 1159 0 
L 581 0 
L 581 3500 
L 1159 3500 
L 1159 2956 
Q 1366 3272 1645 3428 
Q 1925 3584 2291 3584 
Q 2894 3584 3203 3211 
Q 3513 2838 3513 2113 
z
" transform="scale(0.015625)"/>
      </defs>
      <use xlink:href="#DejaVuSans-Oblique-3bb" transform="translate(0 0.015625)"/>
      <use xlink:href="#DejaVuSans-20" transform="translate(59.179688 0.015625)"/>
      <use xlink:href="#DejaVuSans-69" transform="translate(90.966797 0.015625)"/>
      <use xlink:href="#DejaVuSans-6e" transform="translate(118.75 0.015625)"/>
     </g>
    </g>
    <g id="line2d_12">
     <path d="M 142.344091 99.018438 
L 152.344091 99.018438 
L 162.344091 99.018438 
" style="fill: none; stroke: #1f77b4; stroke-width: 1.5; stroke-linecap: square"/>
    </g>
    <g id="text_13">
     <!-- $\lambda$ out -->
     <g transform="translate(170.344091 102.518438) scale(0.1 -0.1)">
      <defs>
       <path id="DejaVuSans-6f" d="M 1959 3097 
Q 1497 3097 1228 2736 
Q 959 2375 959 1747 
Q 959 1119 1226 758 
Q 1494 397 1959 397 
Q 2419 397 2687 759 
Q 2956 1122 2956 1747 
Q 2956 2369 2687 2733 
Q 2419 3097 1959 3097 
z
M 1959 3584 
Q 2709 3584 3137 3096 
Q 3566 2609 3566 1747 
Q 3566 888 3137 398 
Q 2709 -91 1959 -91 
Q 1206 -91 779 398 
Q 353 888 353 1747 
Q 353 2609 779 3096 
Q 1206 3584 1959 3584 
z
" transform="scale(0.015625)"/>
       <path id="DejaVuSans-75" d="M 544 1381 
L 544 3500 
L 1119 3500 
L 1119 1403 
Q 1119 906 1312 657 
Q 1506 409 1894 409 
Q 2359 409 2629 706 
Q 2900 1003 2900 1516 
L 2900 3500 
L 3475 3500 
L 3475 0 
L 2900 0 
L 2900 538 
Q 2691 219 2414 64 
Q 2138 -91 1772 -91 
Q 1169 -91 856 284 
Q 544 659 544 1381 
z
M 1991 3584 
L 1991 3584 
z
" transform="scale(0.015625)"/>
       <path id="DejaVuSans-74" d="M 1172 4494 
L 1172 3500 
L 2356 3500 
L 2356 3053 
L 1172 3053 
L 1172 1153 
Q 1172 725 1289 603 
Q 1406 481 1766 481 
L 2356 481 
L 2356 0 
L 1766 0 
Q 1100 0 847 248 
Q 594 497 594 1153 
L 594 3053 
L 172 3053 
L 172 3500 
L 594 3500 
L 594 4494 
L 1172 4494 
z
" transform="scale(0.015625)"/>
      </defs>
      <use xlink:href="#DejaVuSans-Oblique-3bb" transform="translate(0 0.015625)"/>
      <use xlink:href="#DejaVuSans-20" transform="translate(59.179688 0.015625)"/>
      <use xlink:href="#DejaVuSans-6f" transform="translate(90.966797 0.015625)"/>
      <use xlink:href="#DejaVuSans-75" transform="translate(152.148438 0.015625)"/>
      <use xlink:href="#DejaVuSans-74" transform="translate(215.527344 0.015625)"/>
     </g>
    </g>
   </g>
  </g>
 </g>
 <defs>
  <clipPath id="pc61181063c">
   <rect x="94.25" y="10.8" width="110.594091" height="163.24"/>
  </clipPath>
 </defs>
</svg>
