<?xml version="1.0" encoding="utf-8" standalone="no"?>
<!DOCTYPE svg PUBLIC "-//W3C//DTD SVG 1.1//EN"
  "http://www.w3.org/Graphics/SVG/1.1/DTD/svg11.dtd">
<svg xmlns:xlink="http://www.w3.org/1999/xlink" width="216pt" height="216pt" viewBox="0 0 216 216" xmlns="http://www.w3.org/2000/svg" version="1.1">
 <metadata>
  <rdf:RDF xmlns:dc="http://purl.org/dc/elements/1.1/" xmlns:cc="http://creativecommons.org/ns#" xmlns:rdf="http://www.w3.org/1999/02/22-rdf-syntax-ns#">
   <cc:Work>
    <dc:type rdf:resource="http://purl.org/dc/dcmitype/StillImage"/>
    <dc:date>2025-09-29T01:06:05.416629</dc:date>
    <dc:format>image/svg+xml</dc:format>
    <dc:creator>
     <cc:Agent>
      <dc:title>Matplotlib v3.10.6, https://matplotlib.org/</dc:title>
     </cc:Agent>
    </dc:creator>
   </cc:Work>
  </rdf:RDF>
 </metadata>
 <defs>
  <style type="text/css">*{stroke-linejoin: round; stroke-linecap: butt}</style>
 </defs>
 <g id="figure_1">
  <g id="patch_1">
   <path d="M 0 216 
L 216 216 
L 216 0 
L 0 0 
z
" style="fill: #ffffff"/>
  </g>
  <g id="axes_1">
   <g id="patch_2">
    <path d="M 65.765 174.04 
L 205.2 174.04 
L 205.2 26.16 
L 65.765 26.16 
z
" style="fill: #ffffff"/>
   </g>
   <g id="matplotlib.axis_1">
    <g id="xtick_1">
     <g id="line2d_1">
      <defs>
       <path id="m514f46af2d" d="M 0 0 
L 0 3.5 
" style="stroke: #000000; stroke-width: 0.8"/>
      </defs>
      <g>
       <use xlink:href="#m514f46af2d" x="72.102955" y="174.04" style="stroke: #000000; stroke-width: 0.8"/>
      </g>
     </g>
     <g id="text_1">
      <!-- −150 -->
      <g transform="translate(58.369361 188.638438) scale(0.1 -0.1)">
       <defs>
        <path id="DejaVuSans-2212" d="M 678 2272 
L 4684 2272 
L 4684 1741 
L 678 1741 
L 678 2272 
z
" transform="scale(0.015625)"/>
        <path id="DejaVuSans-31" d="M 794 531 
L 1825 531 
L 1825 4091 
L 703 3866 
L 703 4441 
L 1819 4666 
L 2450 4666 
L 2450 531 
L 3481 531 
L 3481 0 
L 794 0 
L 794 531 
z
" transform="scale(0.015625)"/>
        <path id="DejaVuSans-35" d="M 691 4666 
L 3169 4666 
L 3169 4134 
L 1269 4134 
L 1269 2991 
Q 1406 3038 1543 3061 
Q 1681 3084 1819 3084 
Q 2600 3084 3056 2656 
Q 3513 2228 3513 1497 
Q 3513 744 3044 326 
Q 2575 -91 1722 -91 
Q 1428 -91 1123 -41 
Q 819 9 494 109 
L 494 744 
Q 775 591 1075 516 
Q 1375 441 1709 441 
Q 2250 441 2565 725 
Q 2881 1009 2881 1497 
Q 2881 1984 2565 2268 
Q 2250 2553 1709 2553 
Q 1456 2553 1204 2497 
Q 953 2441 691 2322 
L 691 4666 
z
" transform="scale(0.015625)"/>
        <path id="DejaVuSans-30" d="M 2034 4250 
Q 1547 4250 1301 3770 
Q 1056 3291 1056 2328 
Q 1056 1369 1301 889 
Q 1547 409 2034 409 
Q 2525 409 2770 889 
Q 3016 1369 3016 2328 
Q 3016 3291 2770 3770 
Q 2525 4250 2034 4250 
z
M 2034 4750 
Q 2819 4750 3233 4129 
Q 3647 3509 3647 2328 
Q 3647 1150 3233 529 
Q 2819 -91 2034 -91 
Q 1250 -91 836 529 
Q 422 1150 422 2328 
Q 422 3509 836 4129 
Q 1250 4750 2034 4750 
z
" transform="scale(0.015625)"/>
       </defs>
       <use xlink:href="#DejaVuSans-2212"/>
       <use xlink:href="#DejaVuSans-31" transform="translate(83.789062 0)"/>
       <use xlink:href="#DejaVuSans-35" transform="translate(147.412109 0)"/>
       <use xlink:href="#DejaVuSans-30" transform="translate(211.035156 0)"/>
      </g>
     </g>
    </g>
    <g id="xtick_2">
     <g id="line2d_2">
      <g>
       <use xlink:href="#m514f46af2d" x="107.313813" y="174.04" style="stroke: #000000; stroke-width: 0.8"/>
      </g>
     </g>
     <g id="text_2">
      <!-- −100 -->
      <g transform="translate(93.580219 188.638438) scale(0.1 -0.1)">
       <use xlink:href="#DejaVuSans-2212"/>
       <use xlink:href="#DejaVuSans-31" transform="translate(83.789062 0)"/>
       <use xlink:href="#DejaVuSans-30" transform="translate(147.412109 0)"/>
       <use xlink:href="#DejaVuSans-30" transform="translate(211.035156 0)"/>
      </g>
     </g>
    </g>
    <g id="xtick_3">
     <g id="line2d_3">
      <g>
       <use xlink:href="#m514f46af2d" x="142.524672" y="174.04" style="stroke: #000000; stroke-width: 0.8"/>
      </g>
     </g>
     <g id="text_3">
      <!-- −50 -->
      <g transform="translate(131.972328 188.638438) scale(0.1 -0.1)">
       <use xlink:href="#DejaVuSans-2212"/>
       <use xlink:href="#DejaVuSans-35" transform="translate(83.789062 0)"/>
       <use xlink:href="#DejaVuSans-30" transform="translate(147.412109 0)"/>
      </g>
     </g>
    </g>
    <g id="xtick_4">
     <g id="line2d_4">
      <g>
       <use xlink:href="#m514f46af2d" x="177.73553" y="174.04" style="stroke: #000000; stroke-width: 0.8"/>
      </g>
     </g>
     <g id="text_4">
      <!-- 0 -->
      <g transform="translate(174.55428 188.638438) scale(0.1 -0.1)">
       <use xlink:href="#DejaVuSans-30"/>
      </g>
     </g>
    </g>
    <g id="text_5">
     <!-- $\lambda$ -->
     <g transform="translate(132.4825 202.316563) scale(0.1 -0.1)">
      <defs>
       <path id="DejaVuSans-Oblique-3bb" d="M 2350 4316 
L 3125 0 
L 2516 0 
L 2038 2588 
L 328 0 
L -281 0 
L 1903 3356 
L 1794 3975 
Q 1725 4369 1391 4369 
L 1091 4369 
L 1184 4863 
L 1550 4856 
Q 2253 4847 2350 4316 
z
" transform="scale(0.015625)"/>
      </defs>
      <use xlink:href="#DejaVuSans-Oblique-3bb" transform="translate(0 0.015625)"/>
     </g>
    </g>
   </g>
   <g id="matplotlib.axis_2">
    <g id="ytick_1">
     <g id="line2d_5">
      <defs>
       <path id="m0aa7877d34" d="M 0 0 
L -3.5 0 
" style="stroke: #000000; stroke-width: 0.8"/>
      </defs>
      <g>
       <use xlink:href="#m0aa7877d34" x="65.765" y="172.04479" style="stroke: #000000; stroke-width: 0.8"/>
      </g>
     </g>
     <g id="text_6">
      <!-- −2000 -->
      <g transform="translate(24.935313 175.844009) scale(0.1 -0.1)">
       <defs>
        <path id="DejaVuSans-32" d="M 1228 531 
L 3431 531 
L 3431 0 
L 469 0 
L 469 531 
Q 828 903 1448 1529 
Q 2069 2156 2228 2338 
Q 2531 2678 2651 2914 
Q 2772 3150 2772 3378 
Q 2772 3750 2511 3984 
Q 2250 4219 1831 4219 
Q 1534 4219 1204 4116 
Q 875 4013 500 3803 
L 500 4441 
Q 881 4594 1212 4672 
Q 1544 4750 1819 4750 
Q 2544 4750 2975 4387 
Q 3406 4025 3406 3419 
Q 3406 3131 3298 2873 
Q 3191 2616 2906 2266 
Q 2828 2175 2409 1742 
Q 1991 1309 1228 531 
z
" transform="scale(0.015625)"/>
       </defs>
       <use xlink:href="#DejaVuSans-2212"/>
       <use xlink:href="#DejaVuSans-32" transform="translate(83.789062 0)"/>
       <use xlink:href="#DejaVuSans-30" transform="translate(147.412109 0)"/>
       <use xlink:href="#DejaVuSans-30" transform="translate(211.035156 0)"/>
       <use xlink:href="#DejaVuSans-30" transform="translate(274.658203 0)"/>
      </g>
     </g>
    </g>
    <g id="ytick_2">
     <g id="line2d_6">
      <g>
       <use xlink:href="#m0aa7877d34" x="65.765" y="139.234164" style="stroke: #000000; stroke-width: 0.8"/>
      </g>
     </g>
     <g id="text_7">
      <!-- 0 -->
      <g transform="translate(52.4025 143.033383) scale(0.1 -0.1)">
       <use xlink:href="#DejaVuSans-30"/>
      </g>
     </g>
    </g>
    <g id="ytick_3">
     <g id="line2d_7">
      <g>
       <use xlink:href="#m0aa7877d34" x="65.765" y="106.423538" style="stroke: #000000; stroke-width: 0.8"/>
      </g>
     </g>
     <g id="text_8">
      <!-- 2000 -->
      <g transform="translate(33.315 110.222757) scale(0.1 -0.1)">
       <use xlink:href="#DejaVuSans-32"/>
       <use xlink:href="#DejaVuSans-30" transform="translate(63.623047 0)"/>
       <use xlink:href="#DejaVuSans-30" transform="translate(127.246094 0)"/>
       <use xlink:href="#DejaVuSans-30" transform="translate(190.869141 0)"/>
      </g>
     </g>
    </g>
    <g id="ytick_4">
     <g id="line2d_8">
      <g>
       <use xlink:href="#m0aa7877d34" x="65.765" y="73.612912" style="stroke: #000000; stroke-width: 0.8"/>
      </g>
     </g>
     <g id="text_9">
      <!-- 4000 -->
      <g transform="translate(33.315 77.412131) scale(0.1 -0.1)">
       <defs>
        <path id="DejaVuSans-34" d="M 2419 4116 
L 825 1625 
L 2419 1625 
L 2419 4116 
z
M 2253 4666 
L 3047 4666 
L 3047 1625 
L 3713 1625 
L 3713 1100 
L 3047 1100 
L 3047 0 
L 2419 0 
L 2419 1100 
L 313 1100 
L 313 1709 
L 2253 4666 
z
" transform="scale(0.015625)"/>
       </defs>
       <use xlink:href="#DejaVuSans-34"/>
       <use xlink:href="#DejaVuSans-30" transform="translate(63.623047 0)"/>
       <use xlink:href="#DejaVuSans-30" transform="translate(127.246094 0)"/>
       <use xlink:href="#DejaVuSans-30" transform="translate(190.869141 0)"/>
      </g>
     </g>
    </g>
    <g id="ytick_5">
     <g id="line2d_9">
      <g>
       <use xlink:href="#m0aa7877d34" x="65.765" y="40.802286" style="stroke: #000000; stroke-width: 0.8"/>
      </g>
     </g>
     <g id="text_10">
      <!-- 6000 -->
      <g transform="translate(33.315 44.601505) scale(0.1 -0.1)">
       <defs>
        <path id="DejaVuSans-36" d="M 2113 2584 
Q 1688 2584 1439 2293 
Q 1191 2003 1191 1497 
Q 1191 994 1439 701 
Q 1688 409 2113 409 
Q 2538 409 2786 701 
Q 3034 994 3034 1497 
Q 3034 2003 2786 2293 
Q 2538 2584 2113 2584 
z
M 3366 4563 
L 3366 3988 
Q 3128 4100 2886 4159 
Q 2644 4219 2406 4219 
Q 1781 4219 1451 3797 
Q 1122 3375 1075 2522 
Q 1259 2794 1537 2939 
Q 1816 3084 2150 3084 
Q 2853 3084 3261 2657 
Q 3669 2231 3669 1497 
Q 3669 778 3244 343 
Q 2819 -91 2113 -91 
Q 1303 -91 875 529 
Q 447 1150 447 2328 
Q 447 3434 972 4092 
Q 1497 4750 2381 4750 
Q 2619 4750 2861 4703 
Q 3103 4656 3366 4563 
z
" transform="scale(0.015625)"/>
       </defs>
       <use xlink:href="#DejaVuSans-36"/>
       <use xlink:href="#DejaVuSans-30" transform="translate(63.623047 0)"/>
       <use xlink:href="#DejaVuSans-30" transform="translate(127.246094 0)"/>
       <use xlink:href="#DejaVuSans-30" transform="translate(190.869141 0)"/>
      </g>
     </g>
    </g>
    <g id="text_11">
     <!-- $\text{NLL}$ -->
     <g transform="translate(18.855625 109.45) rotate(-90) scale(0.1 -0.1)">
      <defs>
       <path id="DejaVuSans-4e" d="M 628 4666 
L 1478 4666 
L 3547 763 
L 3547 4666 
L 4159 4666 
L 4159 0 
L 3309 0 
L 1241 3903 
L 1241 0 
L 628 0 
L 628 4666 
z
" transform="scale(0.015625)"/>
       <path id="DejaVuSans-4c" d="M 628 4666 
L 1259 4666 
L 1259 531 
L 3531 531 
L 3531 0 
L 628 0 
L 628 4666 
z
" transform="scale(0.015625)"/>
      </defs>
      <use xlink:href="#DejaVuSans-4e" transform="translate(0 0.09375)"/>
      <use xlink:href="#DejaVuSans-4c" transform="translate(74.804688 0.09375)"/>
      <use xlink:href="#DejaVuSans-4c" transform="translate(130.517578 0.09375)"/>
     </g>
    </g>
   </g>
   <g id="line2d_10">
    <path d="M 72.102955 174.04 
L 72.102955 26.16 
" clip-path="url(#p5b5a1f5ced)" style="fill: none; stroke: #ffebcd; stroke-width: 1.5; stroke-linecap: square"/>
   </g>
   <g id="line2d_11">
    <path d="M 73.373722 174.04 
L 73.373722 26.16 
" clip-path="url(#p5b5a1f5ced)" style="fill: none; stroke: #ffebcd; stroke-width: 1.5; stroke-linecap: square"/>
   </g>
   <g id="line2d_12">
    <path d="M 74.009106 174.04 
L 74.009106 26.16 
" clip-path="url(#p5b5a1f5ced)" style="fill: none; stroke: #ffebcd; stroke-width: 1.5; stroke-linecap: square"/>
   </g>
   <g id="line2d_13">
    <path d="M 74.64449 174.04 
L 74.64449 26.16 
" clip-path="url(#p5b5a1f5ced)" style="fill: none; stroke: #ffebcd; stroke-width: 1.5; stroke-linecap: square"/>
   </g>
   <g id="line2d_14">
    <path d="M 75.279874 174.04 
L 75.279874 26.16 
" clip-path="url(#p5b5a1f5ced)" style="fill: none; stroke: #ffebcd; stroke-width: 1.5; stroke-linecap: square"/>
   </g>
   <g id="line2d_15">
    <path d="M 76.23295 174.04 
L 76.23295 26.16 
" clip-path="url(#p5b5a1f5ced)" style="fill: none; stroke: #ffebcd; stroke-width: 1.5; stroke-linecap: square"/>
   </g>
   <g id="line2d_16">
    <path d="M 76.868334 174.04 
L 76.868334 26.16 
" clip-path="url(#p5b5a1f5ced)" style="fill: none; stroke: #ffebcd; stroke-width: 1.5; stroke-linecap: square"/>
   </g>
   <g id="line2d_17">
    <path d="M 77.503718 174.04 
L 77.503718 26.16 
" clip-path="url(#p5b5a1f5ced)" style="fill: none; stroke: #ffebcd; stroke-width: 1.5; stroke-linecap: square"/>
   </g>
   <g id="line2d_18">
    <path d="M 79.727562 174.04 
L 79.727562 26.16 
" clip-path="url(#p5b5a1f5ced)" style="fill: none; stroke: #ffebcd; stroke-width: 1.5; stroke-linecap: square"/>
   </g>
   <g id="line2d_19">
    <path d="M 80.045253 174.04 
L 80.045253 26.16 
" clip-path="url(#p5b5a1f5ced)" style="fill: none; stroke: #ffebcd; stroke-width: 1.5; stroke-linecap: square"/>
   </g>
   <g id="line2d_20">
    <path d="M 80.362945 174.04 
L 80.362945 26.16 
" clip-path="url(#p5b5a1f5ced)" style="fill: none; stroke: #ffebcd; stroke-width: 1.5; stroke-linecap: square"/>
   </g>
   <g id="line2d_21">
    <path d="M 80.998329 174.04 
L 80.998329 26.16 
" clip-path="url(#p5b5a1f5ced)" style="fill: none; stroke: #ffebcd; stroke-width: 1.5; stroke-linecap: square"/>
   </g>
   <g id="line2d_22">
    <path d="M 81.951405 174.04 
L 81.951405 26.16 
" clip-path="url(#p5b5a1f5ced)" style="fill: none; stroke: #ffebcd; stroke-width: 1.5; stroke-linecap: square"/>
   </g>
   <g id="line2d_23">
    <path d="M 82.269097 174.04 
L 82.269097 26.16 
" clip-path="url(#p5b5a1f5ced)" style="fill: none; stroke: #ffebcd; stroke-width: 1.5; stroke-linecap: square"/>
   </g>
   <g id="line2d_24">
    <path d="M 82.586789 174.04 
L 82.586789 26.16 
" clip-path="url(#p5b5a1f5ced)" style="fill: none; stroke: #ffebcd; stroke-width: 1.5; stroke-linecap: square"/>
   </g>
   <g id="line2d_25">
    <path d="M 83.222173 174.04 
L 83.222173 26.16 
" clip-path="url(#p5b5a1f5ced)" style="fill: none; stroke: #ffebcd; stroke-width: 1.5; stroke-linecap: square"/>
   </g>
   <g id="line2d_26">
    <path d="M 85.446017 174.04 
L 85.446017 26.16 
" clip-path="url(#p5b5a1f5ced)" style="fill: none; stroke: #ffebcd; stroke-width: 1.5; stroke-linecap: square"/>
   </g>
   <g id="line2d_27">
    <path d="M 85.763709 174.04 
L 85.763709 26.16 
" clip-path="url(#p5b5a1f5ced)" style="fill: none; stroke: #ffebcd; stroke-width: 1.5; stroke-linecap: square"/>
   </g>
   <g id="line2d_28">
    <path d="M 87.66986 174.04 
L 87.66986 26.16 
" clip-path="url(#p5b5a1f5ced)" style="fill: none; stroke: #ffebcd; stroke-width: 1.5; stroke-linecap: square"/>
   </g>
   <g id="line2d_29">
    <path d="M 87.987552 174.04 
L 87.987552 26.16 
" clip-path="url(#p5b5a1f5ced)" style="fill: none; stroke: #ffebcd; stroke-width: 1.5; stroke-linecap: square"/>
   </g>
   <g id="line2d_30">
    <path d="M 88.940628 174.04 
L 88.940628 26.16 
" clip-path="url(#p5b5a1f5ced)" style="fill: none; stroke: #ffebcd; stroke-width: 1.5; stroke-linecap: square"/>
   </g>
   <g id="line2d_31">
    <path d="M 91.482164 174.04 
L 91.482164 26.16 
" clip-path="url(#p5b5a1f5ced)" style="fill: none; stroke: #ffebcd; stroke-width: 1.5; stroke-linecap: square"/>
   </g>
   <g id="line2d_32">
    <path d="M 91.799856 174.04 
L 91.799856 26.16 
" clip-path="url(#p5b5a1f5ced)" style="fill: none; stroke: #ffebcd; stroke-width: 1.5; stroke-linecap: square"/>
   </g>
   <g id="line2d_33">
    <path d="M 92.43524 174.04 
L 92.43524 26.16 
" clip-path="url(#p5b5a1f5ced)" style="fill: none; stroke: #ffebcd; stroke-width: 1.5; stroke-linecap: square"/>
   </g>
   <g id="line2d_34">
    <path d="M 92.752932 174.04 
L 92.752932 26.16 
" clip-path="url(#p5b5a1f5ced)" style="fill: none; stroke: #ffebcd; stroke-width: 1.5; stroke-linecap: square"/>
   </g>
   <g id="line2d_35">
    <path d="M 93.070624 174.04 
L 93.070624 26.16 
" clip-path="url(#p5b5a1f5ced)" style="fill: none; stroke: #ffebcd; stroke-width: 1.5; stroke-linecap: square"/>
   </g>
   <g id="line2d_36">
    <path d="M 96.882927 174.04 
L 96.882927 26.16 
" clip-path="url(#p5b5a1f5ced)" style="fill: none; stroke: #ffebcd; stroke-width: 1.5; stroke-linecap: square"/>
   </g>
   <g id="line2d_37">
    <path d="M 97.518311 174.04 
L 97.518311 26.16 
" clip-path="url(#p5b5a1f5ced)" style="fill: none; stroke: #ffebcd; stroke-width: 1.5; stroke-linecap: square"/>
   </g>
   <g id="line2d_38">
    <path d="M 98.471387 174.04 
L 98.471387 26.16 
" clip-path="url(#p5b5a1f5ced)" style="fill: none; stroke: #ffebcd; stroke-width: 1.5; stroke-linecap: square"/>
   </g>
   <g id="line2d_39">
    <path d="M 99.106771 174.04 
L 99.106771 26.16 
" clip-path="url(#p5b5a1f5ced)" style="fill: none; stroke: #ffebcd; stroke-width: 1.5; stroke-linecap: square"/>
   </g>
   <g id="line2d_40">
    <path d="M 99.742155 174.04 
L 99.742155 26.16 
" clip-path="url(#p5b5a1f5ced)" style="fill: none; stroke: #ffebcd; stroke-width: 1.5; stroke-linecap: square"/>
   </g>
   <g id="line2d_41">
    <path d="M 101.648307 174.04 
L 101.648307 26.16 
" clip-path="url(#p5b5a1f5ced)" style="fill: none; stroke: #ffebcd; stroke-width: 1.5; stroke-linecap: square"/>
   </g>
   <g id="line2d_42">
    <path d="M 102.28369 174.04 
L 102.28369 26.16 
" clip-path="url(#p5b5a1f5ced)" style="fill: none; stroke: #ffebcd; stroke-width: 1.5; stroke-linecap: square"/>
   </g>
   <g id="line2d_43">
    <path d="M 102.919074 174.04 
L 102.919074 26.16 
" clip-path="url(#p5b5a1f5ced)" style="fill: none; stroke: #ffebcd; stroke-width: 1.5; stroke-linecap: square"/>
   </g>
   <g id="line2d_44">
    <path d="M 104.189842 174.04 
L 104.189842 26.16 
" clip-path="url(#p5b5a1f5ced)" style="fill: none; stroke: #ffebcd; stroke-width: 1.5; stroke-linecap: square"/>
   </g>
   <g id="line2d_45">
    <path d="M 105.46061 174.04 
L 105.46061 26.16 
" clip-path="url(#p5b5a1f5ced)" style="fill: none; stroke: #ffebcd; stroke-width: 1.5; stroke-linecap: square"/>
   </g>
   <g id="line2d_46">
    <path d="M 107.04907 174.04 
L 107.04907 26.16 
" clip-path="url(#p5b5a1f5ced)" style="fill: none; stroke: #ffebcd; stroke-width: 1.5; stroke-linecap: square"/>
   </g>
   <g id="line2d_47">
    <path d="M 108.955222 174.04 
L 108.955222 26.16 
" clip-path="url(#p5b5a1f5ced)" style="fill: none; stroke: #ffebcd; stroke-width: 1.5; stroke-linecap: square"/>
   </g>
   <g id="line2d_48">
    <path d="M 109.272914 174.04 
L 109.272914 26.16 
" clip-path="url(#p5b5a1f5ced)" style="fill: none; stroke: #ffebcd; stroke-width: 1.5; stroke-linecap: square"/>
   </g>
   <g id="line2d_49">
    <path d="M 109.908297 174.04 
L 109.908297 26.16 
" clip-path="url(#p5b5a1f5ced)" style="fill: none; stroke: #ffebcd; stroke-width: 1.5; stroke-linecap: square"/>
   </g>
   <g id="line2d_50">
    <path d="M 112.449833 174.04 
L 112.449833 26.16 
" clip-path="url(#p5b5a1f5ced)" style="fill: none; stroke: #ffebcd; stroke-width: 1.5; stroke-linecap: square"/>
   </g>
   <g id="line2d_51">
    <path d="M 99.152678 174.04 
L 99.152678 26.16 
" clip-path="url(#p5b5a1f5ced)" style="fill: none; stroke-dasharray: 1.5,2.475; stroke-dashoffset: 0; stroke: #000000; stroke-width: 1.5"/>
   </g>
   <g id="line2d_52">
    <path d="M 72.102955 167.003354 
L 91.799856 167.247454 
L 108.002146 167.232356 
L 121.027516 167.0063 
L 131.511351 166.614928 
L 140.089033 166.085161 
L 147.078256 165.443392 
L 152.796712 164.706671 
L 157.562091 163.872891 
L 161.374395 162.989795 
L 164.551314 162.037245 
L 167.410542 160.937754 
L 169.634385 159.864948 
L 171.858229 158.542462 
L 173.764381 157.163875 
L 175.670533 155.520356 
L 177.576684 153.584631 
L 179.482836 151.345518 
L 181.70668 148.361511 
L 184.248215 144.51344 
L 187.107443 139.731238 
L 190.602055 133.408288 
L 195.049742 124.855037 
L 198.862045 117.231583 
L 198.862045 117.231583 
" clip-path="url(#p5b5a1f5ced)" style="fill: none; stroke-dasharray: 5.55,2.4; stroke-dashoffset: 0; stroke: #1f77b4; stroke-width: 1.5"/>
   </g>
   <g id="line2d_53">
    <path d="M 72.420647 35.705398 
L 72.738338 32.881818 
L 73.05603 33.878994 
M 75.597566 41.856398 
L 75.915258 42.853574 
M 77.82141 52.657383 
L 78.139102 47.598804 
L 78.456794 54.651734 
L 79.40987 57.64326 
M 81.316021 63.626314 
L 81.633713 64.623489 
M 83.539865 70.606543 
L 83.857557 71.603718 
L 84.175249 68.780138 
L 84.492941 73.598069 
L 84.810633 74.595245 
L 85.128325 71.771665 
M 86.081401 74.763191 
L 86.399093 79.581123 
L 87.352168 82.572649 
M 88.305244 81.74342 
L 88.622936 82.740596 
M 89.25832 84.734947 
L 89.576012 81.911367 
L 89.893704 86.729298 
L 91.164472 90.718 
M 93.388316 97.698229 
L 96.565235 107.669985 
M 97.836003 111.658687 
L 98.153695 112.655862 
M 100.059847 118.638916 
L 100.377539 115.815336 
L 100.695231 120.633267 
L 101.330615 122.627618 
M 103.236766 128.610671 
L 103.87215 130.605022 
M 104.507534 128.778618 
L 104.825226 133.596549 
L 105.142918 134.593725 
M 105.778302 136.588076 
L 106.731378 139.579602 
M 107.366762 141.573954 
L 108.63753 145.562656 
M 110.225989 150.548534 
L 110.543681 151.628981 
L 110.861373 162.229244 
L 111.179065 153.54006 
L 111.496757 154.537236 
L 111.814449 165.220771 
L 112.132141 152.610159 
M 112.767525 154.469475 
L 113.085217 159.523114 
L 113.402909 166.385893 
L 113.720601 161.517465 
L 114.038293 158.756101 
L 114.355985 162.494549 
L 114.991369 163.53896 
L 115.309061 167.318182 
L 115.626753 162.431441 
L 115.944445 166.052204 
L 116.262137 164.878161 
L 116.579829 166.960761 
L 117.215212 166.872561 
L 117.850596 166.949055 
L 118.168288 166.718912 
L 118.803672 166.964403 
L 120.07444 167.005137 
L 122.933668 166.948606 
L 129.287507 166.717993 
L 138.182882 166.223714 
L 145.489797 165.610417 
L 151.525944 164.891433 
L 156.291323 164.120065 
L 160.421319 163.233344 
L 163.91593 162.247434 
L 166.775158 161.206333 
L 169.316693 160.032114 
L 171.540537 158.748972 
L 173.446689 157.411124 
L 175.352841 155.814 
L 177.258992 153.928253 
L 179.165144 151.739666 
L 181.388988 148.811071 
L 183.612832 145.514963 
L 186.154367 141.371103 
L 189.331287 135.757299 
L 193.461282 127.960247 
L 198.862045 117.231583 
L 198.862045 117.231583 
" clip-path="url(#p5b5a1f5ced)" style="fill: none; stroke: #ff0000; stroke-width: 1.5; stroke-linecap: square"/>
   </g>
   <g id="patch_3">
    <path d="M 65.765 174.04 
L 65.765 26.16 
" style="fill: none; stroke: #000000; stroke-width: 0.8; stroke-linejoin: miter; stroke-linecap: square"/>
   </g>
   <g id="patch_4">
    <path d="M 205.2 174.04 
L 205.2 26.16 
" style="fill: none; stroke: #000000; stroke-width: 0.8; stroke-linejoin: miter; stroke-linecap: square"/>
   </g>
   <g id="patch_5">
    <path d="M 65.765 174.04 
L 205.2 174.04 
" style="fill: none; stroke: #000000; stroke-width: 0.8; stroke-linejoin: miter; stroke-linecap: square"/>
   </g>
   <g id="patch_6">
    <path d="M 65.765 26.16 
L 205.2 26.16 
" style="fill: none; stroke: #000000; stroke-width: 0.8; stroke-linejoin: miter; stroke-linecap: square"/>
   </g>
   <g id="text_12">
    <!-- Ecoli: lip (Yeo-Johnson) -->
    <g transform="translate(67.234375 20.16) scale(0.12 -0.12)">
     <defs>
      <path id="DejaVuSans-45" d="M 628 4666 
L 3578 4666 
L 3578 4134 
L 1259 4134 
L 1259 2753 
L 3481 2753 
L 3481 2222 
L 1259 2222 
L 1259 531 
L 3634 531 
L 3634 0 
L 628 0 
L 628 4666 
z
" transform="scale(0.015625)"/>
      <path id="DejaVuSans-63" d="M 3122 3366 
L 3122 2828 
Q 2878 2963 2633 3030 
Q 2388 3097 2138 3097 
Q 1578 3097 1268 2742 
Q 959 2388 959 1747 
Q 959 1106 1268 751 
Q 1578 397 2138 397 
Q 2388 397 2633 464 
Q 2878 531 3122 666 
L 3122 134 
Q 2881 22 2623 -34 
Q 2366 -91 2075 -91 
Q 1284 -91 818 406 
Q 353 903 353 1747 
Q 353 2603 823 3093 
Q 1294 3584 2113 3584 
Q 2378 3584 2631 3529 
Q 2884 3475 3122 3366 
z
" transform="scale(0.015625)"/>
      <path id="DejaVuSans-6f" d="M 1959 3097 
Q 1497 3097 1228 2736 
Q 959 2375 959 1747 
Q 959 1119 1226 758 
Q 1494 397 1959 397 
Q 2419 397 2687 759 
Q 2956 1122 2956 1747 
Q 2956 2369 2687 2733 
Q 2419 3097 1959 3097 
z
M 1959 3584 
Q 2709 3584 3137 3096 
Q 3566 2609 3566 1747 
Q 3566 888 3137 398 
Q 2709 -91 1959 -91 
Q 1206 -91 779 398 
Q 353 888 353 1747 
Q 353 2609 779 3096 
Q 1206 3584 1959 3584 
z
" transform="scale(0.015625)"/>
      <path id="DejaVuSans-6c" d="M 603 4863 
L 1178 4863 
L 1178 0 
L 603 0 
L 603 4863 
z
" transform="scale(0.015625)"/>
      <path id="DejaVuSans-69" d="M 603 3500 
L 1178 3500 
L 1178 0 
L 603 0 
L 603 3500 
z
M 603 4863 
L 1178 4863 
L 1178 4134 
L 603 4134 
L 603 4863 
z
" transform="scale(0.015625)"/>
      <path id="DejaVuSans-3a" d="M 750 794 
L 1409 794 
L 1409 0 
L 750 0 
L 750 794 
z
M 750 3309 
L 1409 3309 
L 1409 2516 
L 750 2516 
L 750 3309 
z
" transform="scale(0.015625)"/>
      <path id="DejaVuSans-20" transform="scale(0.015625)"/>
      <path id="DejaVuSans-70" d="M 1159 525 
L 1159 -1331 
L 581 -1331 
L 581 3500 
L 1159 3500 
L 1159 2969 
Q 1341 3281 1617 3432 
Q 1894 3584 2278 3584 
Q 2916 3584 3314 3078 
Q 3713 2572 3713 1747 
Q 3713 922 3314 415 
Q 2916 -91 2278 -91 
Q 1894 -91 1617 61 
Q 1341 213 1159 525 
z
M 3116 1747 
Q 3116 2381 2855 2742 
Q 2594 3103 2138 3103 
Q 1681 3103 1420 2742 
Q 1159 2381 1159 1747 
Q 1159 1113 1420 752 
Q 1681 391 2138 391 
Q 2594 391 2855 752 
Q 3116 1113 3116 1747 
z
" transform="scale(0.015625)"/>
      <path id="DejaVuSans-28" d="M 1984 4856 
Q 1566 4138 1362 3434 
Q 1159 2731 1159 2009 
Q 1159 1288 1364 580 
Q 1569 -128 1984 -844 
L 1484 -844 
Q 1016 -109 783 600 
Q 550 1309 550 2009 
Q 550 2706 781 3412 
Q 1013 4119 1484 4856 
L 1984 4856 
z
" transform="scale(0.015625)"/>
      <path id="DejaVuSans-59" d="M -13 4666 
L 666 4666 
L 1959 2747 
L 3244 4666 
L 3922 4666 
L 2272 2222 
L 2272 0 
L 1638 0 
L 1638 2222 
L -13 4666 
z
" transform="scale(0.015625)"/>
      <path id="DejaVuSans-65" d="M 3597 1894 
L 3597 1613 
L 953 1613 
Q 991 1019 1311 708 
Q 1631 397 2203 397 
Q 2534 397 2845 478 
Q 3156 559 3463 722 
L 3463 178 
Q 3153 47 2828 -22 
Q 2503 -91 2169 -91 
Q 1331 -91 842 396 
Q 353 884 353 1716 
Q 353 2575 817 3079 
Q 1281 3584 2069 3584 
Q 2775 3584 3186 3129 
Q 3597 2675 3597 1894 
z
M 3022 2063 
Q 3016 2534 2758 2815 
Q 2500 3097 2075 3097 
Q 1594 3097 1305 2825 
Q 1016 2553 972 2059 
L 3022 2063 
z
" transform="scale(0.015625)"/>
      <path id="DejaVuSans-2d" d="M 313 2009 
L 1997 2009 
L 1997 1497 
L 313 1497 
L 313 2009 
z
" transform="scale(0.015625)"/>
      <path id="DejaVuSans-4a" d="M 628 4666 
L 1259 4666 
L 1259 325 
Q 1259 -519 939 -900 
Q 619 -1281 -91 -1281 
L -331 -1281 
L -331 -750 
L -134 -750 
Q 284 -750 456 -515 
Q 628 -281 628 325 
L 628 4666 
z
" transform="scale(0.015625)"/>
      <path id="DejaVuSans-68" d="M 3513 2113 
L 3513 0 
L 2938 0 
L 2938 2094 
Q 2938 2591 2744 2837 
Q 2550 3084 2163 3084 
Q 1697 3084 1428 2787 
Q 1159 2491 1159 1978 
L 1159 0 
L 581 0 
L 581 4863 
L 1159 4863 
L 1159 2956 
Q 1366 3272 1645 3428 
Q 1925 3584 2291 3584 
Q 2894 3584 3203 3211 
Q 3513 2838 3513 2113 
z
" transform="scale(0.015625)"/>
      <path id="DejaVuSans-6e" d="M 3513 2113 
L 3513 0 
L 2938 0 
L 2938 2094 
Q 2938 2591 2744 2837 
Q 2550 3084 2163 3084 
Q 1697 3084 1428 2787 
Q 1159 2491 1159 1978 
L 1159 0 
L 581 0 
L 581 3500 
L 1159 3500 
L 1159 2956 
Q 1366 3272 1645 3428 
Q 1925 3584 2291 3584 
Q 2894 3584 3203 3211 
Q 3513 2838 3513 2113 
z
" transform="scale(0.015625)"/>
      <path id="DejaVuSans-73" d="M 2834 3397 
L 2834 2853 
Q 2591 2978 2328 3040 
Q 2066 3103 1784 3103 
Q 1356 3103 1142 2972 
Q 928 2841 928 2578 
Q 928 2378 1081 2264 
Q 1234 2150 1697 2047 
L 1894 2003 
Q 2506 1872 2764 1633 
Q 3022 1394 3022 966 
Q 3022 478 2636 193 
Q 2250 -91 1575 -91 
Q 1294 -91 989 -36 
Q 684 19 347 128 
L 347 722 
Q 666 556 975 473 
Q 1284 391 1588 391 
Q 1994 391 2212 530 
Q 2431 669 2431 922 
Q 2431 1156 2273 1281 
Q 2116 1406 1581 1522 
L 1381 1569 
Q 847 1681 609 1914 
Q 372 2147 372 2553 
Q 372 3047 722 3315 
Q 1072 3584 1716 3584 
Q 2034 3584 2315 3537 
Q 2597 3491 2834 3397 
z
" transform="scale(0.015625)"/>
      <path id="DejaVuSans-29" d="M 513 4856 
L 1013 4856 
Q 1481 4119 1714 3412 
Q 1947 2706 1947 2009 
Q 1947 1309 1714 600 
Q 1481 -109 1013 -844 
L 513 -844 
Q 928 -128 1133 580 
Q 1338 1288 1338 2009 
Q 1338 2731 1133 3434 
Q 928 4138 513 4856 
z
" transform="scale(0.015625)"/>
     </defs>
     <use xlink:href="#DejaVuSans-45"/>
     <use xlink:href="#DejaVuSans-63" transform="translate(63.183594 0)"/>
     <use xlink:href="#DejaVuSans-6f" transform="translate(118.164062 0)"/>
     <use xlink:href="#DejaVuSans-6c" transform="translate(179.345703 0)"/>
     <use xlink:href="#DejaVuSans-69" transform="translate(207.128906 0)"/>
     <use xlink:href="#DejaVuSans-3a" transform="translate(234.912109 0)"/>
     <use xlink:href="#DejaVuSans-20" transform="translate(268.603516 0)"/>
     <use xlink:href="#DejaVuSans-6c" transform="translate(300.390625 0)"/>
     <use xlink:href="#DejaVuSans-69" transform="translate(328.173828 0)"/>
     <use xlink:href="#DejaVuSans-70" transform="translate(355.957031 0)"/>
     <use xlink:href="#DejaVuSans-20" transform="translate(419.433594 0)"/>
     <use xlink:href="#DejaVuSans-28" transform="translate(451.220703 0)"/>
     <use xlink:href="#DejaVuSans-59" transform="translate(490.234375 0)"/>
     <use xlink:href="#DejaVuSans-65" transform="translate(538.068359 0)"/>
     <use xlink:href="#DejaVuSans-6f" transform="translate(599.591797 0)"/>
     <use xlink:href="#DejaVuSans-2d" transform="translate(662.648438 0)"/>
     <use xlink:href="#DejaVuSans-4a" transform="translate(704.357422 0)"/>
     <use xlink:href="#DejaVuSans-6f" transform="translate(733.849609 0)"/>
     <use xlink:href="#DejaVuSans-68" transform="translate(795.03125 0)"/>
     <use xlink:href="#DejaVuSans-6e" transform="translate(858.410156 0)"/>
     <use xlink:href="#DejaVuSans-73" transform="translate(921.789062 0)"/>
     <use xlink:href="#DejaVuSans-6f" transform="translate(973.888672 0)"/>
     <use xlink:href="#DejaVuSans-6e" transform="translate(1035.070312 0)"/>
     <use xlink:href="#DejaVuSans-29" transform="translate(1098.449219 0)"/>
    </g>
   </g>
   <g id="legend_1">
    <g id="patch_7">
     <path d="M 121.55 92.8725 
L 198.2 92.8725 
Q 200.2 92.8725 200.2 90.8725 
L 200.2 33.16 
Q 200.2 31.16 198.2 31.16 
L 121.55 31.16 
Q 119.55 31.16 119.55 33.16 
L 119.55 90.8725 
Q 119.55 92.8725 121.55 92.8725 
z
" style="fill: #ffffff; opacity: 0.8; stroke: #cccccc; stroke-linejoin: miter"/>
    </g>
    <g id="line2d_54">
     <path d="M 123.55 39.258438 
L 133.55 39.258438 
L 143.55 39.258438 
" style="fill: none; stroke-dasharray: 1.5,2.475; stroke-dashoffset: 0; stroke: #000000; stroke-width: 1.5"/>
    </g>
    <g id="text_13">
     <!-- $\lambda^*$ -->
     <g transform="translate(151.55 42.758438) scale(0.1 -0.1)">
      <defs>
       <path id="DejaVuSans-2a" d="M 3009 3897 
L 1888 3291 
L 3009 2681 
L 2828 2375 
L 1778 3009 
L 1778 1831 
L 1422 1831 
L 1422 3009 
L 372 2375 
L 191 2681 
L 1313 3291 
L 191 3897 
L 372 4206 
L 1422 3572 
L 1422 4750 
L 1778 4750 
L 1778 3572 
L 2828 4206 
L 3009 3897 
z
" transform="scale(0.015625)"/>
      </defs>
      <use xlink:href="#DejaVuSans-Oblique-3bb" transform="translate(0 0.765625)"/>
      <use xlink:href="#DejaVuSans-2a" transform="translate(80.265091 39.046875) scale(0.7)"/>
     </g>
    </g>
    <g id="line2d_55">
     <path d="M 123.55 53.936563 
L 133.55 53.936563 
L 143.55 53.936563 
" style="fill: none; stroke-dasharray: 5.55,2.4; stroke-dashoffset: 0; stroke: #1f77b4; stroke-width: 1.5"/>
    </g>
    <g id="text_14">
     <!-- log -->
     <g transform="translate(151.55 57.436563) scale(0.1 -0.1)">
      <defs>
       <path id="DejaVuSans-67" d="M 2906 1791 
Q 2906 2416 2648 2759 
Q 2391 3103 1925 3103 
Q 1463 3103 1205 2759 
Q 947 2416 947 1791 
Q 947 1169 1205 825 
Q 1463 481 1925 481 
Q 2391 481 2648 825 
Q 2906 1169 2906 1791 
z
M 3481 434 
Q 3481 -459 3084 -895 
Q 2688 -1331 1869 -1331 
Q 1566 -1331 1297 -1286 
Q 1028 -1241 775 -1147 
L 775 -588 
Q 1028 -725 1275 -790 
Q 1522 -856 1778 -856 
Q 2344 -856 2625 -561 
Q 2906 -266 2906 331 
L 2906 616 
Q 2728 306 2450 153 
Q 2172 0 1784 0 
Q 1141 0 747 490 
Q 353 981 353 1791 
Q 353 2603 747 3093 
Q 1141 3584 1784 3584 
Q 2172 3584 2450 3431 
Q 2728 3278 2906 2969 
L 2906 3500 
L 3481 3500 
L 3481 434 
z
" transform="scale(0.015625)"/>
      </defs>
      <use xlink:href="#DejaVuSans-6c"/>
      <use xlink:href="#DejaVuSans-6f" transform="translate(27.783203 0)"/>
      <use xlink:href="#DejaVuSans-67" transform="translate(88.964844 0)"/>
     </g>
    </g>
    <g id="line2d_56">
     <path d="M 123.55 68.614688 
L 133.55 68.614688 
L 143.55 68.614688 
" style="fill: none; stroke: #ff0000; stroke-width: 1.5; stroke-linecap: square"/>
    </g>
    <g id="text_15">
     <!-- linear -->
     <g transform="translate(151.55 72.114688) scale(0.1 -0.1)">
      <defs>
       <path id="DejaVuSans-61" d="M 2194 1759 
Q 1497 1759 1228 1600 
Q 959 1441 959 1056 
Q 959 750 1161 570 
Q 1363 391 1709 391 
Q 2188 391 2477 730 
Q 2766 1069 2766 1631 
L 2766 1759 
L 2194 1759 
z
M 3341 1997 
L 3341 0 
L 2766 0 
L 2766 531 
Q 2569 213 2275 61 
Q 1981 -91 1556 -91 
Q 1019 -91 701 211 
Q 384 513 384 1019 
Q 384 1609 779 1909 
Q 1175 2209 1959 2209 
L 2766 2209 
L 2766 2266 
Q 2766 2663 2505 2880 
Q 2244 3097 1772 3097 
Q 1472 3097 1187 3025 
Q 903 2953 641 2809 
L 641 3341 
Q 956 3463 1253 3523 
Q 1550 3584 1831 3584 
Q 2591 3584 2966 3190 
Q 3341 2797 3341 1997 
z
" transform="scale(0.015625)"/>
       <path id="DejaVuSans-72" d="M 2631 2963 
Q 2534 3019 2420 3045 
Q 2306 3072 2169 3072 
Q 1681 3072 1420 2755 
Q 1159 2438 1159 1844 
L 1159 0 
L 581 0 
L 581 3500 
L 1159 3500 
L 1159 2956 
Q 1341 3275 1631 3429 
Q 1922 3584 2338 3584 
Q 2397 3584 2469 3576 
Q 2541 3569 2628 3553 
L 2631 2963 
z
" transform="scale(0.015625)"/>
      </defs>
      <use xlink:href="#DejaVuSans-6c"/>
      <use xlink:href="#DejaVuSans-69" transform="translate(27.783203 0)"/>
      <use xlink:href="#DejaVuSans-6e" transform="translate(55.566406 0)"/>
      <use xlink:href="#DejaVuSans-65" transform="translate(118.945312 0)"/>
      <use xlink:href="#DejaVuSans-61" transform="translate(180.46875 0)"/>
      <use xlink:href="#DejaVuSans-72" transform="translate(241.748047 0)"/>
     </g>
    </g>
    <g id="patch_8">
     <path d="M 123.55 86.792813 
L 143.55 86.792813 
L 143.55 79.792813 
L 123.55 79.792813 
z
" style="fill: #ffebcd; stroke: #ffebcd; stroke-linejoin: miter"/>
    </g>
    <g id="text_16">
     <!-- Overflow -->
     <g transform="translate(151.55 86.792813) scale(0.1 -0.1)">
      <defs>
       <path id="DejaVuSans-4f" d="M 2522 4238 
Q 1834 4238 1429 3725 
Q 1025 3213 1025 2328 
Q 1025 1447 1429 934 
Q 1834 422 2522 422 
Q 3209 422 3611 934 
Q 4013 1447 4013 2328 
Q 4013 3213 3611 3725 
Q 3209 4238 2522 4238 
z
M 2522 4750 
Q 3503 4750 4090 4092 
Q 4678 3434 4678 2328 
Q 4678 1225 4090 567 
Q 3503 -91 2522 -91 
Q 1538 -91 948 565 
Q 359 1222 359 2328 
Q 359 3434 948 4092 
Q 1538 4750 2522 4750 
z
" transform="scale(0.015625)"/>
       <path id="DejaVuSans-76" d="M 191 3500 
L 800 3500 
L 1894 563 
L 2988 3500 
L 3597 3500 
L 2284 0 
L 1503 0 
L 191 3500 
z
" transform="scale(0.015625)"/>
       <path id="DejaVuSans-66" d="M 2375 4863 
L 2375 4384 
L 1825 4384 
Q 1516 4384 1395 4259 
Q 1275 4134 1275 3809 
L 1275 3500 
L 2222 3500 
L 2222 3053 
L 1275 3053 
L 1275 0 
L 697 0 
L 697 3053 
L 147 3053 
L 147 3500 
L 697 3500 
L 697 3744 
Q 697 4328 969 4595 
Q 1241 4863 1831 4863 
L 2375 4863 
z
" transform="scale(0.015625)"/>
       <path id="DejaVuSans-77" d="M 269 3500 
L 844 3500 
L 1563 769 
L 2278 3500 
L 2956 3500 
L 3675 769 
L 4391 3500 
L 4966 3500 
L 4050 0 
L 3372 0 
L 2619 2869 
L 1863 0 
L 1184 0 
L 269 3500 
z
" transform="scale(0.015625)"/>
      </defs>
      <use xlink:href="#DejaVuSans-4f"/>
      <use xlink:href="#DejaVuSans-76" transform="translate(78.710938 0)"/>
      <use xlink:href="#DejaVuSans-65" transform="translate(137.890625 0)"/>
      <use xlink:href="#DejaVuSans-72" transform="translate(199.414062 0)"/>
      <use xlink:href="#DejaVuSans-66" transform="translate(240.527344 0)"/>
      <use xlink:href="#DejaVuSans-6c" transform="translate(275.732422 0)"/>
      <use xlink:href="#DejaVuSans-6f" transform="translate(303.515625 0)"/>
      <use xlink:href="#DejaVuSans-77" transform="translate(364.697266 0)"/>
     </g>
    </g>
   </g>
  </g>
 </g>
 <defs>
  <clipPath id="p5b5a1f5ced">
   <rect x="65.765" y="26.16" width="139.435" height="147.88"/>
  </clipPath>
 </defs>
</svg>
