<?xml version="1.0" encoding="utf-8" standalone="no"?>
<!DOCTYPE svg PUBLIC "-//W3C//DTD SVG 1.1//EN"
  "http://www.w3.org/Graphics/SVG/1.1/DTD/svg11.dtd">
<svg xmlns:xlink="http://www.w3.org/1999/xlink" width="216pt" height="216pt" viewBox="0 0 216 216" xmlns="http://www.w3.org/2000/svg" version="1.1">
 <metadata>
  <rdf:RDF xmlns:dc="http://purl.org/dc/elements/1.1/" xmlns:cc="http://creativecommons.org/ns#" xmlns:rdf="http://www.w3.org/1999/02/22-rdf-syntax-ns#">
   <cc:Work>
    <dc:type rdf:resource="http://purl.org/dc/dcmitype/StillImage"/>
    <dc:date>2025-09-23T20:23:58.239159</dc:date>
    <dc:format>image/svg+xml</dc:format>
    <dc:creator>
     <cc:Agent>
      <dc:title>Matplotlib v3.10.1, https://matplotlib.org/</dc:title>
     </cc:Agent>
    </dc:creator>
   </cc:Work>
  </rdf:RDF>
 </metadata>
 <defs>
  <style type="text/css">*{stroke-linejoin: round; stroke-linecap: butt}</style>
 </defs>
 <g id="figure_1">
  <g id="patch_1">
   <path d="M 0 216 
L 216 216 
L 216 0 
L 0 0 
z
" style="fill: #ffffff"/>
  </g>
  <g id="axes_1">
   <g id="patch_2">
    <path d="M 47.855 174.04 
L 201.649091 174.04 
L 201.649091 26.16 
L 47.855 26.16 
z
" style="fill: #ffffff"/>
   </g>
   <g id="matplotlib.axis_1">
    <g id="xtick_1">
     <g id="line2d_1">
      <defs>
       <path id="m7cc4784ae5" d="M 0 0 
L 0 3.5 
" style="stroke: #000000; stroke-width: 0.8"/>
      </defs>
      <g>
       <use xlink:href="#m7cc4784ae5" x="54.84564" y="174.04" style="stroke: #000000; stroke-width: 0.8"/>
      </g>
     </g>
     <g id="text_1">
      <!-- 0.00 -->
      <g transform="translate(43.712828 188.638438) scale(0.1 -0.1)">
       <defs>
        <path id="DejaVuSans-30" d="M 2034 4250 
Q 1547 4250 1301 3770 
Q 1056 3291 1056 2328 
Q 1056 1369 1301 889 
Q 1547 409 2034 409 
Q 2525 409 2770 889 
Q 3016 1369 3016 2328 
Q 3016 3291 2770 3770 
Q 2525 4250 2034 4250 
z
M 2034 4750 
Q 2819 4750 3233 4129 
Q 3647 3509 3647 2328 
Q 3647 1150 3233 529 
Q 2819 -91 2034 -91 
Q 1250 -91 836 529 
Q 422 1150 422 2328 
Q 422 3509 836 4129 
Q 1250 4750 2034 4750 
z
" transform="scale(0.015625)"/>
        <path id="DejaVuSans-2e" d="M 684 794 
L 1344 794 
L 1344 0 
L 684 0 
L 684 794 
z
" transform="scale(0.015625)"/>
       </defs>
       <use xlink:href="#DejaVuSans-30"/>
       <use xlink:href="#DejaVuSans-2e" transform="translate(63.623047 0)"/>
       <use xlink:href="#DejaVuSans-30" transform="translate(95.410156 0)"/>
       <use xlink:href="#DejaVuSans-30" transform="translate(159.033203 0)"/>
      </g>
     </g>
    </g>
    <g id="xtick_2">
     <g id="line2d_2">
      <g>
       <use xlink:href="#m7cc4784ae5" x="89.798843" y="174.04" style="stroke: #000000; stroke-width: 0.8"/>
      </g>
     </g>
     <g id="text_2">
      <!-- 0.25 -->
      <g transform="translate(78.66603 188.638438) scale(0.1 -0.1)">
       <defs>
        <path id="DejaVuSans-32" d="M 1228 531 
L 3431 531 
L 3431 0 
L 469 0 
L 469 531 
Q 828 903 1448 1529 
Q 2069 2156 2228 2338 
Q 2531 2678 2651 2914 
Q 2772 3150 2772 3378 
Q 2772 3750 2511 3984 
Q 2250 4219 1831 4219 
Q 1534 4219 1204 4116 
Q 875 4013 500 3803 
L 500 4441 
Q 881 4594 1212 4672 
Q 1544 4750 1819 4750 
Q 2544 4750 2975 4387 
Q 3406 4025 3406 3419 
Q 3406 3131 3298 2873 
Q 3191 2616 2906 2266 
Q 2828 2175 2409 1742 
Q 1991 1309 1228 531 
z
" transform="scale(0.015625)"/>
        <path id="DejaVuSans-35" d="M 691 4666 
L 3169 4666 
L 3169 4134 
L 1269 4134 
L 1269 2991 
Q 1406 3038 1543 3061 
Q 1681 3084 1819 3084 
Q 2600 3084 3056 2656 
Q 3513 2228 3513 1497 
Q 3513 744 3044 326 
Q 2575 -91 1722 -91 
Q 1428 -91 1123 -41 
Q 819 9 494 109 
L 494 744 
Q 775 591 1075 516 
Q 1375 441 1709 441 
Q 2250 441 2565 725 
Q 2881 1009 2881 1497 
Q 2881 1984 2565 2268 
Q 2250 2553 1709 2553 
Q 1456 2553 1204 2497 
Q 953 2441 691 2322 
L 691 4666 
z
" transform="scale(0.015625)"/>
       </defs>
       <use xlink:href="#DejaVuSans-30"/>
       <use xlink:href="#DejaVuSans-2e" transform="translate(63.623047 0)"/>
       <use xlink:href="#DejaVuSans-32" transform="translate(95.410156 0)"/>
       <use xlink:href="#DejaVuSans-35" transform="translate(159.033203 0)"/>
      </g>
     </g>
    </g>
    <g id="xtick_3">
     <g id="line2d_3">
      <g>
       <use xlink:href="#m7cc4784ae5" x="124.752045" y="174.04" style="stroke: #000000; stroke-width: 0.8"/>
      </g>
     </g>
     <g id="text_3">
      <!-- 0.50 -->
      <g transform="translate(113.619233 188.638438) scale(0.1 -0.1)">
       <use xlink:href="#DejaVuSans-30"/>
       <use xlink:href="#DejaVuSans-2e" transform="translate(63.623047 0)"/>
       <use xlink:href="#DejaVuSans-35" transform="translate(95.410156 0)"/>
       <use xlink:href="#DejaVuSans-30" transform="translate(159.033203 0)"/>
      </g>
     </g>
    </g>
    <g id="xtick_4">
     <g id="line2d_4">
      <g>
       <use xlink:href="#m7cc4784ae5" x="159.705248" y="174.04" style="stroke: #000000; stroke-width: 0.8"/>
      </g>
     </g>
     <g id="text_4">
      <!-- 0.75 -->
      <g transform="translate(148.572435 188.638438) scale(0.1 -0.1)">
       <defs>
        <path id="DejaVuSans-37" d="M 525 4666 
L 3525 4666 
L 3525 4397 
L 1831 0 
L 1172 0 
L 2766 4134 
L 525 4134 
L 525 4666 
z
" transform="scale(0.015625)"/>
       </defs>
       <use xlink:href="#DejaVuSans-30"/>
       <use xlink:href="#DejaVuSans-2e" transform="translate(63.623047 0)"/>
       <use xlink:href="#DejaVuSans-37" transform="translate(95.410156 0)"/>
       <use xlink:href="#DejaVuSans-35" transform="translate(159.033203 0)"/>
      </g>
     </g>
    </g>
    <g id="xtick_5">
     <g id="line2d_5">
      <g>
       <use xlink:href="#m7cc4784ae5" x="194.65845" y="174.04" style="stroke: #000000; stroke-width: 0.8"/>
      </g>
     </g>
     <g id="text_5">
      <!-- 1.00 -->
      <g transform="translate(183.525638 188.638438) scale(0.1 -0.1)">
       <defs>
        <path id="DejaVuSans-31" d="M 794 531 
L 1825 531 
L 1825 4091 
L 703 3866 
L 703 4441 
L 1819 4666 
L 2450 4666 
L 2450 531 
L 3481 531 
L 3481 0 
L 794 0 
L 794 531 
z
" transform="scale(0.015625)"/>
       </defs>
       <use xlink:href="#DejaVuSans-31"/>
       <use xlink:href="#DejaVuSans-2e" transform="translate(63.623047 0)"/>
       <use xlink:href="#DejaVuSans-30" transform="translate(95.410156 0)"/>
       <use xlink:href="#DejaVuSans-30" transform="translate(159.033203 0)"/>
      </g>
     </g>
    </g>
    <g id="text_6">
     <!-- FPR -->
     <g transform="translate(115.387202 202.316563) scale(0.1 -0.1)">
      <defs>
       <path id="DejaVuSans-46" d="M 628 4666 
L 3309 4666 
L 3309 4134 
L 1259 4134 
L 1259 2759 
L 3109 2759 
L 3109 2228 
L 1259 2228 
L 1259 0 
L 628 0 
L 628 4666 
z
" transform="scale(0.015625)"/>
       <path id="DejaVuSans-50" d="M 1259 4147 
L 1259 2394 
L 2053 2394 
Q 2494 2394 2734 2622 
Q 2975 2850 2975 3272 
Q 2975 3691 2734 3919 
Q 2494 4147 2053 4147 
L 1259 4147 
z
M 628 4666 
L 2053 4666 
Q 2838 4666 3239 4311 
Q 3641 3956 3641 3272 
Q 3641 2581 3239 2228 
Q 2838 1875 2053 1875 
L 1259 1875 
L 1259 0 
L 628 0 
L 628 4666 
z
" transform="scale(0.015625)"/>
       <path id="DejaVuSans-52" d="M 2841 2188 
Q 3044 2119 3236 1894 
Q 3428 1669 3622 1275 
L 4263 0 
L 3584 0 
L 2988 1197 
Q 2756 1666 2539 1819 
Q 2322 1972 1947 1972 
L 1259 1972 
L 1259 0 
L 628 0 
L 628 4666 
L 2053 4666 
Q 2853 4666 3247 4331 
Q 3641 3997 3641 3322 
Q 3641 2881 3436 2590 
Q 3231 2300 2841 2188 
z
M 1259 4147 
L 1259 2491 
L 2053 2491 
Q 2509 2491 2742 2702 
Q 2975 2913 2975 3322 
Q 2975 3731 2742 3939 
Q 2509 4147 2053 4147 
L 1259 4147 
z
" transform="scale(0.015625)"/>
      </defs>
      <use xlink:href="#DejaVuSans-46"/>
      <use xlink:href="#DejaVuSans-50" transform="translate(57.519531 0)"/>
      <use xlink:href="#DejaVuSans-52" transform="translate(117.822266 0)"/>
     </g>
    </g>
   </g>
   <g id="matplotlib.axis_2">
    <g id="ytick_1">
     <g id="line2d_6">
      <defs>
       <path id="m3805c41c01" d="M 0 0 
L -3.5 0 
" style="stroke: #000000; stroke-width: 0.8"/>
      </defs>
      <g>
       <use xlink:href="#m3805c41c01" x="47.855" y="167.318182" style="stroke: #000000; stroke-width: 0.8"/>
      </g>
     </g>
     <g id="text_7">
      <!-- 0.0 -->
      <g transform="translate(24.951875 171.117401) scale(0.1 -0.1)">
       <use xlink:href="#DejaVuSans-30"/>
       <use xlink:href="#DejaVuSans-2e" transform="translate(63.623047 0)"/>
       <use xlink:href="#DejaVuSans-30" transform="translate(95.410156 0)"/>
      </g>
     </g>
    </g>
    <g id="ytick_2">
     <g id="line2d_7">
      <g>
       <use xlink:href="#m3805c41c01" x="47.855" y="140.430909" style="stroke: #000000; stroke-width: 0.8"/>
      </g>
     </g>
     <g id="text_8">
      <!-- 0.2 -->
      <g transform="translate(24.951875 144.230128) scale(0.1 -0.1)">
       <use xlink:href="#DejaVuSans-30"/>
       <use xlink:href="#DejaVuSans-2e" transform="translate(63.623047 0)"/>
       <use xlink:href="#DejaVuSans-32" transform="translate(95.410156 0)"/>
      </g>
     </g>
    </g>
    <g id="ytick_3">
     <g id="line2d_8">
      <g>
       <use xlink:href="#m3805c41c01" x="47.855" y="113.543636" style="stroke: #000000; stroke-width: 0.8"/>
      </g>
     </g>
     <g id="text_9">
      <!-- 0.4 -->
      <g transform="translate(24.951875 117.342855) scale(0.1 -0.1)">
       <defs>
        <path id="DejaVuSans-34" d="M 2419 4116 
L 825 1625 
L 2419 1625 
L 2419 4116 
z
M 2253 4666 
L 3047 4666 
L 3047 1625 
L 3713 1625 
L 3713 1100 
L 3047 1100 
L 3047 0 
L 2419 0 
L 2419 1100 
L 313 1100 
L 313 1709 
L 2253 4666 
z
" transform="scale(0.015625)"/>
       </defs>
       <use xlink:href="#DejaVuSans-30"/>
       <use xlink:href="#DejaVuSans-2e" transform="translate(63.623047 0)"/>
       <use xlink:href="#DejaVuSans-34" transform="translate(95.410156 0)"/>
      </g>
     </g>
    </g>
    <g id="ytick_4">
     <g id="line2d_9">
      <g>
       <use xlink:href="#m3805c41c01" x="47.855" y="86.656364" style="stroke: #000000; stroke-width: 0.8"/>
      </g>
     </g>
     <g id="text_10">
      <!-- 0.6 -->
      <g transform="translate(24.951875 90.455582) scale(0.1 -0.1)">
       <defs>
        <path id="DejaVuSans-36" d="M 2113 2584 
Q 1688 2584 1439 2293 
Q 1191 2003 1191 1497 
Q 1191 994 1439 701 
Q 1688 409 2113 409 
Q 2538 409 2786 701 
Q 3034 994 3034 1497 
Q 3034 2003 2786 2293 
Q 2538 2584 2113 2584 
z
M 3366 4563 
L 3366 3988 
Q 3128 4100 2886 4159 
Q 2644 4219 2406 4219 
Q 1781 4219 1451 3797 
Q 1122 3375 1075 2522 
Q 1259 2794 1537 2939 
Q 1816 3084 2150 3084 
Q 2853 3084 3261 2657 
Q 3669 2231 3669 1497 
Q 3669 778 3244 343 
Q 2819 -91 2113 -91 
Q 1303 -91 875 529 
Q 447 1150 447 2328 
Q 447 3434 972 4092 
Q 1497 4750 2381 4750 
Q 2619 4750 2861 4703 
Q 3103 4656 3366 4563 
z
" transform="scale(0.015625)"/>
       </defs>
       <use xlink:href="#DejaVuSans-30"/>
       <use xlink:href="#DejaVuSans-2e" transform="translate(63.623047 0)"/>
       <use xlink:href="#DejaVuSans-36" transform="translate(95.410156 0)"/>
      </g>
     </g>
    </g>
    <g id="ytick_5">
     <g id="line2d_10">
      <g>
       <use xlink:href="#m3805c41c01" x="47.855" y="59.769091" style="stroke: #000000; stroke-width: 0.8"/>
      </g>
     </g>
     <g id="text_11">
      <!-- 0.8 -->
      <g transform="translate(24.951875 63.56831) scale(0.1 -0.1)">
       <defs>
        <path id="DejaVuSans-38" d="M 2034 2216 
Q 1584 2216 1326 1975 
Q 1069 1734 1069 1313 
Q 1069 891 1326 650 
Q 1584 409 2034 409 
Q 2484 409 2743 651 
Q 3003 894 3003 1313 
Q 3003 1734 2745 1975 
Q 2488 2216 2034 2216 
z
M 1403 2484 
Q 997 2584 770 2862 
Q 544 3141 544 3541 
Q 544 4100 942 4425 
Q 1341 4750 2034 4750 
Q 2731 4750 3128 4425 
Q 3525 4100 3525 3541 
Q 3525 3141 3298 2862 
Q 3072 2584 2669 2484 
Q 3125 2378 3379 2068 
Q 3634 1759 3634 1313 
Q 3634 634 3220 271 
Q 2806 -91 2034 -91 
Q 1263 -91 848 271 
Q 434 634 434 1313 
Q 434 1759 690 2068 
Q 947 2378 1403 2484 
z
M 1172 3481 
Q 1172 3119 1398 2916 
Q 1625 2713 2034 2713 
Q 2441 2713 2670 2916 
Q 2900 3119 2900 3481 
Q 2900 3844 2670 4047 
Q 2441 4250 2034 4250 
Q 1625 4250 1398 4047 
Q 1172 3844 1172 3481 
z
" transform="scale(0.015625)"/>
       </defs>
       <use xlink:href="#DejaVuSans-30"/>
       <use xlink:href="#DejaVuSans-2e" transform="translate(63.623047 0)"/>
       <use xlink:href="#DejaVuSans-38" transform="translate(95.410156 0)"/>
      </g>
     </g>
    </g>
    <g id="ytick_6">
     <g id="line2d_11">
      <g>
       <use xlink:href="#m3805c41c01" x="47.855" y="32.881818" style="stroke: #000000; stroke-width: 0.8"/>
      </g>
     </g>
     <g id="text_12">
      <!-- 1.0 -->
      <g transform="translate(24.951875 36.681037) scale(0.1 -0.1)">
       <use xlink:href="#DejaVuSans-31"/>
       <use xlink:href="#DejaVuSans-2e" transform="translate(63.623047 0)"/>
       <use xlink:href="#DejaVuSans-30" transform="translate(95.410156 0)"/>
      </g>
     </g>
    </g>
    <g id="text_13">
     <!-- TPR -->
     <g transform="translate(18.872188 109.642969) rotate(-90) scale(0.1 -0.1)">
      <defs>
       <path id="DejaVuSans-54" d="M -19 4666 
L 3928 4666 
L 3928 4134 
L 2272 4134 
L 2272 0 
L 1638 0 
L 1638 4134 
L -19 4134 
L -19 4666 
z
" transform="scale(0.015625)"/>
      </defs>
      <use xlink:href="#DejaVuSans-54"/>
      <use xlink:href="#DejaVuSans-50" transform="translate(61.083984 0)"/>
      <use xlink:href="#DejaVuSans-52" transform="translate(121.386719 0)"/>
     </g>
    </g>
   </g>
   <g id="line2d_12">
    <path d="M 54.84564 167.318182 
L 54.947446 119.311318 
L 54.958758 119.311318 
L 55.066219 115.79653 
L 55.077531 115.762239 
L 55.184992 112.110289 
L 55.196304 112.058853 
L 55.303765 109.212731 
L 55.309421 109.212731 
L 55.416882 106.349465 
L 55.422538 106.349465 
L 55.529999 103.880541 
L 55.541311 103.794814 
L 55.541311 103.777669 
L 55.59787 103.2976 
L 55.699675 101.051565 
L 55.727954 100.965838 
L 55.835416 99.611359 
L 55.852383 99.542777 
L 55.954189 98.205443 
L 55.971156 98.136862 
L 56.078618 96.079425 
L 56.095585 96.06228 
L 56.203046 95.136433 
L 56.22567 95.050707 
L 56.327475 93.524774 
L 56.355755 93.439048 
L 56.463216 92.461765 
L 56.480183 92.393184 
L 56.587645 91.381611 
L 56.610268 91.278739 
L 56.678138 90.867251 
L 56.751665 90.815815 
L 56.859126 89.889969 
L 56.938308 89.324174 
L 57.045769 87.798241 
L 57.079704 87.72966 
L 57.18151 86.683796 
L 57.221101 86.580924 
L 57.31725 85.50077 
L 57.34553 85.50077 
L 57.452991 84.609214 
L 57.503894 84.523487 
L 57.594387 84.077709 
L 57.605699 84.077709 
L 57.628323 84.043419 
L 57.735784 83.048991 
L 57.758407 83.031845 
L 57.758407 82.98041 
L 57.865869 81.985982 
L 57.87718 81.88311 
L 57.978986 81.008699 
L 58.001609 80.905827 
L 58.109071 79.68851 
L 58.120382 79.619929 
L 58.222188 79.10557 
L 58.267435 79.002698 
L 58.374896 78.505484 
L 58.397519 78.488339 
L 58.504981 77.75109 
L 58.60113 77.151005 
L 58.708592 76.430902 
L 58.742527 76.32803 
L 58.838676 75.985124 
L 58.8613 75.985124 
L 58.946138 75.453619 
L 58.963105 75.453619 
L 58.985729 75.453619 
L 59.081878 74.733516 
L 59.149748 74.64779 
L 59.240242 74.219157 
L 59.268521 74.150576 
L 59.375983 73.533345 
L 59.432541 73.464763 
L 59.540003 72.693224 
L 59.568282 72.607498 
L 59.675743 72.041703 
L 59.704023 71.955976 
L 59.805828 71.407326 
L 59.828451 71.304454 
L 59.935913 71.012984 
L 59.958536 70.910112 
L 60.060342 70.51577 
L 60.082965 70.447189 
L 60.18477 69.761377 
L 60.246985 69.658505 
L 60.354446 69.144146 
L 60.416661 69.058419 
L 60.51281 68.784094 
L 60.620272 68.681222 
L 60.722077 68.218299 
L 60.756012 68.132572 
L 60.84085 67.686794 
L 60.863473 67.686794 
L 61.983333 64.600639 
L 62.022924 64.497767 
L 62.12473 64.206297 
L 62.209568 64.103425 
L 62.311373 63.931972 
L 62.373588 63.8291 
L 62.475393 63.486194 
L 62.481049 63.486194 
L 63.781896 59.868534 
L 63.889357 59.765662 
L 63.968539 59.559918 
L 64.064689 59.474192 
L 64.17215 59.11414 
L 64.211741 59.062704 
L 64.307891 58.891251 
L 64.392729 58.788379 
L 64.50019 58.394037 
L 64.556749 58.308311 
L 64.658554 57.828242 
L 64.703801 57.72537 
L 64.811262 57.416755 
L 64.856509 57.313883 
L 64.958315 56.953831 
L 65.06012 56.850959 
L 65.167581 56.62807 
L 65.22414 56.542344 
L 65.331601 56.3366 
L 65.55218 55.976549 
L 65.62005 55.890822 
L 65.710544 55.650788 
L 65.823661 55.547916 
L 65.91981 55.325027 
L 65.993337 55.222155 
L 66.100798 54.862104 
L 66.174324 54.793522 
L 66.27613 54.587779 
L 66.332688 54.484907 
L 66.440149 54.210582 
L 66.50802 54.10771 
L 66.609825 53.953402 
L 66.67204 53.867676 
L 66.779501 53.696223 
L 66.864339 53.593351 
L 66.949177 53.421898 
L 66.966144 53.421898 
L 67.209346 53.01041 
L 67.254593 52.907538 
L 67.356398 52.547487 
L 67.424269 52.444615 
L 67.497795 52.238871 
L 67.605256 52.136 
L 67.69575 52.033128 
L 67.757964 51.930256 
L 67.854114 51.793093 
L 68.001166 51.690222 
L 68.097316 51.364461 
L 68.170842 51.278734 
L 68.261336 51.175862 
L 68.397076 51.07299 
L 68.453635 50.935828 
L 68.685525 50.832956 
L 68.78733 50.610067 
L 68.88348 50.507195 
L 68.973974 50.387178 
L 69.0475 50.284306 
L 69.149305 50.009981 
L 69.154961 50.009981 
L 69.200208 49.924255 
L 69.296358 49.701366 
L 69.386851 49.615639 
L 69.460378 49.35846 
L 69.567839 49.255588 
L 69.669644 48.998408 
L 69.811041 48.912682 
L 69.90719 48.655502 
L 70.059899 48.586921 
L 70.059899 48.55263 
L 70.257854 48.278305 
L 70.450153 48.175433 
L 70.557614 48.038271 
L 70.676387 47.935399 
L 70.783848 47.798237 
L 70.89131 47.695365 
L 70.998771 47.506766 
L 71.089265 47.403894 
L 71.196726 47.266732 
L 71.309843 47.16386 
L 71.405993 47.12957 
L 71.51911 47.026698 
L 71.615259 46.889535 
L 71.717065 46.786663 
L 71.807559 46.683791 
L 71.881085 46.598065 
L 71.971579 46.495193 
L 72.135598 46.392321 
L 72.231748 46.238013 
L 72.3788 46.135142 
L 72.47495 45.980834 
L 72.565444 45.877962 
L 72.644626 45.77509 
L 72.723808 45.672218 
L 72.786022 45.620782 
L 72.972665 45.517911 
L 73.074471 45.415039 
L 73.187588 45.312167 
L 73.374231 45.072132 
L 73.493004 44.969261 
L 73.577842 44.849243 
L 73.73055 44.763517 
L 73.8267 44.609209 
L 73.956785 44.506337 
L 74.047278 44.403465 
L 74.166051 44.300594 
L 74.273513 44.163431 
L 74.4545 44.060559 
L 74.556306 43.974833 
L 74.793852 43.871961 
L 74.901313 43.717653 
L 75.076645 43.614781 
L 75.161482 43.529055 
L 75.263288 43.426183 
L 75.319846 43.374747 
L 75.489522 43.271875 
L 75.568704 43.203294 
L 75.817562 43.100422 
L 75.879776 43.031841 
L 76.03814 42.928969 
L 76.122978 42.774661 
L 76.360524 42.671789 
L 76.467986 42.586063 
L 76.773402 42.483191 
L 76.829961 42.41461 
L 77.061851 42.311738 
L 77.158 42.208866 
L 77.3503 42.105994 
L 77.423826 42.037413 
L 77.604813 41.934541 
L 77.672683 41.86596 
L 78.04597 41.763088 
L 78.147775 41.660216 
L 78.294828 41.57449 
L 78.294828 41.540199 
L 78.532374 41.437327 
L 78.634179 41.385891 
L 78.781232 41.283019 
L 78.832134 41.231583 
L 79.064024 41.128712 
L 79.080992 41.094421 
L 79.403376 40.991549 
L 79.510837 40.940113 
L 79.640922 40.837241 
L 79.742727 40.785805 
L 79.906747 40.682934 
L 80.070767 40.614352 
L 80.297002 40.51148 
L 80.404463 40.322882 
L 80.579794 40.22001 
L 80.619385 40.134284 
L 80.800373 40.031412 
L 80.902178 39.92854 
L 81.139724 39.825668 
L 81.247186 39.705651 
L 81.416861 39.602779 
L 81.462108 39.534198 
L 81.756213 39.448471 
L 81.852362 39.311309 
L 82.140811 39.208437 
L 82.236961 39.105565 
L 82.576312 39.002693 
L 82.649838 38.934112 
L 82.82517 38.848386 
L 82.932631 38.711223 
L 83.062716 38.625497 
L 83.062716 38.608351 
L 83.181489 38.522625 
L 83.351165 38.419753 
L 83.419035 38.334026 
L 83.650925 38.231154 
L 83.752731 38.145428 
L 84.063803 38.042556 
L 84.159953 37.99112 
L 84.27307 37.905394 
L 84.357908 37.819667 
L 84.742506 37.716795 
L 84.776441 37.648214 
L 84.827344 37.648214 
L 84.985708 37.562487 
L 85.036611 37.493906 
L 85.658755 37.391034 
L 85.732281 37.322453 
L 86.269588 37.219581 
L 86.269588 37.202436 
L 86.81255 37.099564 
L 86.81255 37.082419 
L 87.185837 36.979547 
L 87.281986 36.945256 
L 87.587402 36.842384 
L 87.666585 36.790949 
L 88.215203 36.688077 
L 88.283073 36.60235 
L 88.984399 36.499478 
L 89.035302 36.465188 
L 89.074893 36.465188 
L 89.827122 36.362316 
L 89.838434 36.31088 
L 90.437955 36.208008 
L 90.545416 36.173717 
L 91.65962 36.070846 
L 91.65962 36.0537 
L 91.682244 36.0537 
L 92.213894 35.950828 
L 92.321356 35.882247 
L 92.717266 35.779375 
L 92.717266 35.76223 
L 93.113176 35.659358 
L 93.135799 35.590777 
L 93.893684 35.487905 
L 93.910652 35.453614 
L 94.481893 35.350743 
L 94.561075 35.282161 
L 95.268058 35.17929 
L 95.330272 35.127854 
L 95.935449 35.024982 
L 95.935449 35.007836 
L 95.980696 35.007836 
L 96.495379 34.904965 
L 96.574561 34.870674 
L 97.304167 34.767802 
L 97.304167 34.750657 
L 98.457962 34.647785 
L 98.457962 34.63064 
L 100.041602 34.527768 
L 100.041602 34.510622 
L 100.952195 34.407751 
L 101.037033 34.37346 
L 102.886498 34.270588 
L 102.920434 34.219152 
L 103.864962 34.11628 
L 103.864962 34.099135 
L 107.122736 33.996263 
L 107.122736 33.979118 
L 107.801439 33.876246 
L 107.863653 33.82481 
L 109.12491 33.721938 
L 109.12491 33.687648 
L 112.009397 33.584776 
L 112.009397 33.567631 
L 113.74009 33.464759 
L 113.74009 33.447613 
L 117.450333 33.344742 
L 117.461644 33.310451 
L 120.43097 33.207579 
L 120.43097 33.190434 
L 129.599116 33.087562 
L 129.599116 33.070417 
L 133.71658 32.967545 
L 133.71658 32.950399 
L 194.65845 32.881818 
L 194.65845 32.881818 
" clip-path="url(#p7e6c23748a)" style="fill: none; stroke: #1f77b4; stroke-width: 1.5; stroke-linecap: square"/>
   </g>
   <g id="line2d_13">
    <path d="M 194.65845 32.881818 
L 138.262514 33.073671 
L 125.102178 33.415454 
L 116.522594 33.779273 
L 111.183005 34.164674 
L 107.328093 34.571202 
L 103.808027 34.998403 
L 100.601718 35.44582 
L 97.695597 35.913 
L 95.076099 36.399488 
L 92.729656 36.904828 
L 90.642701 37.428567 
L 88.801669 37.970248 
L 87.192991 38.529418 
L 85.803102 39.105622 
L 84.618434 39.698404 
L 83.625421 40.30731 
L 82.810496 40.931885 
L 82.085694 41.571674 
L 81.371107 42.226222 
L 80.666709 42.895075 
L 79.97247 43.577778 
L 79.288365 44.273876 
L 78.614365 44.982914 
L 77.950442 45.704437 
L 77.29657 46.43799 
L 76.652721 47.183119 
L 76.018867 47.939368 
L 75.39498 48.706284 
L 74.781034 49.483411 
L 74.177 50.270294 
L 73.582852 51.066478 
L 72.998561 51.871509 
L 72.4241 52.684932 
L 71.859442 53.506291 
L 71.304559 54.335133 
L 70.759423 55.171002 
L 70.224007 56.013444 
L 69.698284 56.862003 
L 69.182225 57.716225 
L 68.675804 58.575655 
L 68.178994 59.439838 
L 67.691765 60.31516 
L 67.214091 61.226808 
L 66.745945 62.175767 
L 66.287298 63.160431 
L 65.838124 64.179194 
L 65.398394 65.23045 
L 64.968082 66.312593 
L 64.547159 67.424018 
L 64.135599 68.563119 
L 63.733373 69.728289 
L 63.340455 70.917923 
L 62.956816 72.130415 
L 62.582429 73.36416 
L 62.217267 74.61755 
L 61.861302 75.888981 
L 61.514507 77.176847 
L 61.176853 78.479541 
L 60.848314 79.795458 
L 60.528862 81.122992 
L 60.21847 82.460537 
L 59.917109 83.806487 
L 59.624753 85.159237 
L 59.341374 86.51718 
L 59.066944 87.897369 
L 58.801436 89.323884 
L 58.544822 90.792494 
L 58.297076 92.298723 
L 58.058168 93.838093 
L 57.828072 95.406128 
L 57.606761 96.99835 
L 57.394206 98.610282 
L 57.19038 100.237448 
L 56.995256 101.87537 
L 56.808807 103.519571 
L 56.631004 105.165575 
L 56.46182 106.808903 
L 56.301227 108.44508 
L 56.149199 110.069628 
L 56.005707 111.678069 
L 55.870724 113.265928 
L 55.744223 114.737897 
L 55.626176 115.949149 
L 55.516555 116.949358 
L 55.415333 117.792674 
L 55.322483 118.533243 
L 55.237976 119.225216 
L 55.161786 119.922741 
L 55.093885 120.679965 
L 55.034245 121.551039 
L 54.982838 122.59011 
L 54.939639 123.851327 
L 54.904617 125.388838 
L 54.877748 127.256793 
L 54.859001 129.50934 
L 54.848351 132.200627 
L 54.84564 135.384802 
L 54.84564 139.116016 
L 54.84564 167.318182 
" clip-path="url(#p7e6c23748a)" style="fill: none; stroke: #ff7f0e; stroke-width: 1.5; stroke-linecap: square"/>
   </g>
   <g id="patch_3">
    <path d="M 47.855 174.04 
L 47.855 26.16 
" style="fill: none; stroke: #000000; stroke-width: 0.8; stroke-linejoin: miter; stroke-linecap: square"/>
   </g>
   <g id="patch_4">
    <path d="M 201.649091 174.04 
L 201.649091 26.16 
" style="fill: none; stroke: #000000; stroke-width: 0.8; stroke-linejoin: miter; stroke-linecap: square"/>
   </g>
   <g id="patch_5">
    <path d="M 47.855 174.04 
L 201.649091 174.04 
" style="fill: none; stroke: #000000; stroke-width: 0.8; stroke-linejoin: miter; stroke-linecap: square"/>
   </g>
   <g id="patch_6">
    <path d="M 47.855 26.16 
L 201.649091 26.16 
" style="fill: none; stroke: #000000; stroke-width: 0.8; stroke-linejoin: miter; stroke-linecap: square"/>
   </g>
   <g id="text_14">
    <!-- ROC curve -->
    <g transform="translate(92.952045 20.16) scale(0.12 -0.12)">
     <defs>
      <path id="DejaVuSans-4f" d="M 2522 4238 
Q 1834 4238 1429 3725 
Q 1025 3213 1025 2328 
Q 1025 1447 1429 934 
Q 1834 422 2522 422 
Q 3209 422 3611 934 
Q 4013 1447 4013 2328 
Q 4013 3213 3611 3725 
Q 3209 4238 2522 4238 
z
M 2522 4750 
Q 3503 4750 4090 4092 
Q 4678 3434 4678 2328 
Q 4678 1225 4090 567 
Q 3503 -91 2522 -91 
Q 1538 -91 948 565 
Q 359 1222 359 2328 
Q 359 3434 948 4092 
Q 1538 4750 2522 4750 
z
" transform="scale(0.015625)"/>
      <path id="DejaVuSans-43" d="M 4122 4306 
L 4122 3641 
Q 3803 3938 3442 4084 
Q 3081 4231 2675 4231 
Q 1875 4231 1450 3742 
Q 1025 3253 1025 2328 
Q 1025 1406 1450 917 
Q 1875 428 2675 428 
Q 3081 428 3442 575 
Q 3803 722 4122 1019 
L 4122 359 
Q 3791 134 3420 21 
Q 3050 -91 2638 -91 
Q 1578 -91 968 557 
Q 359 1206 359 2328 
Q 359 3453 968 4101 
Q 1578 4750 2638 4750 
Q 3056 4750 3426 4639 
Q 3797 4528 4122 4306 
z
" transform="scale(0.015625)"/>
      <path id="DejaVuSans-20" transform="scale(0.015625)"/>
      <path id="DejaVuSans-63" d="M 3122 3366 
L 3122 2828 
Q 2878 2963 2633 3030 
Q 2388 3097 2138 3097 
Q 1578 3097 1268 2742 
Q 959 2388 959 1747 
Q 959 1106 1268 751 
Q 1578 397 2138 397 
Q 2388 397 2633 464 
Q 2878 531 3122 666 
L 3122 134 
Q 2881 22 2623 -34 
Q 2366 -91 2075 -91 
Q 1284 -91 818 406 
Q 353 903 353 1747 
Q 353 2603 823 3093 
Q 1294 3584 2113 3584 
Q 2378 3584 2631 3529 
Q 2884 3475 3122 3366 
z
" transform="scale(0.015625)"/>
      <path id="DejaVuSans-75" d="M 544 1381 
L 544 3500 
L 1119 3500 
L 1119 1403 
Q 1119 906 1312 657 
Q 1506 409 1894 409 
Q 2359 409 2629 706 
Q 2900 1003 2900 1516 
L 2900 3500 
L 3475 3500 
L 3475 0 
L 2900 0 
L 2900 538 
Q 2691 219 2414 64 
Q 2138 -91 1772 -91 
Q 1169 -91 856 284 
Q 544 659 544 1381 
z
M 1991 3584 
L 1991 3584 
z
" transform="scale(0.015625)"/>
      <path id="DejaVuSans-72" d="M 2631 2963 
Q 2534 3019 2420 3045 
Q 2306 3072 2169 3072 
Q 1681 3072 1420 2755 
Q 1159 2438 1159 1844 
L 1159 0 
L 581 0 
L 581 3500 
L 1159 3500 
L 1159 2956 
Q 1341 3275 1631 3429 
Q 1922 3584 2338 3584 
Q 2397 3584 2469 3576 
Q 2541 3569 2628 3553 
L 2631 2963 
z
" transform="scale(0.015625)"/>
      <path id="DejaVuSans-76" d="M 191 3500 
L 800 3500 
L 1894 563 
L 2988 3500 
L 3597 3500 
L 2284 0 
L 1503 0 
L 191 3500 
z
" transform="scale(0.015625)"/>
      <path id="DejaVuSans-65" d="M 3597 1894 
L 3597 1613 
L 953 1613 
Q 991 1019 1311 708 
Q 1631 397 2203 397 
Q 2534 397 2845 478 
Q 3156 559 3463 722 
L 3463 178 
Q 3153 47 2828 -22 
Q 2503 -91 2169 -91 
Q 1331 -91 842 396 
Q 353 884 353 1716 
Q 353 2575 817 3079 
Q 1281 3584 2069 3584 
Q 2775 3584 3186 3129 
Q 3597 2675 3597 1894 
z
M 3022 2063 
Q 3016 2534 2758 2815 
Q 2500 3097 2075 3097 
Q 1594 3097 1305 2825 
Q 1016 2553 972 2059 
L 3022 2063 
z
" transform="scale(0.015625)"/>
     </defs>
     <use xlink:href="#DejaVuSans-52"/>
     <use xlink:href="#DejaVuSans-4f" transform="translate(69.482422 0)"/>
     <use xlink:href="#DejaVuSans-43" transform="translate(148.193359 0)"/>
     <use xlink:href="#DejaVuSans-20" transform="translate(218.017578 0)"/>
     <use xlink:href="#DejaVuSans-63" transform="translate(249.804688 0)"/>
     <use xlink:href="#DejaVuSans-75" transform="translate(304.785156 0)"/>
     <use xlink:href="#DejaVuSans-72" transform="translate(368.164062 0)"/>
     <use xlink:href="#DejaVuSans-76" transform="translate(409.277344 0)"/>
     <use xlink:href="#DejaVuSans-65" transform="translate(468.457031 0)"/>
    </g>
   </g>
   <g id="legend_1">
    <g id="patch_7">
     <path d="M 102.519403 169.04 
L 194.649091 169.04 
Q 196.649091 169.04 196.649091 167.04 
L 196.649091 138.68375 
Q 196.649091 136.68375 194.649091 136.68375 
L 102.519403 136.68375 
Q 100.519403 136.68375 100.519403 138.68375 
L 100.519403 167.04 
Q 100.519403 169.04 102.519403 169.04 
z
" style="fill: #ffffff; opacity: 0.8; stroke: #cccccc; stroke-linejoin: miter"/>
    </g>
    <g id="line2d_14">
     <path d="M 104.519403 144.782188 
L 114.519403 144.782188 
L 124.519403 144.782188 
" style="fill: none; stroke: #1f77b4; stroke-width: 1.5; stroke-linecap: square"/>
    </g>
    <g id="text_15">
     <!-- True ROC -->
     <g transform="translate(132.519403 148.282188) scale(0.1 -0.1)">
      <use xlink:href="#DejaVuSans-54"/>
      <use xlink:href="#DejaVuSans-72" transform="translate(46.333984 0)"/>
      <use xlink:href="#DejaVuSans-75" transform="translate(87.447266 0)"/>
      <use xlink:href="#DejaVuSans-65" transform="translate(150.826172 0)"/>
      <use xlink:href="#DejaVuSans-20" transform="translate(212.349609 0)"/>
      <use xlink:href="#DejaVuSans-52" transform="translate(244.136719 0)"/>
      <use xlink:href="#DejaVuSans-4f" transform="translate(313.619141 0)"/>
      <use xlink:href="#DejaVuSans-43" transform="translate(392.330078 0)"/>
     </g>
    </g>
    <g id="line2d_15">
     <path d="M 104.519403 159.460313 
L 114.519403 159.460313 
L 124.519403 159.460313 
" style="fill: none; stroke: #ff7f0e; stroke-width: 1.5; stroke-linecap: square"/>
    </g>
    <g id="text_16">
     <!-- Approx ROC -->
     <g transform="translate(132.519403 162.960313) scale(0.1 -0.1)">
      <defs>
       <path id="DejaVuSans-41" d="M 2188 4044 
L 1331 1722 
L 3047 1722 
L 2188 4044 
z
M 1831 4666 
L 2547 4666 
L 4325 0 
L 3669 0 
L 3244 1197 
L 1141 1197 
L 716 0 
L 50 0 
L 1831 4666 
z
" transform="scale(0.015625)"/>
       <path id="DejaVuSans-70" d="M 1159 525 
L 1159 -1331 
L 581 -1331 
L 581 3500 
L 1159 3500 
L 1159 2969 
Q 1341 3281 1617 3432 
Q 1894 3584 2278 3584 
Q 2916 3584 3314 3078 
Q 3713 2572 3713 1747 
Q 3713 922 3314 415 
Q 2916 -91 2278 -91 
Q 1894 -91 1617 61 
Q 1341 213 1159 525 
z
M 3116 1747 
Q 3116 2381 2855 2742 
Q 2594 3103 2138 3103 
Q 1681 3103 1420 2742 
Q 1159 2381 1159 1747 
Q 1159 1113 1420 752 
Q 1681 391 2138 391 
Q 2594 391 2855 752 
Q 3116 1113 3116 1747 
z
" transform="scale(0.015625)"/>
       <path id="DejaVuSans-6f" d="M 1959 3097 
Q 1497 3097 1228 2736 
Q 959 2375 959 1747 
Q 959 1119 1226 758 
Q 1494 397 1959 397 
Q 2419 397 2687 759 
Q 2956 1122 2956 1747 
Q 2956 2369 2687 2733 
Q 2419 3097 1959 3097 
z
M 1959 3584 
Q 2709 3584 3137 3096 
Q 3566 2609 3566 1747 
Q 3566 888 3137 398 
Q 2709 -91 1959 -91 
Q 1206 -91 779 398 
Q 353 888 353 1747 
Q 353 2609 779 3096 
Q 1206 3584 1959 3584 
z
" transform="scale(0.015625)"/>
       <path id="DejaVuSans-78" d="M 3513 3500 
L 2247 1797 
L 3578 0 
L 2900 0 
L 1881 1375 
L 863 0 
L 184 0 
L 1544 1831 
L 300 3500 
L 978 3500 
L 1906 2253 
L 2834 3500 
L 3513 3500 
z
" transform="scale(0.015625)"/>
      </defs>
      <use xlink:href="#DejaVuSans-41"/>
      <use xlink:href="#DejaVuSans-70" transform="translate(68.408203 0)"/>
      <use xlink:href="#DejaVuSans-70" transform="translate(131.884766 0)"/>
      <use xlink:href="#DejaVuSans-72" transform="translate(195.361328 0)"/>
      <use xlink:href="#DejaVuSans-6f" transform="translate(234.224609 0)"/>
      <use xlink:href="#DejaVuSans-78" transform="translate(292.28125 0)"/>
      <use xlink:href="#DejaVuSans-20" transform="translate(351.460938 0)"/>
      <use xlink:href="#DejaVuSans-52" transform="translate(383.248047 0)"/>
      <use xlink:href="#DejaVuSans-4f" transform="translate(452.730469 0)"/>
      <use xlink:href="#DejaVuSans-43" transform="translate(531.441406 0)"/>
     </g>
    </g>
   </g>
  </g>
 </g>
 <defs>
  <clipPath id="p7e6c23748a">
   <rect x="47.855" y="26.16" width="153.794091" height="147.88"/>
  </clipPath>
 </defs>
</svg>
