<?xml version="1.0" encoding="utf-8" standalone="no"?>
<!DOCTYPE svg PUBLIC "-//W3C//DTD SVG 1.1//EN"
  "http://www.w3.org/Graphics/SVG/1.1/DTD/svg11.dtd">
<svg xmlns:xlink="http://www.w3.org/1999/xlink" width="216pt" height="216pt" viewBox="0 0 216 216" xmlns="http://www.w3.org/2000/svg" version="1.1">
 <metadata>
  <rdf:RDF xmlns:dc="http://purl.org/dc/elements/1.1/" xmlns:cc="http://creativecommons.org/ns#" xmlns:rdf="http://www.w3.org/1999/02/22-rdf-syntax-ns#">
   <cc:Work>
    <dc:type rdf:resource="http://purl.org/dc/dcmitype/StillImage"/>
    <dc:date>2025-09-23T20:23:58.268315</dc:date>
    <dc:format>image/svg+xml</dc:format>
    <dc:creator>
     <cc:Agent>
      <dc:title>Matplotlib v3.10.1, https://matplotlib.org/</dc:title>
     </cc:Agent>
    </dc:creator>
   </cc:Work>
  </rdf:RDF>
 </metadata>
 <defs>
  <style type="text/css">*{stroke-linejoin: round; stroke-linecap: butt}</style>
 </defs>
 <g id="figure_1">
  <g id="patch_1">
   <path d="M 0 216 
L 216 216 
L 216 0 
L 0 0 
z
" style="fill: #ffffff"/>
  </g>
  <g id="axes_1">
   <g id="patch_2">
    <path d="M 47.81 174.04 
L 201.649091 174.04 
L 201.649091 26.16 
L 47.81 26.16 
z
" style="fill: #ffffff"/>
   </g>
   <g id="matplotlib.axis_1">
    <g id="xtick_1">
     <g id="line2d_1">
      <defs>
       <path id="maee4a70dd2" d="M 0 0 
L 0 3.5 
" style="stroke: #000000; stroke-width: 0.8"/>
      </defs>
      <g>
       <use xlink:href="#maee4a70dd2" x="54.802686" y="174.04" style="stroke: #000000; stroke-width: 0.8"/>
      </g>
     </g>
     <g id="text_1">
      <!-- 0.00 -->
      <g transform="translate(43.669873 188.638438) scale(0.1 -0.1)">
       <defs>
        <path id="DejaVuSans-30" d="M 2034 4250 
Q 1547 4250 1301 3770 
Q 1056 3291 1056 2328 
Q 1056 1369 1301 889 
Q 1547 409 2034 409 
Q 2525 409 2770 889 
Q 3016 1369 3016 2328 
Q 3016 3291 2770 3770 
Q 2525 4250 2034 4250 
z
M 2034 4750 
Q 2819 4750 3233 4129 
Q 3647 3509 3647 2328 
Q 3647 1150 3233 529 
Q 2819 -91 2034 -91 
Q 1250 -91 836 529 
Q 422 1150 422 2328 
Q 422 3509 836 4129 
Q 1250 4750 2034 4750 
z
" transform="scale(0.015625)"/>
        <path id="DejaVuSans-2e" d="M 684 794 
L 1344 794 
L 1344 0 
L 684 0 
L 684 794 
z
" transform="scale(0.015625)"/>
       </defs>
       <use xlink:href="#DejaVuSans-30"/>
       <use xlink:href="#DejaVuSans-2e" transform="translate(63.623047 0)"/>
       <use xlink:href="#DejaVuSans-30" transform="translate(95.410156 0)"/>
       <use xlink:href="#DejaVuSans-30" transform="translate(159.033203 0)"/>
      </g>
     </g>
    </g>
    <g id="xtick_2">
     <g id="line2d_2">
      <g>
       <use xlink:href="#maee4a70dd2" x="89.766116" y="174.04" style="stroke: #000000; stroke-width: 0.8"/>
      </g>
     </g>
     <g id="text_2">
      <!-- 0.25 -->
      <g transform="translate(78.633303 188.638438) scale(0.1 -0.1)">
       <defs>
        <path id="DejaVuSans-32" d="M 1228 531 
L 3431 531 
L 3431 0 
L 469 0 
L 469 531 
Q 828 903 1448 1529 
Q 2069 2156 2228 2338 
Q 2531 2678 2651 2914 
Q 2772 3150 2772 3378 
Q 2772 3750 2511 3984 
Q 2250 4219 1831 4219 
Q 1534 4219 1204 4116 
Q 875 4013 500 3803 
L 500 4441 
Q 881 4594 1212 4672 
Q 1544 4750 1819 4750 
Q 2544 4750 2975 4387 
Q 3406 4025 3406 3419 
Q 3406 3131 3298 2873 
Q 3191 2616 2906 2266 
Q 2828 2175 2409 1742 
Q 1991 1309 1228 531 
z
" transform="scale(0.015625)"/>
        <path id="DejaVuSans-35" d="M 691 4666 
L 3169 4666 
L 3169 4134 
L 1269 4134 
L 1269 2991 
Q 1406 3038 1543 3061 
Q 1681 3084 1819 3084 
Q 2600 3084 3056 2656 
Q 3513 2228 3513 1497 
Q 3513 744 3044 326 
Q 2575 -91 1722 -91 
Q 1428 -91 1123 -41 
Q 819 9 494 109 
L 494 744 
Q 775 591 1075 516 
Q 1375 441 1709 441 
Q 2250 441 2565 725 
Q 2881 1009 2881 1497 
Q 2881 1984 2565 2268 
Q 2250 2553 1709 2553 
Q 1456 2553 1204 2497 
Q 953 2441 691 2322 
L 691 4666 
z
" transform="scale(0.015625)"/>
       </defs>
       <use xlink:href="#DejaVuSans-30"/>
       <use xlink:href="#DejaVuSans-2e" transform="translate(63.623047 0)"/>
       <use xlink:href="#DejaVuSans-32" transform="translate(95.410156 0)"/>
       <use xlink:href="#DejaVuSans-35" transform="translate(159.033203 0)"/>
      </g>
     </g>
    </g>
    <g id="xtick_3">
     <g id="line2d_3">
      <g>
       <use xlink:href="#maee4a70dd2" x="124.729545" y="174.04" style="stroke: #000000; stroke-width: 0.8"/>
      </g>
     </g>
     <g id="text_3">
      <!-- 0.50 -->
      <g transform="translate(113.596733 188.638438) scale(0.1 -0.1)">
       <use xlink:href="#DejaVuSans-30"/>
       <use xlink:href="#DejaVuSans-2e" transform="translate(63.623047 0)"/>
       <use xlink:href="#DejaVuSans-35" transform="translate(95.410156 0)"/>
       <use xlink:href="#DejaVuSans-30" transform="translate(159.033203 0)"/>
      </g>
     </g>
    </g>
    <g id="xtick_4">
     <g id="line2d_4">
      <g>
       <use xlink:href="#maee4a70dd2" x="159.692975" y="174.04" style="stroke: #000000; stroke-width: 0.8"/>
      </g>
     </g>
     <g id="text_4">
      <!-- 0.75 -->
      <g transform="translate(148.560163 188.638438) scale(0.1 -0.1)">
       <defs>
        <path id="DejaVuSans-37" d="M 525 4666 
L 3525 4666 
L 3525 4397 
L 1831 0 
L 1172 0 
L 2766 4134 
L 525 4134 
L 525 4666 
z
" transform="scale(0.015625)"/>
       </defs>
       <use xlink:href="#DejaVuSans-30"/>
       <use xlink:href="#DejaVuSans-2e" transform="translate(63.623047 0)"/>
       <use xlink:href="#DejaVuSans-37" transform="translate(95.410156 0)"/>
       <use xlink:href="#DejaVuSans-35" transform="translate(159.033203 0)"/>
      </g>
     </g>
    </g>
    <g id="xtick_5">
     <g id="line2d_5">
      <g>
       <use xlink:href="#maee4a70dd2" x="194.656405" y="174.04" style="stroke: #000000; stroke-width: 0.8"/>
      </g>
     </g>
     <g id="text_5">
      <!-- 1.00 -->
      <g transform="translate(183.523592 188.638438) scale(0.1 -0.1)">
       <defs>
        <path id="DejaVuSans-31" d="M 794 531 
L 1825 531 
L 1825 4091 
L 703 3866 
L 703 4441 
L 1819 4666 
L 2450 4666 
L 2450 531 
L 3481 531 
L 3481 0 
L 794 0 
L 794 531 
z
" transform="scale(0.015625)"/>
       </defs>
       <use xlink:href="#DejaVuSans-31"/>
       <use xlink:href="#DejaVuSans-2e" transform="translate(63.623047 0)"/>
       <use xlink:href="#DejaVuSans-30" transform="translate(95.410156 0)"/>
       <use xlink:href="#DejaVuSans-30" transform="translate(159.033203 0)"/>
      </g>
     </g>
    </g>
    <g id="text_6">
     <!-- Recall -->
     <g transform="translate(109.812358 202.316563) scale(0.1 -0.1)">
      <defs>
       <path id="DejaVuSans-52" d="M 2841 2188 
Q 3044 2119 3236 1894 
Q 3428 1669 3622 1275 
L 4263 0 
L 3584 0 
L 2988 1197 
Q 2756 1666 2539 1819 
Q 2322 1972 1947 1972 
L 1259 1972 
L 1259 0 
L 628 0 
L 628 4666 
L 2053 4666 
Q 2853 4666 3247 4331 
Q 3641 3997 3641 3322 
Q 3641 2881 3436 2590 
Q 3231 2300 2841 2188 
z
M 1259 4147 
L 1259 2491 
L 2053 2491 
Q 2509 2491 2742 2702 
Q 2975 2913 2975 3322 
Q 2975 3731 2742 3939 
Q 2509 4147 2053 4147 
L 1259 4147 
z
" transform="scale(0.015625)"/>
       <path id="DejaVuSans-65" d="M 3597 1894 
L 3597 1613 
L 953 1613 
Q 991 1019 1311 708 
Q 1631 397 2203 397 
Q 2534 397 2845 478 
Q 3156 559 3463 722 
L 3463 178 
Q 3153 47 2828 -22 
Q 2503 -91 2169 -91 
Q 1331 -91 842 396 
Q 353 884 353 1716 
Q 353 2575 817 3079 
Q 1281 3584 2069 3584 
Q 2775 3584 3186 3129 
Q 3597 2675 3597 1894 
z
M 3022 2063 
Q 3016 2534 2758 2815 
Q 2500 3097 2075 3097 
Q 1594 3097 1305 2825 
Q 1016 2553 972 2059 
L 3022 2063 
z
" transform="scale(0.015625)"/>
       <path id="DejaVuSans-63" d="M 3122 3366 
L 3122 2828 
Q 2878 2963 2633 3030 
Q 2388 3097 2138 3097 
Q 1578 3097 1268 2742 
Q 959 2388 959 1747 
Q 959 1106 1268 751 
Q 1578 397 2138 397 
Q 2388 397 2633 464 
Q 2878 531 3122 666 
L 3122 134 
Q 2881 22 2623 -34 
Q 2366 -91 2075 -91 
Q 1284 -91 818 406 
Q 353 903 353 1747 
Q 353 2603 823 3093 
Q 1294 3584 2113 3584 
Q 2378 3584 2631 3529 
Q 2884 3475 3122 3366 
z
" transform="scale(0.015625)"/>
       <path id="DejaVuSans-61" d="M 2194 1759 
Q 1497 1759 1228 1600 
Q 959 1441 959 1056 
Q 959 750 1161 570 
Q 1363 391 1709 391 
Q 2188 391 2477 730 
Q 2766 1069 2766 1631 
L 2766 1759 
L 2194 1759 
z
M 3341 1997 
L 3341 0 
L 2766 0 
L 2766 531 
Q 2569 213 2275 61 
Q 1981 -91 1556 -91 
Q 1019 -91 701 211 
Q 384 513 384 1019 
Q 384 1609 779 1909 
Q 1175 2209 1959 2209 
L 2766 2209 
L 2766 2266 
Q 2766 2663 2505 2880 
Q 2244 3097 1772 3097 
Q 1472 3097 1187 3025 
Q 903 2953 641 2809 
L 641 3341 
Q 956 3463 1253 3523 
Q 1550 3584 1831 3584 
Q 2591 3584 2966 3190 
Q 3341 2797 3341 1997 
z
" transform="scale(0.015625)"/>
       <path id="DejaVuSans-6c" d="M 603 4863 
L 1178 4863 
L 1178 0 
L 603 0 
L 603 4863 
z
" transform="scale(0.015625)"/>
      </defs>
      <use xlink:href="#DejaVuSans-52"/>
      <use xlink:href="#DejaVuSans-65" transform="translate(64.982422 0)"/>
      <use xlink:href="#DejaVuSans-63" transform="translate(126.505859 0)"/>
      <use xlink:href="#DejaVuSans-61" transform="translate(181.486328 0)"/>
      <use xlink:href="#DejaVuSans-6c" transform="translate(242.765625 0)"/>
      <use xlink:href="#DejaVuSans-6c" transform="translate(270.548828 0)"/>
     </g>
    </g>
   </g>
   <g id="matplotlib.axis_2">
    <g id="ytick_1">
     <g id="line2d_6">
      <defs>
       <path id="m17a7f85c29" d="M 0 0 
L -3.5 0 
" style="stroke: #000000; stroke-width: 0.8"/>
      </defs>
      <g>
       <use xlink:href="#m17a7f85c29" x="47.81" y="139.128965" style="stroke: #000000; stroke-width: 0.8"/>
      </g>
     </g>
     <g id="text_7">
      <!-- 0.4 -->
      <g transform="translate(24.906875 142.928183) scale(0.1 -0.1)">
       <defs>
        <path id="DejaVuSans-34" d="M 2419 4116 
L 825 1625 
L 2419 1625 
L 2419 4116 
z
M 2253 4666 
L 3047 4666 
L 3047 1625 
L 3713 1625 
L 3713 1100 
L 3047 1100 
L 3047 0 
L 2419 0 
L 2419 1100 
L 313 1100 
L 313 1709 
L 2253 4666 
z
" transform="scale(0.015625)"/>
       </defs>
       <use xlink:href="#DejaVuSans-30"/>
       <use xlink:href="#DejaVuSans-2e" transform="translate(63.623047 0)"/>
       <use xlink:href="#DejaVuSans-34" transform="translate(95.410156 0)"/>
      </g>
     </g>
    </g>
    <g id="ytick_2">
     <g id="line2d_7">
      <g>
       <use xlink:href="#m17a7f85c29" x="47.81" y="103.713249" style="stroke: #000000; stroke-width: 0.8"/>
      </g>
     </g>
     <g id="text_8">
      <!-- 0.6 -->
      <g transform="translate(24.906875 107.512468) scale(0.1 -0.1)">
       <defs>
        <path id="DejaVuSans-36" d="M 2113 2584 
Q 1688 2584 1439 2293 
Q 1191 2003 1191 1497 
Q 1191 994 1439 701 
Q 1688 409 2113 409 
Q 2538 409 2786 701 
Q 3034 994 3034 1497 
Q 3034 2003 2786 2293 
Q 2538 2584 2113 2584 
z
M 3366 4563 
L 3366 3988 
Q 3128 4100 2886 4159 
Q 2644 4219 2406 4219 
Q 1781 4219 1451 3797 
Q 1122 3375 1075 2522 
Q 1259 2794 1537 2939 
Q 1816 3084 2150 3084 
Q 2853 3084 3261 2657 
Q 3669 2231 3669 1497 
Q 3669 778 3244 343 
Q 2819 -91 2113 -91 
Q 1303 -91 875 529 
Q 447 1150 447 2328 
Q 447 3434 972 4092 
Q 1497 4750 2381 4750 
Q 2619 4750 2861 4703 
Q 3103 4656 3366 4563 
z
" transform="scale(0.015625)"/>
       </defs>
       <use xlink:href="#DejaVuSans-30"/>
       <use xlink:href="#DejaVuSans-2e" transform="translate(63.623047 0)"/>
       <use xlink:href="#DejaVuSans-36" transform="translate(95.410156 0)"/>
      </g>
     </g>
    </g>
    <g id="ytick_3">
     <g id="line2d_8">
      <g>
       <use xlink:href="#m17a7f85c29" x="47.81" y="68.297534" style="stroke: #000000; stroke-width: 0.8"/>
      </g>
     </g>
     <g id="text_9">
      <!-- 0.8 -->
      <g transform="translate(24.906875 72.096752) scale(0.1 -0.1)">
       <defs>
        <path id="DejaVuSans-38" d="M 2034 2216 
Q 1584 2216 1326 1975 
Q 1069 1734 1069 1313 
Q 1069 891 1326 650 
Q 1584 409 2034 409 
Q 2484 409 2743 651 
Q 3003 894 3003 1313 
Q 3003 1734 2745 1975 
Q 2488 2216 2034 2216 
z
M 1403 2484 
Q 997 2584 770 2862 
Q 544 3141 544 3541 
Q 544 4100 942 4425 
Q 1341 4750 2034 4750 
Q 2731 4750 3128 4425 
Q 3525 4100 3525 3541 
Q 3525 3141 3298 2862 
Q 3072 2584 2669 2484 
Q 3125 2378 3379 2068 
Q 3634 1759 3634 1313 
Q 3634 634 3220 271 
Q 2806 -91 2034 -91 
Q 1263 -91 848 271 
Q 434 634 434 1313 
Q 434 1759 690 2068 
Q 947 2378 1403 2484 
z
M 1172 3481 
Q 1172 3119 1398 2916 
Q 1625 2713 2034 2713 
Q 2441 2713 2670 2916 
Q 2900 3119 2900 3481 
Q 2900 3844 2670 4047 
Q 2441 4250 2034 4250 
Q 1625 4250 1398 4047 
Q 1172 3844 1172 3481 
z
" transform="scale(0.015625)"/>
       </defs>
       <use xlink:href="#DejaVuSans-30"/>
       <use xlink:href="#DejaVuSans-2e" transform="translate(63.623047 0)"/>
       <use xlink:href="#DejaVuSans-38" transform="translate(95.410156 0)"/>
      </g>
     </g>
    </g>
    <g id="ytick_4">
     <g id="line2d_9">
      <g>
       <use xlink:href="#m17a7f85c29" x="47.81" y="32.881818" style="stroke: #000000; stroke-width: 0.8"/>
      </g>
     </g>
     <g id="text_10">
      <!-- 1.0 -->
      <g transform="translate(24.906875 36.681037) scale(0.1 -0.1)">
       <use xlink:href="#DejaVuSans-31"/>
       <use xlink:href="#DejaVuSans-2e" transform="translate(63.623047 0)"/>
       <use xlink:href="#DejaVuSans-30" transform="translate(95.410156 0)"/>
      </g>
     </g>
    </g>
    <g id="text_11">
     <!-- Precision -->
     <g transform="translate(18.827187 122.407031) rotate(-90) scale(0.1 -0.1)">
      <defs>
       <path id="DejaVuSans-50" d="M 1259 4147 
L 1259 2394 
L 2053 2394 
Q 2494 2394 2734 2622 
Q 2975 2850 2975 3272 
Q 2975 3691 2734 3919 
Q 2494 4147 2053 4147 
L 1259 4147 
z
M 628 4666 
L 2053 4666 
Q 2838 4666 3239 4311 
Q 3641 3956 3641 3272 
Q 3641 2581 3239 2228 
Q 2838 1875 2053 1875 
L 1259 1875 
L 1259 0 
L 628 0 
L 628 4666 
z
" transform="scale(0.015625)"/>
       <path id="DejaVuSans-72" d="M 2631 2963 
Q 2534 3019 2420 3045 
Q 2306 3072 2169 3072 
Q 1681 3072 1420 2755 
Q 1159 2438 1159 1844 
L 1159 0 
L 581 0 
L 581 3500 
L 1159 3500 
L 1159 2956 
Q 1341 3275 1631 3429 
Q 1922 3584 2338 3584 
Q 2397 3584 2469 3576 
Q 2541 3569 2628 3553 
L 2631 2963 
z
" transform="scale(0.015625)"/>
       <path id="DejaVuSans-69" d="M 603 3500 
L 1178 3500 
L 1178 0 
L 603 0 
L 603 3500 
z
M 603 4863 
L 1178 4863 
L 1178 4134 
L 603 4134 
L 603 4863 
z
" transform="scale(0.015625)"/>
       <path id="DejaVuSans-73" d="M 2834 3397 
L 2834 2853 
Q 2591 2978 2328 3040 
Q 2066 3103 1784 3103 
Q 1356 3103 1142 2972 
Q 928 2841 928 2578 
Q 928 2378 1081 2264 
Q 1234 2150 1697 2047 
L 1894 2003 
Q 2506 1872 2764 1633 
Q 3022 1394 3022 966 
Q 3022 478 2636 193 
Q 2250 -91 1575 -91 
Q 1294 -91 989 -36 
Q 684 19 347 128 
L 347 722 
Q 666 556 975 473 
Q 1284 391 1588 391 
Q 1994 391 2212 530 
Q 2431 669 2431 922 
Q 2431 1156 2273 1281 
Q 2116 1406 1581 1522 
L 1381 1569 
Q 847 1681 609 1914 
Q 372 2147 372 2553 
Q 372 3047 722 3315 
Q 1072 3584 1716 3584 
Q 2034 3584 2315 3537 
Q 2597 3491 2834 3397 
z
" transform="scale(0.015625)"/>
       <path id="DejaVuSans-6f" d="M 1959 3097 
Q 1497 3097 1228 2736 
Q 959 2375 959 1747 
Q 959 1119 1226 758 
Q 1494 397 1959 397 
Q 2419 397 2687 759 
Q 2956 1122 2956 1747 
Q 2956 2369 2687 2733 
Q 2419 3097 1959 3097 
z
M 1959 3584 
Q 2709 3584 3137 3096 
Q 3566 2609 3566 1747 
Q 3566 888 3137 398 
Q 2709 -91 1959 -91 
Q 1206 -91 779 398 
Q 353 888 353 1747 
Q 353 2609 779 3096 
Q 1206 3584 1959 3584 
z
" transform="scale(0.015625)"/>
       <path id="DejaVuSans-6e" d="M 3513 2113 
L 3513 0 
L 2938 0 
L 2938 2094 
Q 2938 2591 2744 2837 
Q 2550 3084 2163 3084 
Q 1697 3084 1428 2787 
Q 1159 2491 1159 1978 
L 1159 0 
L 581 0 
L 581 3500 
L 1159 3500 
L 1159 2956 
Q 1366 3272 1645 3428 
Q 1925 3584 2291 3584 
Q 2894 3584 3203 3211 
Q 3513 2838 3513 2113 
z
" transform="scale(0.015625)"/>
      </defs>
      <use xlink:href="#DejaVuSans-50"/>
      <use xlink:href="#DejaVuSans-72" transform="translate(58.552734 0)"/>
      <use xlink:href="#DejaVuSans-65" transform="translate(97.416016 0)"/>
      <use xlink:href="#DejaVuSans-63" transform="translate(158.939453 0)"/>
      <use xlink:href="#DejaVuSans-69" transform="translate(213.919922 0)"/>
      <use xlink:href="#DejaVuSans-73" transform="translate(241.703125 0)"/>
      <use xlink:href="#DejaVuSans-69" transform="translate(293.802734 0)"/>
      <use xlink:href="#DejaVuSans-6f" transform="translate(321.585938 0)"/>
      <use xlink:href="#DejaVuSans-6e" transform="translate(382.767578 0)"/>
     </g>
    </g>
   </g>
   <g id="line2d_10">
    <path d="M 194.656405 167.318182 
L 194.549388 145.112971 
L 194.513715 145.096175 
L 194.513715 145.00809 
L 194.406698 142.492449 
L 194.388862 142.497785 
L 194.388862 142.382644 
L 194.281845 137.372752 
L 194.264008 137.37823 
L 194.264008 137.263903 
L 194.246172 137.265567 
L 194.156991 136.168997 
L 194.121319 136.132759 
L 194.121319 136.065708 
L 194.014301 133.389853 
L 193.996465 133.395422 
L 193.996465 133.29773 
L 193.978629 133.286285 
L 193.871612 131.113861 
L 193.835939 131.089045 
L 193.835939 131.012357 
L 193.728922 130.164906 
L 193.711086 130.170534 
L 193.711086 130.054957 
L 193.604069 129.37411 
L 193.55056 129.306127 
L 193.586232 129.313722 
L 193.55056 129.277783 
L 193.443543 127.177465 
L 193.425707 127.183137 
L 193.425707 127.068466 
L 193.318689 125.773543 
L 193.300853 125.77923 
L 193.300853 125.69669 
L 193.283017 125.671384 
L 193.176 125.059858 
L 193.158163 125.065555 
L 193.158163 124.949966 
L 193.051146 123.588484 
L 193.03331 123.594192 
L 193.03331 123.48535 
L 193.015474 123.48561 
L 192.908456 122.214368 
L 192.89062 122.220085 
L 192.89062 122.107634 
L 192.783603 120.839332 
L 192.765767 120.845054 
L 192.765767 120.728943 
L 192.658749 119.918269 
L 192.605241 119.888035 
L 192.605241 119.822756 
L 192.498224 119.042158 
L 192.444715 118.986733 
L 192.444715 118.944319 
L 192.355534 118.178019 
L 192.337698 118.183752 
L 192.284189 118.108331 
L 192.284189 118.089784 
L 192.177172 117.369818 
L 192.105827 117.298382 
L 192.105827 117.279481 
L 191.99881 116.851611 
L 191.980974 116.857351 
L 191.980974 116.742645 
L 191.873956 116.011561 
L 191.85612 116.017301 
L 191.85612 115.939404 
L 191.838284 115.912648 
L 191.731267 115.666698 
L 191.659922 115.591461 
L 191.659922 115.57835 
L 191.552904 115.085381 
L 191.535068 115.091126 
L 191.535068 114.978282 
L 191.517232 114.984026 
L 191.410215 114.577821 
L 191.356706 114.487608 
L 191.392379 114.503001 
L 191.356706 114.480884 
L 191.249689 113.075035 
L 191.231853 113.080771 
L 191.231853 112.969773 
L 191.124835 112.318698 
L 191.089163 112.287876 
L 191.089163 112.217319 
L 190.982146 111.697808 
L 190.96431 111.703537 
L 190.96431 111.589135 
L 190.857292 110.691241 
L 190.839456 110.69696 
L 190.839456 110.587405 
L 190.732439 110.188413 
L 190.67893 110.161283 
L 190.67893 110.09479 
L 190.589749 109.475958 
L 190.571913 109.481668 
L 190.554077 109.487378 
L 190.554077 109.382407 
L 190.536241 109.38061 
L 190.429223 109.015385 
L 190.411387 109.021093 
L 190.411387 108.907448 
L 190.30437 108.599188 
L 190.286534 108.604893 
L 190.286534 108.490203 
L 190.179516 107.916025 
L 190.16168 107.921723 
L 190.16168 107.805373 
L 190.054663 107.072735 
L 190.001154 107.010893 
L 190.001154 106.979299 
L 189.894137 106.305311 
L 189.876301 106.198707 
L 189.78712 106.034015 
L 189.769284 106.039689 
L 189.715775 106.032528 
L 189.715775 105.943749 
L 189.608758 105.686154 
L 189.573085 105.656862 
L 189.573085 105.583632 
L 189.466068 105.126768 
L 189.341215 105.051213 
L 189.234197 104.746266 
L 189.180689 104.705169 
L 189.180689 104.647007 
L 189.073671 104.213328 
L 189.002327 104.202401 
L 189.002327 104.126794 
L 188.895309 103.933258 
L 188.877473 103.845945 
L 188.788292 103.857319 
L 188.681275 103.568672 
L 188.60993 103.489009 
L 188.60993 103.480475 
L 188.502913 103.326317 
L 188.413732 103.268879 
L 188.413732 103.243129 
L 188.306714 102.967083 
L 188.288878 102.972741 
L 188.288878 102.860341 
L 188.181861 102.485872 
L 188.110516 102.464839 
L 188.110516 102.394946 
L 188.003499 102.20982 
L 187.985663 102.215469 
L 187.985663 102.1276 
L 187.967826 102.106858 
L 187.860809 101.849569 
L 187.8073 101.822245 
L 187.8073 101.742484 
L 187.700283 101.384648 
L 187.664611 101.369112 
L 187.646775 101.285277 
L 187.539757 101.067752 
L 187.43274 101.002489 
L 187.43274 100.993472 
L 187.325723 100.656264 
L 187.272214 100.636822 
L 187.272214 100.564073 
L 187.183033 100.482911 
L 187.165197 100.488543 
L 187.111688 100.450693 
L 187.111688 100.395888 
L 187.004671 100.182341 
L 186.986835 100.187971 
L 186.986835 100.077675 
L 186.968999 100.083301 
L 186.951162 99.978404 
L 186.861981 99.978868 
L 186.754964 99.911058 
L 186.754964 99.901812 
L 186.647947 99.676055 
L 186.612274 99.687312 
L 186.612274 99.57569 
L 186.523093 99.098638 
L 186.505257 99.104252 
L 186.39824 99.034454 
L 186.39824 99.025035 
L 186.309059 98.7224 
L 186.291223 98.72801 
L 186.25555 98.710791 
L 186.25555 98.625375 
L 186.148533 98.229897 
L 186.112861 98.221946 
L 186.112861 98.126091 
L 186.005843 97.813171 
L 185.970171 97.785716 
L 185.970171 97.708361 
L 185.863154 97.460535 
L 185.809645 97.457831 
L 185.809645 97.370182 
L 185.702628 97.120274 
L 185.684792 97.125852 
L 185.684792 97.037601 
L 185.666955 97.023546 
L 185.559938 96.66287 
L 185.506429 96.610307 
L 185.506429 96.570688 
L 185.399412 96.345837 
L 185.292395 95.808764 
L 185.22105 95.720184 
L 185.114033 95.338611 
L 185.007016 95.29051 
L 185.007016 95.259986 
L 184.899998 94.925559 
L 184.828654 94.834842 
L 184.721636 94.476435 
L 184.650291 94.405354 
L 184.650291 94.384634 
L 184.543274 93.855332 
L 184.507602 93.855859 
L 184.507602 93.751081 
L 184.400584 93.500136 
L 184.364912 93.447824 
L 184.364912 93.395032 
L 184.257895 93.173815 
L 184.150878 93.100459 
L 184.04386 92.824064 
L 184.026024 92.733212 
L 183.990352 92.733439 
L 183.883334 92.271199 
L 183.81199 92.238948 
L 183.81199 92.184823 
L 183.704972 91.869884 
L 183.615791 91.798935 
L 183.615791 91.788017 
L 183.508774 91.568937 
L 183.455265 91.497422 
L 183.455265 91.475444 
L 183.348248 91.221532 
L 183.241231 91.154578 
L 183.241231 91.143508 
L 183.134214 90.85407 
L 183.116377 90.85949 
L 183.116377 90.748035 
L 183.00936 90.28751 
L 182.920179 90.224406 
L 182.920179 90.201859 
L 182.813162 89.985606 
L 182.706145 89.915919 
L 182.706145 89.904569 
L 182.599127 89.652411 
L 182.509946 89.622258 
L 182.509946 89.565123 
L 182.402929 89.287873 
L 182.278076 89.233448 
L 182.278076 89.210411 
L 182.171058 88.930713 
L 182.153222 88.866531 
L 182.081877 88.841568 
L 181.97486 88.629408 
L 181.850007 88.585231 
L 181.850007 88.561868 
L 181.742989 88.324623 
L 181.635972 88.168562 
L 181.528955 87.929038 
L 181.439774 87.896522 
L 181.439774 87.8491 
L 181.332756 87.4167 
L 181.243575 87.419393 
L 181.243575 87.3356 
L 181.136558 87.151469 
L 181.065213 87.076438 
L 181.065213 87.064391 
L 180.958196 86.975637 
L 180.886851 86.936468 
L 180.886851 86.888086 
L 180.779834 86.640933 
L 180.726325 86.583828 
L 180.726325 86.54729 
L 180.637144 86.415166 
L 180.619308 86.42046 
L 180.583636 86.406608 
L 180.583636 86.320977 
L 180.494455 86.10206 
L 180.476618 86.107343 
L 180.42311 86.037063 
L 180.42311 86.012431 
L 180.369601 85.880254 
L 180.316092 85.896084 
L 180.262584 85.813011 
L 180.298256 85.802461 
L 180.262584 85.800636 
L 180.155567 85.571766 
L 180.084222 85.493276 
L 180.084222 85.480819 
L 179.995041 85.294946 
L 179.977205 85.300203 
L 179.888023 85.22636 
L 179.888023 85.21383 
L 179.781006 84.704027 
L 179.638317 84.644626 
L 179.638317 84.631954 
L 179.531299 84.409296 
L 179.085394 83.744814 
L 178.978377 83.607925 
L 178.942704 83.618325 
L 178.924868 83.545765 
L 178.87136 83.314438 
L 178.817851 83.329999 
L 178.764342 83.293443 
L 178.764342 83.241274 
L 178.657325 82.840201 
L 178.58598 82.689753 
L 178.478963 82.469704 
L 178.318437 82.423303 
L 178.318437 82.410037 
L 178.21142 82.054907 
L 178.104403 82.005529 
L 178.104403 81.978775 
L 178.050894 81.913831 
L 177.997385 81.929229 
L 177.961713 81.899275 
L 177.943877 81.837308 
L 177.836859 81.585406 
L 177.712006 81.526707 
L 177.712006 81.513188 
L 177.622825 81.44405 
L 177.515808 81.379856 
L 177.515808 81.366284 
L 177.426627 81.174273 
L 177.40879 81.179382 
L 177.248264 81.129913 
L 177.248264 81.116258 
L 177.159083 80.936599 
L 177.141247 80.941704 
L 177.03423 80.972354 
L 177.03423 80.862577 
L 176.927213 80.700585 
L 176.784523 80.631007 
L 176.748851 80.599755 
L 176.677506 80.620158 
L 176.606161 80.5437 
L 176.606161 80.529848 
L 176.499144 80.435617 
L 176.409963 80.349903 
L 176.302945 80.11548 
L 176.267273 80.125651 
L 176.249437 80.018803 
L 176.142419 79.909056 
L 176.053238 79.821999 
L 175.946221 79.65512 
L 175.910549 79.651136 
L 175.910549 79.552202 
L 175.839204 79.18934 
L 175.803531 79.199422 
L 175.732187 79.11986 
L 175.732187 79.105599 
L 175.625169 78.806855 
L 175.589497 78.802556 
L 175.571661 78.707079 
L 175.464643 78.506804 
L 175.375462 78.459661 
L 175.375462 78.430763 
L 175.321954 78.431326 
L 175.268445 78.345043 
L 175.090083 78.29359 
L 174.983066 77.944966 
L 174.876049 77.87253 
L 174.786868 77.692176 
L 174.769031 77.697152 
L 174.733359 77.692416 
L 174.715523 77.60917 
L 174.626342 77.368567 
L 174.608505 77.373526 
L 174.554997 77.314455 
L 174.554997 77.28485 
L 174.465816 77.042497 
L 174.44798 77.047439 
L 174.269617 76.992648 
L 174.1626 76.843137 
L 174.109092 76.768154 
L 174.109092 76.753175 
L 174.019911 76.702885 
L 173.770204 76.681891 
L 173.770204 76.66685 
L 173.663186 76.500586 
L 173.609678 76.470083 
L 173.609678 76.409625 
L 173.520497 76.19181 
L 173.50266 76.196726 
L 173.288626 76.057949 
L 173.181609 75.919506 
L 173.092428 75.836923 
L 172.98541 75.636108 
L 172.860557 75.439208 
L 172.75354 75.313893 
L 172.717867 75.261687 
L 172.717867 75.215175 
L 172.646522 75.048246 
L 172.61085 75.057973 
L 172.539505 74.983988 
L 172.539505 74.9684 
L 172.46816 74.862977 
L 172.432488 74.87269 
L 172.343307 74.818783 
L 172.343307 74.787475 
L 172.23629 74.628375 
L 172.075764 74.593386 
L 172.075764 74.561902 
L 171.968746 74.259372 
L 171.826057 74.234631 
L 171.826057 74.187047 
L 171.772548 74.090346 
L 171.719039 74.104816 
L 171.647695 74.044548 
L 171.647695 74.012691 
L 171.57635 73.920329 
L 171.540677 73.929963 
L 171.380152 73.877435 
L 171.380152 73.861433 
L 171.29097 73.661022 
L 171.273134 73.665828 
L 171.201789 73.636838 
L 171.201789 73.572482 
L 171.094772 73.504619 
L 171.0591 73.498092 
L 171.0591 73.401218 
L 170.898574 73.168981 
L 170.809393 73.030296 
L 170.791557 73.03507 
L 170.648867 72.959162 
L 170.54185 72.561987 
L 170.470505 72.515204 
L 170.470505 72.482295 
L 170.434832 72.409423 
L 170.363488 72.428377 
L 170.309979 72.3601 
L 170.309979 72.343587 
L 170.202962 72.206591 
L 170.149453 72.204211 
L 170.131617 72.126029 
L 170.042436 72.016739 
L 170.0246 72.021458 
L 169.953255 71.94044 
L 169.846237 71.75168 
L 169.73922 71.679451 
L 169.650039 71.434219 
L 169.632203 71.438903 
L 169.596531 71.380906 
L 169.596531 71.347196 
L 169.489513 71.274007 
L 169.275479 71.245601 
L 169.168462 71.12109 
L 169.07928 71.059509 
L 169.07928 71.042501 
L 168.972263 70.934273 
L 168.84741 70.881606 
L 168.84741 70.86452 
L 168.758229 70.750966 
L 168.740392 70.755627 
L 168.669048 70.722849 
L 168.669048 70.671382 
L 168.633375 70.629181 
L 168.56203 70.647806 
L 168.455013 70.57254 
L 168.401505 70.517584 
L 168.347996 70.531549 
L 168.169634 70.474531 
L 168.098289 70.372021 
L 168.062617 70.381328 
L 167.955599 70.305187 
L 167.902091 70.232265 
L 167.848582 70.246214 
L 167.741565 70.169652 
L 167.634548 70.057925 
L 167.616711 70.062569 
L 167.616711 69.975144 
L 167.598875 69.96228 
L 167.491858 69.656602 
L 167.367004 69.583194 
L 167.277823 69.411936 
L 167.259987 69.416535 
L 167.028116 69.387798 
L 167.028116 69.37006 
L 166.921099 69.148765 
L 166.903263 69.153354 
L 166.903263 69.046385 
L 166.885427 69.050964 
L 166.778409 68.828073 
L 166.63572 68.756952 
L 166.528703 68.442125 
L 166.439521 68.356356 
L 166.332504 68.256743 
L 166.261159 68.202257 
L 166.261159 68.165927 
L 166.154142 68.029267 
L 164.762918 66.825555 
L 164.655901 66.645421 
L 164.602392 66.583344 
L 164.602392 66.545618 
L 164.548883 66.369926 
L 164.495375 66.383171 
L 164.227831 66.335717 
L 164.13865 66.110451 
L 164.120814 66.114855 
L 163.871107 66.100225 
L 163.871107 66.08111 
L 163.781926 65.969165 
L 163.76409 65.973569 
L 163.657073 65.90407 
L 163.550056 65.776623 
L 163.407366 65.715385 
L 163.318185 65.505305 
L 163.300349 65.50968 
L 163.282512 65.514056 
L 163.282512 65.417125 
L 163.193331 65.380721 
L 163.193331 65.419561 
L 163.175495 65.385088 
L 163.032805 65.322785 
L 162.925788 65.329523 
L 162.925788 65.251534 
L 162.836607 65.23432 
L 162.836607 65.175711 
L 162.337193 64.628685 
L 162.230176 64.376957 
L 162.158831 64.35439 
L 162.158831 64.294691 
L 162.051814 64.041047 
L 161.944797 64.026658 
L 161.944797 63.96657 
L 161.873452 63.883345 
L 161.837779 63.891867 
L 161.766435 63.808424 
L 161.659417 63.692954 
L 161.588072 63.649404 
L 161.588072 63.609009 
L 161.516728 63.403316 
L 161.481055 63.411763 
L 161.427547 63.404154 
L 161.427547 63.322948 
L 161.356202 63.177071 
L 161.320529 63.18548 
L 161.160003 63.14177 
L 161.160003 63.121353 
L 161.052986 62.900994 
L 160.910297 62.83184 
L 160.803279 62.712881 
L 160.714098 62.630622 
L 160.607081 62.531607 
L 160.500064 62.452995 
L 160.393046 62.166066 
L 160.357374 62.153481 
L 160.357374 62.070045 
L 160.250357 61.843736 
L 160.107667 61.771605 
L 160.00065 61.627851 
L 159.893633 61.546885 
L 159.786615 61.35981 
L 159.626089 61.311517 
L 159.626089 61.290281 
L 159.536908 61.204257 
L 159.519072 61.20831 
L 159.34071 61.142279 
L 159.287201 61.069007 
L 159.233693 61.081149 
L 159.019658 61.022706 
L 158.912641 60.789136 
L 158.859132 60.736588 
L 158.859132 60.693466 
L 158.752115 60.50146 
L 158.662934 60.413107 
L 158.591589 60.385676 
L 158.555917 60.393663 
L 158.466736 60.326681 
L 158.466736 60.304922 
L 157.913813 59.903044 
L 157.771124 59.824601 
L 157.753287 59.762372 
L 157.681943 59.778182 
L 157.485744 59.75539 
L 157.485744 59.711115 
L 157.396563 59.486769 
L 157.325218 59.435749 
L 157.325218 59.391215 
L 157.253874 59.139021 
L 157.218201 59.14681 
L 157.182529 59.109841 
L 157.182529 59.042647 
L 157.111184 58.83367 
L 157.075511 58.841395 
L 156.98633 58.770653 
L 156.98633 58.748118 
L 156.932822 58.624286 
L 156.879313 58.635818 
L 156.736623 58.553443 
L 156.718787 58.489289 
L 156.629606 58.508471 
L 156.451244 58.455995 
L 156.451244 58.433247 
L 156.362063 58.201603 
L 156.344227 58.205414 
L 156.290718 58.171136 
L 156.290718 58.125389 
L 156.201537 58.029862 
L 156.183701 58.033658 
L 156.076684 57.964604 
L 155.969666 57.941372 
L 155.916158 57.906707 
L 155.916158 57.86063 
L 155.880485 57.822085 
L 155.809141 57.837218 
L 155.57727 57.817153 
L 155.57727 57.794013 
L 155.470253 57.700875 
L 155.381072 57.696581 
L 155.381072 57.626895 
L 155.274054 57.463281 
L 155.095692 57.407486 
L 154.988675 57.336432 
L 154.935166 57.347695 
L 154.91733 57.257668 
L 154.845985 57.061113 
L 154.810313 57.06856 
L 154.310899 56.675464 
L 154.079028 56.628199 
L 153.989847 56.527244 
L 153.864994 56.481242 
L 153.864994 56.457287 
L 153.775813 56.331717 
L 153.757976 56.335384 
L 153.668795 56.281586 
L 153.668795 56.257521 
L 153.579614 56.20355 
L 153.561778 56.207207 
L 153.383416 56.14721 
L 153.294235 56.068689 
L 153.276399 56.072339 
L 153.151545 56.025148 
L 153.151545 56.000876 
L 153.044528 55.876856 
L 152.794821 55.830214 
L 152.687804 55.754234 
L 152.420261 55.710666 
L 152.313244 55.461739 
L 152.063537 55.413423 
L 151.974356 55.357176 
L 151.956519 55.360778 
L 151.831666 55.286751 
L 151.724649 55.13417 
L 151.653304 55.148501 
L 151.635468 55.052307 
L 151.546286 54.995213 
L 151.52845 54.998781 
L 151.403597 54.923607 
L 151.314416 54.790811 
L 151.29658 54.79436 
L 151.207399 54.736635 
L 151.207399 54.711456 
L 151.118217 54.451481 
L 151.100381 54.454989 
L 150.886347 54.395768 
L 150.797166 54.31171 
L 150.779329 54.31521 
L 150.725821 54.249377 
L 150.725821 54.223913 
L 150.672312 54.157915 
L 150.618804 54.168368 
L 150.369097 54.16614 
L 150.369097 54.114959 
L 150.262079 53.853569 
L 150.101554 53.78165 
L 150.012372 53.669813 
L 149.994536 53.67325 
L 149.762666 53.614401 
L 149.673484 53.423757 
L 149.655648 53.427172 
L 149.548631 53.369518 
L 149.548631 53.343445 
L 149.45945 53.177611 
L 149.441614 53.180998 
L 149.31676 53.099917 
L 149.31676 53.073691 
L 149.209743 53.093967 
L 149.013545 53.025992 
L 148.977872 52.848164 
L 148.906527 52.861594 
L 148.79951 52.802413 
L 148.79951 52.775942 
L 148.710329 52.739703 
L 148.692493 52.743052 
L 148.407114 52.690405 
L 148.389277 52.61386 
L 148.300096 52.630582 
L 148.157407 52.577262 
L 148.157407 52.550532 
L 148.086062 52.43004 
L 148.050389 52.436693 
L 147.836355 52.369223 
L 147.729338 52.254517 
L 147.586648 52.17301 
L 147.515303 52.023806 
L 147.479631 52.030377 
L 147.212088 52.025448 
L 147.212088 51.971054 
L 146.73051 51.484447 
L 146.58782 51.427626 
L 146.58782 51.400041 
L 146.498639 51.250325 
L 146.480803 51.253528 
L 146.35595 51.192826 
L 146.35595 51.165089 
L 146.017062 50.863445 
L 145.642501 50.845859 
L 145.642501 50.817781 
L 145.642501 50.789694 
L 145.535484 50.808678 
L 145.374958 50.724515 
L 145.321449 50.649319 
L 145.267941 50.658774 
L 145.018234 50.618029 
L 145.000398 50.56446 
L 144.911217 50.580212 
L 144.697182 50.532737 
L 144.590165 50.437568 
L 144.51882 50.392992 
L 144.51882 50.364401 
L 144.483148 50.284806 
L 144.411803 50.297299 
L 144.179932 50.251837 
L 144.072915 50.213049 
L 143.948061 50.148418 
L 143.948061 50.090683 
L 143.841044 50.109354 
L 143.573501 50.069235 
L 143.502156 50.023642 
L 143.466484 50.029871 
L 143.181104 49.992419 
L 143.074087 49.865058 
L 142.913561 49.834426 
L 142.913561 49.80511 
L 142.913561 49.775782 
L 142.806544 49.794364 
L 142.663854 49.760382 
L 142.663854 49.730955 
L 142.592509 49.654941 
L 142.556837 49.661113 
L 142.467656 49.617505 
L 142.467656 49.58796 
L 142.431983 49.475789 
L 142.360639 49.488043 
L 141.968242 49.466514 
L 141.896897 49.329763 
L 141.861225 49.335877 
L 141.629354 49.285929 
L 141.522337 49.154261 
L 141.397483 49.115402 
L 141.397483 49.085303 
L 141.290466 48.922507 
L 141.165613 48.852829 
L 141.058595 48.658455 
L 140.933742 48.587976 
L 140.844561 48.328029 
L 140.826725 48.330952 
L 140.808888 48.333877 
L 140.808888 48.242043 
L 140.791052 48.122325 
L 140.701871 48.136785 
L 140.559181 48.067678 
L 140.452164 47.930798 
L 140.131112 47.889626 
L 140.131112 47.858613 
L 140.024095 47.875828 
L 139.917078 47.893082 
L 139.917078 47.799779 
L 139.827897 47.720615 
L 139.810061 47.723468 
L 139.453336 47.686804 
L 139.417664 47.567051 
L 139.346319 47.578415 
L 139.257138 47.592645 
L 139.257138 47.498263 
L 139.239302 47.438103 
L 139.150121 47.452227 
L 138.829069 47.408334 
L 138.722052 47.266643 
L 138.561526 47.19645 
L 138.54369 47.135499 
L 138.454509 47.149471 
L 138.329655 47.073148 
L 138.240474 46.990971 
L 138.222638 46.993747 
L 138.02644 46.960072 
L 138.02644 46.927909 
L 138.02644 46.895734 
L 137.919422 46.912348 
L 137.776733 46.837714 
L 137.758897 46.743498 
L 137.669715 46.757247 
L 137.562698 46.676493 
L 137.455681 46.530376 
L 136.777905 46.53607 
L 136.742233 46.443012 
L 136.670888 46.453924 
L 136.456853 46.387811 
L 136.367672 46.335353 
L 136.349836 46.338072 
L 136.064457 46.282165 
L 135.975276 46.195997 
L 135.957439 46.198703 
L 135.796913 46.123024 
L 135.689896 46.005445 
L 135.52937 45.92895 
L 135.440189 45.841443 
L 135.422353 45.844101 
L 135.261827 45.766878 
L 135.190482 45.540711 
L 135.15481 45.545929 
L 134.958612 45.472771 
L 134.940775 45.407335 
L 134.851594 45.420301 
L 134.744577 45.367657 
L 134.744577 45.333517 
L 134.744577 45.299362 
L 134.63756 45.314838 
L 134.370017 45.285071 
L 134.370017 45.250735 
L 134.316508 44.810542 
L 134.262999 44.818034 
L 134.138146 44.731633 
L 134.031129 44.572876 
L 133.852767 44.458022 
L 133.620896 44.384807 
L 133.620896 44.349764 
L 133.513879 44.364345 
L 133.299844 44.32324 
L 133.299844 44.288028 
L 133.264172 44.222382 
L 133.192827 44.232042 
L 132.996629 44.152518 
L 132.907448 43.880488 
L 132.889611 43.882844 
L 132.675577 43.804137 
L 132.675577 43.76842 
L 132.56856 43.78248 
L 132.336689 43.741312 
L 132.336689 43.705412 
L 132.301016 43.638213 
L 132.229672 43.647521 
L 132.158327 43.584791 
L 132.158327 43.54874 
L 132.051309 43.41809 
L 131.90862 43.327681 
L 131.872947 43.2233 
L 131.801603 43.232322 
L 131.62324 43.145559 
L 131.569732 43.0427 
L 131.516223 43.049381 
L 130.891956 43.017365 
L 130.784939 42.919931 
L 130.535232 42.839782 
L 130.535232 42.728269 
L 130.428214 42.741427 
L 130.21418 42.693142 
L 130.21418 42.618369 
L 130.107163 42.631444 
L 129.982309 42.571698 
L 129.893128 42.432123 
L 129.875292 42.43427 
L 129.625585 42.464424 
L 129.625585 42.426649 
L 129.589913 42.31748 
L 129.518568 42.326009 
L 129.393714 42.265058 
L 129.358042 42.193294 
L 129.286697 42.201743 
L 129.251025 42.167891 
L 129.251025 42.129791 
L 129.161844 41.83455 
L 129.144007 41.836589 
L 128.929973 41.822729 
L 128.805119 41.721555 
L 128.501904 41.67873 
L 128.501904 41.640018 
L 128.394887 41.652123 
L 128.287869 41.664262 
L 128.287869 41.586581 
L 128.234361 41.514808 
L 128.180852 41.520796 
L 127.824128 41.48266 
L 127.770619 41.37104 
L 127.717111 41.376971 
L 127.289042 41.345743 
L 127.19986 41.197318 
L 127.182024 41.199271 
L 126.700447 41.172563 
L 126.593429 41.024327 
L 126.290214 40.976839 
L 126.201033 40.865561 
L 126.183197 40.867466 
L 125.915653 40.815142 
L 125.808636 40.745365 
L 125.719455 40.71414 
L 125.719455 40.673446 
L 125.683783 40.59571 
L 125.612438 40.603144 
L 125.41624 40.541815 
L 125.309222 40.4709 
L 125.113024 40.408841 
L 125.077352 40.288801 
L 125.006007 40.296014 
L 124.970334 40.299625 
L 124.970334 40.216944 
L 124.952498 40.135952 
L 124.863317 40.144807 
L 124.667119 40.081192 
L 124.667119 40.039575 
L 124.560101 40.050112 
L 124.132032 40.008684 
L 124.025015 39.851 
L 123.882326 39.780413 
L 123.793144 39.6197 
L 123.775308 39.621376 
L 123.472093 39.564864 
L 123.400748 39.486251 
L 123.365075 39.489559 
L 122.972679 39.440284 
L 122.865662 39.364119 
L 122.598118 39.302264 
L 122.598118 39.258982 
L 122.491101 39.268701 
L 121.938179 39.231972 
L 121.938179 39.188229 
L 121.831161 39.197939 
L 121.581454 39.132724 
L 121.492273 38.964321 
L 121.474437 38.965892 
L 121.135549 38.951507 
L 121.135549 38.907089 
L 121.117713 38.819727 
L 121.028532 38.827455 
L 120.975023 38.787513 
L 120.975023 38.742902 
L 120.885842 38.526863 
L 120.868006 38.528338 
L 120.760989 38.49232 
L 120.760989 38.44741 
L 120.70748 38.361827 
L 120.653972 38.366142 
L 120.546954 38.284531 
L 120.546954 38.194176 
L 120.439937 38.202577 
L 119.904851 38.153695 
L 119.904851 38.062308 
L 119.797834 38.070588 
L 119.441109 38.006279 
L 119.29842 37.924894 
L 118.727661 37.875357 
L 118.727661 37.828684 
L 118.620644 37.836747 
L 117.889359 37.797963 
L 117.889359 37.750627 
L 117.782342 37.758672 
L 117.657488 37.673011 
L 117.568307 37.58432 
L 117.550471 37.585621 
L 117.158075 37.518416 
L 117.068893 37.428631 
L 117.051057 37.4299 
L 116.462462 37.374931 
L 116.462462 37.326261 
L 116.373281 37.332536 
L 116.159247 37.24979 
L 116.123574 37.154222 
L 116.05223 37.159079 
L 115.677669 37.085915 
L 115.677669 37.036451 
L 115.570652 37.043596 
L 114.821531 36.993948 
L 114.73235 36.848955 
L 114.714514 36.85011 
L 114.286445 36.776508 
L 114.250772 36.677102 
L 114.179428 36.681564 
L 113.84054 36.600416 
L 113.769195 36.450681 
L 113.733522 36.452798 
L 113.376798 36.37053 
L 113.305453 36.270882 
L 113.269781 36.27291 
L 112.288789 36.22394 
L 112.235281 36.12106 
L 112.181772 36.124026 
L 111.86072 36.035198 
L 111.86072 35.981781 
L 111.753703 35.987504 
L 111.682358 35.884075 
L 111.682358 35.830398 
L 111.575341 35.835863 
L 111.361306 35.792849 
L 111.361306 35.73881 
L 111.361306 35.684738 
L 111.254289 35.689967 
L 110.326806 35.62592 
L 110.30897 35.516416 
L 110.219789 35.520592 
L 109.987918 35.420377 
L 109.987918 35.364756 
L 109.880901 35.369512 
L 109.506341 35.330172 
L 109.506341 35.274002 
L 109.399323 35.278628 
L 108.436168 35.263781 
L 108.364823 35.037051 
L 108.329151 35.03847 
L 108.23997 35.042025 
L 108.23997 34.984334 
L 108.222134 34.869495 
L 108.132952 34.872781 
L 108.079444 34.874758 
L 108.079444 34.816783 
L 108.008099 34.703131 
L 107.972427 34.70434 
L 107.758392 34.653194 
L 107.758392 34.59472 
L 107.651375 34.598155 
L 107.134125 34.555755 
L 107.134125 34.496516 
L 107.027107 34.499795 
L 106.723892 34.449419 
L 106.723892 34.38964 
L 106.616875 34.392728 
L 105.903426 34.352876 
L 105.867754 34.232157 
L 105.814245 34.233563 
L 105.118633 34.190281 
L 105.118633 34.128411 
L 105.011616 34.13105 
L 104.744073 34.137695 
L 104.744073 34.075324 
L 104.744073 34.012909 
L 104.637055 34.015323 
L 102.817762 33.993053 
L 102.728581 33.734419 
L 102.710745 33.734735 
L 101.105486 33.696597 
L 101.08765 33.561582 
L 100.998469 33.56289 
L 100.659581 33.499534 
L 100.659581 33.431112 
L 100.552563 33.432393 
L 99.946132 33.370215 
L 99.946132 33.300609 
L 99.839115 33.301601 
L 98.768942 33.240277 
L 98.768942 33.168701 
L 98.661925 33.1694 
L 95.986494 33.111591 
L 95.986494 33.035067 
L 95.879477 33.035466 
L 89.387096 32.973096 
L 89.387096 32.881818 
L 89.280079 32.881818 
L 54.802686 32.881818 
L 54.802686 32.881818 
" clip-path="url(#pc9ad6994da)" style="fill: none; stroke: #1f77b4; stroke-width: 1.5; stroke-linecap: square"/>
   </g>
   <g id="line2d_11">
    <path d="M 194.656405 167.318182 
L 194.456821 148.552971 
L 194.101265 141.604494 
L 193.722785 136.181011 
L 193.321854 132.382767 
L 192.898944 129.415038 
L 192.454529 126.500493 
L 191.989082 123.657261 
L 191.503076 120.90988 
L 190.996984 118.282848 
L 190.47128 115.799924 
L 189.926437 113.483395 
L 189.362927 111.353351 
L 188.781225 109.427004 
L 188.181802 107.718097 
L 187.565133 106.23644 
L 186.93169 104.987606 
L 186.281947 103.972793 
L 185.616376 103.07327 
L 184.935451 102.170131 
L 184.239645 101.263242 
L 183.529432 100.352473 
L 182.805284 99.437693 
L 182.067674 98.518773 
L 181.317076 97.595589 
L 180.553963 96.668014 
L 179.778808 95.735929 
L 178.992084 94.799216 
L 178.194264 93.857759 
L 177.385821 92.911448 
L 176.56723 91.960179 
L 175.738962 91.003849 
L 174.90149 90.042365 
L 174.055289 89.075638 
L 173.200832 88.103588 
L 172.33859 87.126141 
L 171.469038 86.143234 
L 170.592649 85.154812 
L 169.709895 84.160833 
L 168.821251 83.161264 
L 167.927189 82.156089 
L 167.028182 81.145302 
L 166.117588 80.13113 
L 165.169203 79.12182 
L 164.182004 78.117695 
L 163.157661 77.118246 
L 162.097845 76.122976 
L 161.004227 75.131396 
L 159.878476 74.14303 
L 158.722265 73.157415 
L 157.537262 72.174099 
L 156.325139 71.192644 
L 155.087567 70.212626 
L 153.826215 69.233638 
L 152.542755 68.255289 
L 151.238856 67.277209 
L 149.916191 66.299049 
L 148.576429 65.320484 
L 147.22124 64.341215 
L 145.852296 63.360977 
L 144.471266 62.379536 
L 143.079822 61.3967 
L 141.679635 60.412319 
L 140.272373 59.426292 
L 138.859709 58.438578 
L 137.423903 57.454166 
L 135.939905 56.479631 
L 134.412114 55.513846 
L 132.845189 54.555701 
L 131.243787 53.604176 
L 129.612566 52.658345 
L 127.956182 51.717391 
L 126.279294 50.780615 
L 124.586559 49.847453 
L 122.882634 48.917496 
L 121.172176 47.990512 
L 119.459844 47.066476 
L 117.750295 46.145602 
L 116.048185 45.228378 
L 114.358174 44.315616 
L 112.684917 43.408495 
L 111.033073 42.508622 
L 109.501788 41.603739 
L 108.241726 40.679163 
L 107.201212 39.754508 
L 106.323914 38.848576 
L 105.553501 37.977712 
L 104.833644 37.155277 
L 104.108012 36.39151 
L 103.320273 35.693707 
L 102.414098 35.066652 
L 101.333156 34.513218 
L 100.021116 34.0351 
L 98.421648 33.633664 
L 96.47842 33.310992 
L 94.135103 33.071309 
L 91.335366 32.923247 
L 88.022878 32.881818 
L 84.141309 32.881818 
L 54.802686 32.881818 
" clip-path="url(#pc9ad6994da)" style="fill: none; stroke: #ff7f0e; stroke-width: 1.5; stroke-linecap: square"/>
   </g>
   <g id="patch_3">
    <path d="M 47.81 174.04 
L 47.81 26.16 
" style="fill: none; stroke: #000000; stroke-width: 0.8; stroke-linejoin: miter; stroke-linecap: square"/>
   </g>
   <g id="patch_4">
    <path d="M 201.649091 174.04 
L 201.649091 26.16 
" style="fill: none; stroke: #000000; stroke-width: 0.8; stroke-linejoin: miter; stroke-linecap: square"/>
   </g>
   <g id="patch_5">
    <path d="M 47.81 174.04 
L 201.649091 174.04 
" style="fill: none; stroke: #000000; stroke-width: 0.8; stroke-linejoin: miter; stroke-linecap: square"/>
   </g>
   <g id="patch_6">
    <path d="M 47.81 26.16 
L 201.649091 26.16 
" style="fill: none; stroke: #000000; stroke-width: 0.8; stroke-linejoin: miter; stroke-linecap: square"/>
   </g>
   <g id="text_12">
    <!-- PR curve -->
    <g transform="translate(98.224545 20.16) scale(0.12 -0.12)">
     <defs>
      <path id="DejaVuSans-20" transform="scale(0.015625)"/>
      <path id="DejaVuSans-75" d="M 544 1381 
L 544 3500 
L 1119 3500 
L 1119 1403 
Q 1119 906 1312 657 
Q 1506 409 1894 409 
Q 2359 409 2629 706 
Q 2900 1003 2900 1516 
L 2900 3500 
L 3475 3500 
L 3475 0 
L 2900 0 
L 2900 538 
Q 2691 219 2414 64 
Q 2138 -91 1772 -91 
Q 1169 -91 856 284 
Q 544 659 544 1381 
z
M 1991 3584 
L 1991 3584 
z
" transform="scale(0.015625)"/>
      <path id="DejaVuSans-76" d="M 191 3500 
L 800 3500 
L 1894 563 
L 2988 3500 
L 3597 3500 
L 2284 0 
L 1503 0 
L 191 3500 
z
" transform="scale(0.015625)"/>
     </defs>
     <use xlink:href="#DejaVuSans-50"/>
     <use xlink:href="#DejaVuSans-52" transform="translate(60.302734 0)"/>
     <use xlink:href="#DejaVuSans-20" transform="translate(129.785156 0)"/>
     <use xlink:href="#DejaVuSans-63" transform="translate(161.572266 0)"/>
     <use xlink:href="#DejaVuSans-75" transform="translate(216.552734 0)"/>
     <use xlink:href="#DejaVuSans-72" transform="translate(279.931641 0)"/>
     <use xlink:href="#DejaVuSans-76" transform="translate(321.044922 0)"/>
     <use xlink:href="#DejaVuSans-65" transform="translate(380.224609 0)"/>
    </g>
   </g>
   <g id="legend_1">
    <g id="patch_7">
     <path d="M 54.81 169.04 
L 138.114688 169.04 
Q 140.114688 169.04 140.114688 167.04 
L 140.114688 138.68375 
Q 140.114688 136.68375 138.114688 136.68375 
L 54.81 136.68375 
Q 52.81 136.68375 52.81 138.68375 
L 52.81 167.04 
Q 52.81 169.04 54.81 169.04 
z
" style="fill: #ffffff; opacity: 0.8; stroke: #cccccc; stroke-linejoin: miter"/>
    </g>
    <g id="line2d_12">
     <path d="M 56.81 144.782188 
L 66.81 144.782188 
L 76.81 144.782188 
" style="fill: none; stroke: #1f77b4; stroke-width: 1.5; stroke-linecap: square"/>
    </g>
    <g id="text_13">
     <!-- True PR -->
     <g transform="translate(84.81 148.282188) scale(0.1 -0.1)">
      <defs>
       <path id="DejaVuSans-54" d="M -19 4666 
L 3928 4666 
L 3928 4134 
L 2272 4134 
L 2272 0 
L 1638 0 
L 1638 4134 
L -19 4134 
L -19 4666 
z
" transform="scale(0.015625)"/>
      </defs>
      <use xlink:href="#DejaVuSans-54"/>
      <use xlink:href="#DejaVuSans-72" transform="translate(46.333984 0)"/>
      <use xlink:href="#DejaVuSans-75" transform="translate(87.447266 0)"/>
      <use xlink:href="#DejaVuSans-65" transform="translate(150.826172 0)"/>
      <use xlink:href="#DejaVuSans-20" transform="translate(212.349609 0)"/>
      <use xlink:href="#DejaVuSans-50" transform="translate(244.136719 0)"/>
      <use xlink:href="#DejaVuSans-52" transform="translate(304.439453 0)"/>
     </g>
    </g>
    <g id="line2d_13">
     <path d="M 56.81 159.460313 
L 66.81 159.460313 
L 76.81 159.460313 
" style="fill: none; stroke: #ff7f0e; stroke-width: 1.5; stroke-linecap: square"/>
    </g>
    <g id="text_14">
     <!-- Approx PR -->
     <g transform="translate(84.81 162.960313) scale(0.1 -0.1)">
      <defs>
       <path id="DejaVuSans-41" d="M 2188 4044 
L 1331 1722 
L 3047 1722 
L 2188 4044 
z
M 1831 4666 
L 2547 4666 
L 4325 0 
L 3669 0 
L 3244 1197 
L 1141 1197 
L 716 0 
L 50 0 
L 1831 4666 
z
" transform="scale(0.015625)"/>
       <path id="DejaVuSans-70" d="M 1159 525 
L 1159 -1331 
L 581 -1331 
L 581 3500 
L 1159 3500 
L 1159 2969 
Q 1341 3281 1617 3432 
Q 1894 3584 2278 3584 
Q 2916 3584 3314 3078 
Q 3713 2572 3713 1747 
Q 3713 922 3314 415 
Q 2916 -91 2278 -91 
Q 1894 -91 1617 61 
Q 1341 213 1159 525 
z
M 3116 1747 
Q 3116 2381 2855 2742 
Q 2594 3103 2138 3103 
Q 1681 3103 1420 2742 
Q 1159 2381 1159 1747 
Q 1159 1113 1420 752 
Q 1681 391 2138 391 
Q 2594 391 2855 752 
Q 3116 1113 3116 1747 
z
" transform="scale(0.015625)"/>
       <path id="DejaVuSans-78" d="M 3513 3500 
L 2247 1797 
L 3578 0 
L 2900 0 
L 1881 1375 
L 863 0 
L 184 0 
L 1544 1831 
L 300 3500 
L 978 3500 
L 1906 2253 
L 2834 3500 
L 3513 3500 
z
" transform="scale(0.015625)"/>
      </defs>
      <use xlink:href="#DejaVuSans-41"/>
      <use xlink:href="#DejaVuSans-70" transform="translate(68.408203 0)"/>
      <use xlink:href="#DejaVuSans-70" transform="translate(131.884766 0)"/>
      <use xlink:href="#DejaVuSans-72" transform="translate(195.361328 0)"/>
      <use xlink:href="#DejaVuSans-6f" transform="translate(234.224609 0)"/>
      <use xlink:href="#DejaVuSans-78" transform="translate(292.28125 0)"/>
      <use xlink:href="#DejaVuSans-20" transform="translate(351.460938 0)"/>
      <use xlink:href="#DejaVuSans-50" transform="translate(383.248047 0)"/>
      <use xlink:href="#DejaVuSans-52" transform="translate(443.550781 0)"/>
     </g>
    </g>
   </g>
  </g>
 </g>
 <defs>
  <clipPath id="pc9ad6994da">
   <rect x="47.81" y="26.16" width="153.839091" height="147.88"/>
  </clipPath>
 </defs>
</svg>
