<?xml version="1.0" encoding="utf-8" standalone="no"?>
<!DOCTYPE svg PUBLIC "-//W3C//DTD SVG 1.1//EN"
  "http://www.w3.org/Graphics/SVG/1.1/DTD/svg11.dtd">
<svg xmlns:xlink="http://www.w3.org/1999/xlink" width="216pt" height="216pt" viewBox="0 0 216 216" xmlns="http://www.w3.org/2000/svg" version="1.1">
 <metadata>
  <rdf:RDF xmlns:dc="http://purl.org/dc/elements/1.1/" xmlns:cc="http://creativecommons.org/ns#" xmlns:rdf="http://www.w3.org/1999/02/22-rdf-syntax-ns#">
   <cc:Work>
    <dc:type rdf:resource="http://purl.org/dc/dcmitype/StillImage"/>
    <dc:date>2025-09-23T20:23:18.937779</dc:date>
    <dc:format>image/svg+xml</dc:format>
    <dc:creator>
     <cc:Agent>
      <dc:title>Matplotlib v3.10.1, https://matplotlib.org/</dc:title>
     </cc:Agent>
    </dc:creator>
   </cc:Work>
  </rdf:RDF>
 </metadata>
 <defs>
  <style type="text/css">*{stroke-linejoin: round; stroke-linecap: butt}</style>
 </defs>
 <g id="figure_1">
  <g id="patch_1">
   <path d="M 0 216 
L 216 216 
L 216 0 
L 0 0 
z
" style="fill: #ffffff"/>
  </g>
  <g id="axes_1">
   <g id="patch_2">
    <path d="M 48.863 174.04 
L 201.649091 174.04 
L 201.649091 26.16 
L 48.863 26.16 
z
" style="fill: #ffffff"/>
   </g>
   <g id="matplotlib.axis_1">
    <g id="xtick_1">
     <g id="line2d_1">
      <path d="M 55.807822 174.04 
L 55.807822 26.16 
" clip-path="url(#p7ffd3a3d8e)" style="fill: none; stroke: #b0b0b0; stroke-width: 0.8; stroke-linecap: square"/>
     </g>
     <g id="line2d_2">
      <defs>
       <path id="m0c31d26587" d="M 0 0 
L 0 3.5 
" style="stroke: #000000; stroke-width: 0.8"/>
      </defs>
      <g>
       <use xlink:href="#m0c31d26587" x="55.807822" y="174.04" style="stroke: #000000; stroke-width: 0.8"/>
      </g>
     </g>
     <g id="text_1">
      <!-- 0.00 -->
      <g transform="translate(44.67501 188.638438) scale(0.1 -0.1)">
       <defs>
        <path id="DejaVuSans-30" d="M 2034 4250 
Q 1547 4250 1301 3770 
Q 1056 3291 1056 2328 
Q 1056 1369 1301 889 
Q 1547 409 2034 409 
Q 2525 409 2770 889 
Q 3016 1369 3016 2328 
Q 3016 3291 2770 3770 
Q 2525 4250 2034 4250 
z
M 2034 4750 
Q 2819 4750 3233 4129 
Q 3647 3509 3647 2328 
Q 3647 1150 3233 529 
Q 2819 -91 2034 -91 
Q 1250 -91 836 529 
Q 422 1150 422 2328 
Q 422 3509 836 4129 
Q 1250 4750 2034 4750 
z
" transform="scale(0.015625)"/>
        <path id="DejaVuSans-2e" d="M 684 794 
L 1344 794 
L 1344 0 
L 684 0 
L 684 794 
z
" transform="scale(0.015625)"/>
       </defs>
       <use xlink:href="#DejaVuSans-30"/>
       <use xlink:href="#DejaVuSans-2e" transform="translate(63.623047 0)"/>
       <use xlink:href="#DejaVuSans-30" transform="translate(95.410156 0)"/>
       <use xlink:href="#DejaVuSans-30" transform="translate(159.033203 0)"/>
      </g>
     </g>
    </g>
    <g id="xtick_2">
     <g id="line2d_3">
      <path d="M 90.531934 174.04 
L 90.531934 26.16 
" clip-path="url(#p7ffd3a3d8e)" style="fill: none; stroke: #b0b0b0; stroke-width: 0.8; stroke-linecap: square"/>
     </g>
     <g id="line2d_4">
      <g>
       <use xlink:href="#m0c31d26587" x="90.531934" y="174.04" style="stroke: #000000; stroke-width: 0.8"/>
      </g>
     </g>
     <g id="text_2">
      <!-- 0.25 -->
      <g transform="translate(79.399121 188.638438) scale(0.1 -0.1)">
       <defs>
        <path id="DejaVuSans-32" d="M 1228 531 
L 3431 531 
L 3431 0 
L 469 0 
L 469 531 
Q 828 903 1448 1529 
Q 2069 2156 2228 2338 
Q 2531 2678 2651 2914 
Q 2772 3150 2772 3378 
Q 2772 3750 2511 3984 
Q 2250 4219 1831 4219 
Q 1534 4219 1204 4116 
Q 875 4013 500 3803 
L 500 4441 
Q 881 4594 1212 4672 
Q 1544 4750 1819 4750 
Q 2544 4750 2975 4387 
Q 3406 4025 3406 3419 
Q 3406 3131 3298 2873 
Q 3191 2616 2906 2266 
Q 2828 2175 2409 1742 
Q 1991 1309 1228 531 
z
" transform="scale(0.015625)"/>
        <path id="DejaVuSans-35" d="M 691 4666 
L 3169 4666 
L 3169 4134 
L 1269 4134 
L 1269 2991 
Q 1406 3038 1543 3061 
Q 1681 3084 1819 3084 
Q 2600 3084 3056 2656 
Q 3513 2228 3513 1497 
Q 3513 744 3044 326 
Q 2575 -91 1722 -91 
Q 1428 -91 1123 -41 
Q 819 9 494 109 
L 494 744 
Q 775 591 1075 516 
Q 1375 441 1709 441 
Q 2250 441 2565 725 
Q 2881 1009 2881 1497 
Q 2881 1984 2565 2268 
Q 2250 2553 1709 2553 
Q 1456 2553 1204 2497 
Q 953 2441 691 2322 
L 691 4666 
z
" transform="scale(0.015625)"/>
       </defs>
       <use xlink:href="#DejaVuSans-30"/>
       <use xlink:href="#DejaVuSans-2e" transform="translate(63.623047 0)"/>
       <use xlink:href="#DejaVuSans-32" transform="translate(95.410156 0)"/>
       <use xlink:href="#DejaVuSans-35" transform="translate(159.033203 0)"/>
      </g>
     </g>
    </g>
    <g id="xtick_3">
     <g id="line2d_5">
      <path d="M 125.256045 174.04 
L 125.256045 26.16 
" clip-path="url(#p7ffd3a3d8e)" style="fill: none; stroke: #b0b0b0; stroke-width: 0.8; stroke-linecap: square"/>
     </g>
     <g id="line2d_6">
      <g>
       <use xlink:href="#m0c31d26587" x="125.256045" y="174.04" style="stroke: #000000; stroke-width: 0.8"/>
      </g>
     </g>
     <g id="text_3">
      <!-- 0.50 -->
      <g transform="translate(114.123233 188.638438) scale(0.1 -0.1)">
       <use xlink:href="#DejaVuSans-30"/>
       <use xlink:href="#DejaVuSans-2e" transform="translate(63.623047 0)"/>
       <use xlink:href="#DejaVuSans-35" transform="translate(95.410156 0)"/>
       <use xlink:href="#DejaVuSans-30" transform="translate(159.033203 0)"/>
      </g>
     </g>
    </g>
    <g id="xtick_4">
     <g id="line2d_7">
      <path d="M 159.980157 174.04 
L 159.980157 26.16 
" clip-path="url(#p7ffd3a3d8e)" style="fill: none; stroke: #b0b0b0; stroke-width: 0.8; stroke-linecap: square"/>
     </g>
     <g id="line2d_8">
      <g>
       <use xlink:href="#m0c31d26587" x="159.980157" y="174.04" style="stroke: #000000; stroke-width: 0.8"/>
      </g>
     </g>
     <g id="text_4">
      <!-- 0.75 -->
      <g transform="translate(148.847345 188.638438) scale(0.1 -0.1)">
       <defs>
        <path id="DejaVuSans-37" d="M 525 4666 
L 3525 4666 
L 3525 4397 
L 1831 0 
L 1172 0 
L 2766 4134 
L 525 4134 
L 525 4666 
z
" transform="scale(0.015625)"/>
       </defs>
       <use xlink:href="#DejaVuSans-30"/>
       <use xlink:href="#DejaVuSans-2e" transform="translate(63.623047 0)"/>
       <use xlink:href="#DejaVuSans-37" transform="translate(95.410156 0)"/>
       <use xlink:href="#DejaVuSans-35" transform="translate(159.033203 0)"/>
      </g>
     </g>
    </g>
    <g id="xtick_5">
     <g id="line2d_9">
      <path d="M 194.704269 174.04 
L 194.704269 26.16 
" clip-path="url(#p7ffd3a3d8e)" style="fill: none; stroke: #b0b0b0; stroke-width: 0.8; stroke-linecap: square"/>
     </g>
     <g id="line2d_10">
      <g>
       <use xlink:href="#m0c31d26587" x="194.704269" y="174.04" style="stroke: #000000; stroke-width: 0.8"/>
      </g>
     </g>
     <g id="text_5">
      <!-- 1.00 -->
      <g transform="translate(183.571456 188.638438) scale(0.1 -0.1)">
       <defs>
        <path id="DejaVuSans-31" d="M 794 531 
L 1825 531 
L 1825 4091 
L 703 3866 
L 703 4441 
L 1819 4666 
L 2450 4666 
L 2450 531 
L 3481 531 
L 3481 0 
L 794 0 
L 794 531 
z
" transform="scale(0.015625)"/>
       </defs>
       <use xlink:href="#DejaVuSans-31"/>
       <use xlink:href="#DejaVuSans-2e" transform="translate(63.623047 0)"/>
       <use xlink:href="#DejaVuSans-30" transform="translate(95.410156 0)"/>
       <use xlink:href="#DejaVuSans-30" transform="translate(159.033203 0)"/>
      </g>
     </g>
    </g>
    <g id="text_6">
     <!-- $s$ -->
     <g transform="translate(122.606045 202.316563) scale(0.1 -0.1)">
      <defs>
       <path id="DejaVuSans-Oblique-73" d="M 3200 3397 
L 3091 2853 
Q 2863 2978 2609 3040 
Q 2356 3103 2088 3103 
Q 1634 3103 1373 2948 
Q 1113 2794 1113 2528 
Q 1113 2219 1719 2053 
Q 1766 2041 1788 2034 
L 1972 1978 
Q 2547 1819 2739 1644 
Q 2931 1469 2931 1166 
Q 2931 609 2489 259 
Q 2047 -91 1331 -91 
Q 1053 -91 747 -37 
Q 441 16 72 128 
L 184 722 
Q 500 559 806 475 
Q 1113 391 1394 391 
Q 1816 391 2080 572 
Q 2344 753 2344 1031 
Q 2344 1331 1650 1516 
L 1591 1531 
L 1394 1581 
Q 956 1697 753 1886 
Q 550 2075 550 2369 
Q 550 2928 970 3256 
Q 1391 3584 2113 3584 
Q 2397 3584 2667 3537 
Q 2938 3491 3200 3397 
z
" transform="scale(0.015625)"/>
      </defs>
      <use xlink:href="#DejaVuSans-Oblique-73"/>
     </g>
    </g>
   </g>
   <g id="matplotlib.axis_2">
    <g id="ytick_1">
     <g id="line2d_11">
      <path d="M 48.863 167.318182 
L 201.649091 167.318182 
" clip-path="url(#p7ffd3a3d8e)" style="fill: none; stroke: #b0b0b0; stroke-width: 0.8; stroke-linecap: square"/>
     </g>
     <g id="line2d_12">
      <defs>
       <path id="mf2455d1693" d="M 0 0 
L -3.5 0 
" style="stroke: #000000; stroke-width: 0.8"/>
      </defs>
      <g>
       <use xlink:href="#mf2455d1693" x="48.863" y="167.318182" style="stroke: #000000; stroke-width: 0.8"/>
      </g>
     </g>
     <g id="text_7">
      <!-- 0.0 -->
      <g transform="translate(25.959875 171.117401) scale(0.1 -0.1)">
       <use xlink:href="#DejaVuSans-30"/>
       <use xlink:href="#DejaVuSans-2e" transform="translate(63.623047 0)"/>
       <use xlink:href="#DejaVuSans-30" transform="translate(95.410156 0)"/>
      </g>
     </g>
    </g>
    <g id="ytick_2">
     <g id="line2d_13">
      <path d="M 48.863 140.430909 
L 201.649091 140.430909 
" clip-path="url(#p7ffd3a3d8e)" style="fill: none; stroke: #b0b0b0; stroke-width: 0.8; stroke-linecap: square"/>
     </g>
     <g id="line2d_14">
      <g>
       <use xlink:href="#mf2455d1693" x="48.863" y="140.430909" style="stroke: #000000; stroke-width: 0.8"/>
      </g>
     </g>
     <g id="text_8">
      <!-- 0.2 -->
      <g transform="translate(25.959875 144.230128) scale(0.1 -0.1)">
       <use xlink:href="#DejaVuSans-30"/>
       <use xlink:href="#DejaVuSans-2e" transform="translate(63.623047 0)"/>
       <use xlink:href="#DejaVuSans-32" transform="translate(95.410156 0)"/>
      </g>
     </g>
    </g>
    <g id="ytick_3">
     <g id="line2d_15">
      <path d="M 48.863 113.543636 
L 201.649091 113.543636 
" clip-path="url(#p7ffd3a3d8e)" style="fill: none; stroke: #b0b0b0; stroke-width: 0.8; stroke-linecap: square"/>
     </g>
     <g id="line2d_16">
      <g>
       <use xlink:href="#mf2455d1693" x="48.863" y="113.543636" style="stroke: #000000; stroke-width: 0.8"/>
      </g>
     </g>
     <g id="text_9">
      <!-- 0.4 -->
      <g transform="translate(25.959875 117.342855) scale(0.1 -0.1)">
       <defs>
        <path id="DejaVuSans-34" d="M 2419 4116 
L 825 1625 
L 2419 1625 
L 2419 4116 
z
M 2253 4666 
L 3047 4666 
L 3047 1625 
L 3713 1625 
L 3713 1100 
L 3047 1100 
L 3047 0 
L 2419 0 
L 2419 1100 
L 313 1100 
L 313 1709 
L 2253 4666 
z
" transform="scale(0.015625)"/>
       </defs>
       <use xlink:href="#DejaVuSans-30"/>
       <use xlink:href="#DejaVuSans-2e" transform="translate(63.623047 0)"/>
       <use xlink:href="#DejaVuSans-34" transform="translate(95.410156 0)"/>
      </g>
     </g>
    </g>
    <g id="ytick_4">
     <g id="line2d_17">
      <path d="M 48.863 86.656364 
L 201.649091 86.656364 
" clip-path="url(#p7ffd3a3d8e)" style="fill: none; stroke: #b0b0b0; stroke-width: 0.8; stroke-linecap: square"/>
     </g>
     <g id="line2d_18">
      <g>
       <use xlink:href="#mf2455d1693" x="48.863" y="86.656364" style="stroke: #000000; stroke-width: 0.8"/>
      </g>
     </g>
     <g id="text_10">
      <!-- 0.6 -->
      <g transform="translate(25.959875 90.455582) scale(0.1 -0.1)">
       <defs>
        <path id="DejaVuSans-36" d="M 2113 2584 
Q 1688 2584 1439 2293 
Q 1191 2003 1191 1497 
Q 1191 994 1439 701 
Q 1688 409 2113 409 
Q 2538 409 2786 701 
Q 3034 994 3034 1497 
Q 3034 2003 2786 2293 
Q 2538 2584 2113 2584 
z
M 3366 4563 
L 3366 3988 
Q 3128 4100 2886 4159 
Q 2644 4219 2406 4219 
Q 1781 4219 1451 3797 
Q 1122 3375 1075 2522 
Q 1259 2794 1537 2939 
Q 1816 3084 2150 3084 
Q 2853 3084 3261 2657 
Q 3669 2231 3669 1497 
Q 3669 778 3244 343 
Q 2819 -91 2113 -91 
Q 1303 -91 875 529 
Q 447 1150 447 2328 
Q 447 3434 972 4092 
Q 1497 4750 2381 4750 
Q 2619 4750 2861 4703 
Q 3103 4656 3366 4563 
z
" transform="scale(0.015625)"/>
       </defs>
       <use xlink:href="#DejaVuSans-30"/>
       <use xlink:href="#DejaVuSans-2e" transform="translate(63.623047 0)"/>
       <use xlink:href="#DejaVuSans-36" transform="translate(95.410156 0)"/>
      </g>
     </g>
    </g>
    <g id="ytick_5">
     <g id="line2d_19">
      <path d="M 48.863 59.769091 
L 201.649091 59.769091 
" clip-path="url(#p7ffd3a3d8e)" style="fill: none; stroke: #b0b0b0; stroke-width: 0.8; stroke-linecap: square"/>
     </g>
     <g id="line2d_20">
      <g>
       <use xlink:href="#mf2455d1693" x="48.863" y="59.769091" style="stroke: #000000; stroke-width: 0.8"/>
      </g>
     </g>
     <g id="text_11">
      <!-- 0.8 -->
      <g transform="translate(25.959875 63.56831) scale(0.1 -0.1)">
       <defs>
        <path id="DejaVuSans-38" d="M 2034 2216 
Q 1584 2216 1326 1975 
Q 1069 1734 1069 1313 
Q 1069 891 1326 650 
Q 1584 409 2034 409 
Q 2484 409 2743 651 
Q 3003 894 3003 1313 
Q 3003 1734 2745 1975 
Q 2488 2216 2034 2216 
z
M 1403 2484 
Q 997 2584 770 2862 
Q 544 3141 544 3541 
Q 544 4100 942 4425 
Q 1341 4750 2034 4750 
Q 2731 4750 3128 4425 
Q 3525 4100 3525 3541 
Q 3525 3141 3298 2862 
Q 3072 2584 2669 2484 
Q 3125 2378 3379 2068 
Q 3634 1759 3634 1313 
Q 3634 634 3220 271 
Q 2806 -91 2034 -91 
Q 1263 -91 848 271 
Q 434 634 434 1313 
Q 434 1759 690 2068 
Q 947 2378 1403 2484 
z
M 1172 3481 
Q 1172 3119 1398 2916 
Q 1625 2713 2034 2713 
Q 2441 2713 2670 2916 
Q 2900 3119 2900 3481 
Q 2900 3844 2670 4047 
Q 2441 4250 2034 4250 
Q 1625 4250 1398 4047 
Q 1172 3844 1172 3481 
z
" transform="scale(0.015625)"/>
       </defs>
       <use xlink:href="#DejaVuSans-30"/>
       <use xlink:href="#DejaVuSans-2e" transform="translate(63.623047 0)"/>
       <use xlink:href="#DejaVuSans-38" transform="translate(95.410156 0)"/>
      </g>
     </g>
    </g>
    <g id="ytick_6">
     <g id="line2d_21">
      <path d="M 48.863 32.881818 
L 201.649091 32.881818 
" clip-path="url(#p7ffd3a3d8e)" style="fill: none; stroke: #b0b0b0; stroke-width: 0.8; stroke-linecap: square"/>
     </g>
     <g id="line2d_22">
      <g>
       <use xlink:href="#mf2455d1693" x="48.863" y="32.881818" style="stroke: #000000; stroke-width: 0.8"/>
      </g>
     </g>
     <g id="text_12">
      <!-- 1.0 -->
      <g transform="translate(25.959875 36.681037) scale(0.1 -0.1)">
       <use xlink:href="#DejaVuSans-31"/>
       <use xlink:href="#DejaVuSans-2e" transform="translate(63.623047 0)"/>
       <use xlink:href="#DejaVuSans-30" transform="translate(95.410156 0)"/>
      </g>
     </g>
    </g>
    <g id="text_13">
     <!-- $\Phi^{+}(s)$ -->
     <g transform="translate(19.880188 113.7) rotate(-90) scale(0.1 -0.1)">
      <defs>
       <path id="DejaVuSans-3a6" d="M 2206 3644 
Q 1738 3578 1431 3306 
Q 1025 2947 1025 2328 
Q 1025 1713 1431 1353 
Q 1738 1081 2206 1016 
L 2206 3644 
z
M 2838 1016 
Q 3306 1081 3613 1353 
Q 4013 1713 4013 2328 
Q 4013 2947 3613 3306 
Q 3306 3578 2838 3644 
L 2838 1016 
z
M 2206 494 
Q 1444 563 950 981 
Q 359 1481 359 2328 
Q 359 3175 950 3678 
Q 1441 4100 2206 4169 
L 2206 4666 
L 2838 4666 
L 2838 4169 
Q 3600 4097 4091 3678 
Q 4678 3175 4678 2328 
Q 4678 1484 4091 981 
Q 3600 563 2838 491 
L 2838 0 
L 2206 0 
L 2206 494 
z
" transform="scale(0.015625)"/>
       <path id="DejaVuSans-2b" d="M 2944 4013 
L 2944 2272 
L 4684 2272 
L 4684 1741 
L 2944 1741 
L 2944 0 
L 2419 0 
L 2419 1741 
L 678 1741 
L 678 2272 
L 2419 2272 
L 2419 4013 
L 2944 4013 
z
" transform="scale(0.015625)"/>
       <path id="DejaVuSans-28" d="M 1984 4856 
Q 1566 4138 1362 3434 
Q 1159 2731 1159 2009 
Q 1159 1288 1364 580 
Q 1569 -128 1984 -844 
L 1484 -844 
Q 1016 -109 783 600 
Q 550 1309 550 2009 
Q 550 2706 781 3412 
Q 1013 4119 1484 4856 
L 1984 4856 
z
" transform="scale(0.015625)"/>
       <path id="DejaVuSans-29" d="M 513 4856 
L 1013 4856 
Q 1481 4119 1714 3412 
Q 1947 2706 1947 2009 
Q 1947 1309 1714 600 
Q 1481 -109 1013 -844 
L 513 -844 
Q 928 -128 1133 580 
Q 1338 1288 1338 2009 
Q 1338 2731 1133 3434 
Q 928 4138 513 4856 
z
" transform="scale(0.015625)"/>
      </defs>
      <use xlink:href="#DejaVuSans-3a6" transform="translate(0 0.826562)"/>
      <use xlink:href="#DejaVuSans-2b" transform="translate(79.667969 39.107812) scale(0.7)"/>
      <use xlink:href="#DejaVuSans-28" transform="translate(141.054688 0.826562)"/>
      <use xlink:href="#DejaVuSans-Oblique-73" transform="translate(180.068359 0.826562)"/>
      <use xlink:href="#DejaVuSans-29" transform="translate(232.167969 0.826562)"/>
     </g>
    </g>
   </g>
   <g id="line2d_23">
    <path d="M 55.807822 167.318182 
L 57.845176 167.146729 
L 58.307485 167.061002 
L 59.817883 166.872404 
L 59.864719 166.838113 
L 62.200548 166.426626 
L 63.454363 166.169446 
L 64.516506 165.946557 
L 64.55125 165.912267 
L 66.709844 165.552215 
L 67.165647 165.483634 
L 68.076496 165.260745 
L 68.185808 165.192164 
L 69.214608 164.98642 
L 69.927205 164.69495 
L 70.469856 164.540642 
L 70.863582 164.369189 
L 71.338313 164.214881 
L 71.60643 164.112009 
L 72.585728 163.974847 
L 72.799098 163.88912 
L 74.182264 163.59765 
L 74.748427 163.409051 
L 78.070942 162.260316 
L 78.193147 162.174589 
L 79.06087 161.797392 
L 79.611622 161.40305 
L 79.90233 161.231597 
L 80.893684 160.82011 
L 80.926166 160.734383 
L 81.523932 160.511494 
L 81.684294 160.374332 
L 82.064205 160.185733 
L 82.206126 160.065716 
L 82.547811 159.911409 
L 84.025518 159.105579 
L 84.502455 158.951271 
L 87.921235 157.49392 
L 87.921578 157.476775 
L 88.282165 157.322467 
L 88.65899 157.099578 
L 89.392128 156.842398 
L 89.506734 156.790962 
L 90.218763 156.465202 
L 90.34492 156.345184 
L 91.813036 155.676517 
L 91.906993 155.625081 
L 92.749989 155.179303 
L 93.246539 154.836397 
L 93.543941 154.682089 
L 94.490899 154.16773 
L 95.101309 153.790533 
L 95.346778 153.653371 
L 95.727597 153.361901 
L 98.563728 151.870259 
L 98.863664 151.681661 
L 99.030553 151.561643 
L 99.486165 151.338754 
L 99.579368 151.253028 
L 99.897678 151.047284 
L 100.072748 150.84154 
L 100.249104 150.704378 
L 100.765967 150.275745 
L 100.994335 150.070002 
L 101.103438 149.96713 
L 101.771374 149.504206 
L 102.088082 149.349899 
L 102.207964 149.281317 
L 102.88855 149.058428 
L 102.958183 148.972702 
L 103.157075 148.818394 
L 103.335034 148.61265 
L 104.57737 147.943983 
L 104.772465 147.789675 
L 106.232213 146.452341 
L 106.527156 146.280888 
L 106.718071 146.195162 
L 108.140261 144.99499 
L 108.245813 144.874973 
L 108.489559 144.652084 
L 108.619347 144.549212 
L 108.957779 144.343468 
L 110.074368 143.623366 
L 110.350783 143.400477 
L 110.830092 143.109006 
L 111.803882 142.268886 
L 111.892106 142.18316 
L 112.019145 142.045997 
L 112.150858 141.805963 
L 112.463001 141.531638 
L 112.549651 141.37733 
L 112.910171 141.171586 
L 113.018832 141.103005 
L 113.261233 140.845826 
L 113.813794 140.485774 
L 114.065488 140.314321 
L 114.27763 140.142868 
L 115.185342 139.388474 
L 115.34286 139.234167 
L 115.851668 138.89126 
L 115.966653 138.754098 
L 116.742019 138.274029 
L 117.454068 137.639653 
L 117.783944 137.296747 
L 117.809787 137.262456 
L 118.126764 137.108148 
L 118.815637 136.456627 
L 120.304509 135.565071 
L 120.440664 135.479344 
L 120.627406 135.325036 
L 120.740603 135.290746 
L 120.847587 135.222164 
L 124.437248 132.564642 
L 124.644551 132.376043 
L 125.491737 131.62165 
L 125.612219 131.518778 
L 126.024954 131.295889 
L 126.408746 131.073 
L 126.51859 130.918692 
L 126.620313 130.850111 
L 126.793341 130.712948 
L 126.936822 130.644367 
L 127.484851 130.250025 
L 127.601103 130.112862 
L 127.917894 129.907119 
L 128.010923 129.752811 
L 128.347708 129.495631 
L 128.476809 129.42705 
L 128.730904 129.221306 
L 128.849846 129.118435 
L 129.197874 128.929836 
L 129.469123 128.706947 
L 129.739047 128.398332 
L 130.173257 127.918263 
L 131.541979 126.598074 
L 131.725753 126.392331 
L 131.861196 126.203732 
L 132.059243 125.980843 
L 132.238257 125.843681 
L 132.358797 125.689373 
L 132.542977 125.535065 
L 132.846829 125.295031 
L 135.263167 123.169013 
L 135.446221 122.963269 
L 135.684917 122.74038 
L 135.774271 122.620363 
L 135.992155 122.44891 
L 136.820953 121.90026 
L 136.97138 121.694516 
L 137.305515 121.437336 
L 137.53229 121.265883 
L 137.764711 121.09443 
L 138.229437 120.717233 
L 138.397457 120.54578 
L 138.541551 120.340037 
L 139.015359 119.979985 
L 140.308933 118.86554 
L 140.439276 118.642651 
L 140.662209 118.385471 
L 140.774371 118.265454 
L 141.239619 117.76824 
L 141.350788 117.699659 
L 142.021393 116.996701 
L 142.304787 116.602359 
L 142.465323 116.448052 
L 144.225718 115.076427 
L 144.304094 114.95641 
L 144.523699 114.784957 
L 144.642576 114.647794 
L 145.500606 113.653366 
L 145.951722 113.293315 
L 146.129354 113.104716 
L 146.391057 112.813246 
L 146.913429 112.075998 
L 147.053839 111.835964 
L 147.430196 111.493057 
L 147.554942 111.33875 
L 147.994923 110.910117 
L 148.178267 110.670083 
L 148.351701 110.49863 
L 148.435442 110.412903 
L 148.547463 110.258595 
L 148.646272 110.155723 
L 148.804605 110.018561 
L 149.409493 109.332749 
L 149.654721 109.195586 
L 150.63893 108.063996 
L 150.911959 107.909688 
L 151.017681 107.806816 
L 151.217566 107.583927 
L 151.370063 107.378183 
L 151.593766 107.17244 
L 151.730367 106.966696 
L 152.185515 106.486627 
L 152.339742 106.143721 
L 152.505353 105.989413 
L 152.695146 105.766524 
L 152.79859 105.680798 
L 152.926209 105.52649 
L 153.035416 105.372182 
L 153.248555 105.23502 
L 154.530274 103.897686 
L 154.792847 103.674797 
L 155.02069 103.434762 
L 155.406477 103.074711 
L 155.548518 102.868967 
L 155.649354 102.71466 
L 156.23756 101.960266 
L 156.468259 101.771668 
L 156.764891 101.411616 
L 156.918779 101.188727 
L 157.474076 100.588641 
L 157.65593 100.434334 
L 157.920969 100.211445 
L 159.161029 98.83982 
L 159.37118 98.651221 
L 159.48912 98.376896 
L 159.977731 97.708229 
L 160.095515 97.605358 
L 160.252648 97.433905 
L 160.415493 97.245306 
L 160.55385 97.056708 
L 160.654951 96.936691 
L 160.994973 96.662366 
L 161.121838 96.576639 
L 161.351759 96.319459 
L 161.975738 95.702228 
L 162.147881 95.530775 
L 162.321679 95.273596 
L 163.938121 93.233304 
L 164.169358 93.02756 
L 164.554524 92.47891 
L 164.878717 92.170295 
L 165.382519 91.433047 
L 165.666832 91.278739 
L 166.112782 90.747234 
L 166.301433 90.490055 
L 166.623117 90.181439 
L 166.785151 90.027131 
L 166.903522 89.872824 
L 167.500421 89.221302 
L 167.648968 89.066994 
L 167.764972 88.964122 
L 168.052266 88.758378 
L 168.26904 88.432618 
L 168.521603 88.106857 
L 168.638807 87.815386 
L 170.123044 86.255163 
L 170.293688 86.066565 
L 170.407936 85.929403 
L 170.862562 85.295026 
L 171.01674 84.95212 
L 171.183683 84.797812 
L 171.311178 84.626359 
L 171.455139 84.334889 
L 172.350905 83.494769 
L 172.898627 82.911828 
L 173.071614 82.688939 
L 173.186376 82.603213 
L 173.532358 82.328888 
L 173.635082 82.191725 
L 173.755946 82.020272 
L 173.758255 82.003127 
L 173.991778 81.865964 
L 174.975233 80.717229 
L 175.061358 80.614357 
L 175.338825 80.374323 
L 176.142016 79.294168 
L 176.511585 79.019843 
L 176.655099 78.934117 
L 176.770076 78.745518 
L 177.645369 77.939689 
L 178.033904 77.665364 
L 178.15115 77.545347 
L 178.352004 77.356748 
L 178.494806 77.253876 
L 178.84059 77.082423 
L 178.955608 76.945261 
L 179.364891 76.465192 
L 179.514266 76.276594 
L 179.803116 76.053705 
L 180.085384 75.77938 
L 180.468911 75.470764 
L 180.577 75.333602 
L 180.86845 75.110713 
L 181.45341 74.699226 
L 181.590028 74.459191 
L 181.938875 74.253447 
L 182.095329 74.064849 
L 182.523306 73.58478 
L 182.625103 73.481909 
L 182.895234 73.310456 
L 183.715198 72.727515 
L 184.1267 72.384609 
L 184.440966 72.178865 
L 184.630237 72.024557 
L 184.759404 71.921686 
L 186.119408 71.047275 
L 189.412164 68.904111 
L 189.71667 68.561205 
L 190.134852 68.132572 
L 190.257653 67.978265 
L 190.39769 67.806812 
L 191.881976 65.697939 
L 191.990901 65.457904 
L 192.09014 65.286451 
L 192.629426 64.103425 
L 192.905493 63.074706 
L 192.994549 62.851817 
L 193.313103 61.857389 
L 193.451145 61.205868 
L 193.698303 60.091423 
L 193.85325 59.148431 
L 193.906682 58.839815 
L 194.023753 57.98255 
L 194.136561 56.88525 
L 194.181234 56.3366 
L 194.313431 54.742086 
L 194.467302 51.775948 
L 194.68329 36.379461 
L 194.704269 32.881818 
L 194.704269 32.881818 
" clip-path="url(#p7ffd3a3d8e)" style="fill: none; stroke: #1f77b4; stroke-width: 1.5; stroke-linecap: square"/>
   </g>
   <g id="line2d_24">
    <path d="M 55.807822 167.318182 
L 57.210817 167.126329 
L 58.613811 166.784546 
L 60.016806 166.420727 
L 61.4198 166.035326 
L 62.822794 165.628798 
L 64.225789 165.201597 
L 65.628783 164.75418 
L 67.031778 164.287 
L 68.434772 163.800512 
L 69.837766 163.295172 
L 71.240761 162.771433 
L 72.643755 162.229752 
L 74.04675 161.670582 
L 75.449744 161.094378 
L 76.852738 160.501596 
L 78.255733 159.89269 
L 79.658727 159.268115 
L 81.061722 158.628326 
L 82.464716 157.973778 
L 83.86771 157.304925 
L 85.270705 156.622222 
L 86.673699 155.926124 
L 88.076694 155.217086 
L 89.479688 154.495563 
L 90.882682 153.76201 
L 92.285677 153.016881 
L 93.688671 152.260632 
L 95.091666 151.493716 
L 96.49466 150.716589 
L 97.897655 149.929706 
L 99.300649 149.133522 
L 100.703643 148.328491 
L 102.106638 147.515068 
L 103.509632 146.693709 
L 104.912627 145.864867 
L 106.315621 145.028998 
L 107.718615 144.186556 
L 109.12161 143.337997 
L 110.524604 142.483775 
L 111.927599 141.624345 
L 113.330593 140.760162 
L 114.733587 139.88484 
L 116.136582 138.973192 
L 117.539576 138.024233 
L 118.942571 137.039569 
L 120.345565 136.020806 
L 121.748559 134.96955 
L 123.151554 133.887407 
L 124.554548 132.775982 
L 125.957543 131.636881 
L 127.360537 130.471711 
L 128.763531 129.282077 
L 130.166526 128.069585 
L 131.56952 126.83584 
L 132.972515 125.58245 
L 134.375509 124.311019 
L 135.778504 123.023153 
L 137.181498 121.720459 
L 138.584492 120.404542 
L 139.987487 119.077008 
L 141.390481 117.739463 
L 142.793476 116.393513 
L 144.19647 115.040763 
L 145.599464 113.68282 
L 147.002459 112.302631 
L 148.405453 110.876116 
L 149.808448 109.407506 
L 151.211442 107.901277 
L 152.614436 106.361907 
L 154.017431 104.793872 
L 155.420425 103.20165 
L 156.82342 101.589718 
L 158.226414 99.962552 
L 159.629408 98.32463 
L 161.032403 96.680429 
L 162.435397 95.034425 
L 163.838392 93.391097 
L 165.241386 91.75492 
L 166.64438 90.130372 
L 168.047375 88.521931 
L 169.450369 86.934072 
L 170.853364 85.462103 
L 172.256358 84.250851 
L 173.659352 83.250642 
L 175.062347 82.407326 
L 176.465341 81.666757 
L 177.868336 80.974784 
L 179.27133 80.277259 
L 180.674325 79.520035 
L 182.077319 78.648961 
L 183.480313 77.60989 
L 184.883308 76.348673 
L 186.286302 74.811162 
L 187.689297 72.943207 
L 189.092291 70.69066 
L 190.495285 67.999373 
L 191.89828 64.815198 
L 193.301274 61.083984 
L 194.704269 32.881818 
" clip-path="url(#p7ffd3a3d8e)" style="fill: none; stroke: #ff7f0e; stroke-width: 1.5; stroke-linecap: square"/>
   </g>
   <g id="patch_3">
    <path d="M 48.863 174.04 
L 48.863 26.16 
" style="fill: none; stroke: #000000; stroke-width: 0.8; stroke-linejoin: miter; stroke-linecap: square"/>
   </g>
   <g id="patch_4">
    <path d="M 201.649091 174.04 
L 201.649091 26.16 
" style="fill: none; stroke: #000000; stroke-width: 0.8; stroke-linejoin: miter; stroke-linecap: square"/>
   </g>
   <g id="patch_5">
    <path d="M 48.863 174.04 
L 201.649091 174.04 
" style="fill: none; stroke: #000000; stroke-width: 0.8; stroke-linejoin: miter; stroke-linecap: square"/>
   </g>
   <g id="patch_6">
    <path d="M 48.863 26.16 
L 201.649091 26.16 
" style="fill: none; stroke: #000000; stroke-width: 0.8; stroke-linejoin: miter; stroke-linecap: square"/>
   </g>
   <g id="PathCollection_1">
    <defs>
     <path id="m609a5f4a3f" d="M 0 3.162278 
C 0.838646 3.162278 1.643056 2.82908 2.236068 2.236068 
C 2.82908 1.643056 3.162278 0.838646 3.162278 0 
C 3.162278 -0.838646 2.82908 -1.643056 2.236068 -2.236068 
C 1.643056 -2.82908 0.838646 -3.162278 0 -3.162278 
C -0.838646 -3.162278 -1.643056 -2.82908 -2.236068 -2.236068 
C -2.82908 -1.643056 -3.162278 -0.838646 -3.162278 0 
C -3.162278 0.838646 -2.82908 1.643056 -2.236068 2.236068 
C -1.643056 2.82908 -0.838646 3.162278 0 3.162278 
z
" style="stroke: #ff0000"/>
    </defs>
    <g clip-path="url(#p7ffd3a3d8e)">
     <use xlink:href="#m609a5f4a3f" x="56.379859" y="167.318182" style="fill: #ff0000; stroke: #ff0000"/>
     <use xlink:href="#m609a5f4a3f" x="113.863264" y="140.430909" style="fill: #ff0000; stroke: #ff0000"/>
     <use xlink:href="#m609a5f4a3f" x="145.743028" y="113.543636" style="fill: #ff0000; stroke: #ff0000"/>
     <use xlink:href="#m609a5f4a3f" x="169.697932" y="86.656364" style="fill: #ff0000; stroke: #ff0000"/>
     <use xlink:href="#m609a5f4a3f" x="193.749077" y="59.769091" style="fill: #ff0000; stroke: #ff0000"/>
     <use xlink:href="#m609a5f4a3f" x="194.700659" y="32.881818" style="fill: #ff0000; stroke: #ff0000"/>
    </g>
   </g>
   <g id="text_14">
    <!-- ECDF of scores (+) -->
    <g transform="translate(68.74542 20.16) scale(0.12 -0.12)">
     <defs>
      <path id="DejaVuSans-45" d="M 628 4666 
L 3578 4666 
L 3578 4134 
L 1259 4134 
L 1259 2753 
L 3481 2753 
L 3481 2222 
L 1259 2222 
L 1259 531 
L 3634 531 
L 3634 0 
L 628 0 
L 628 4666 
z
" transform="scale(0.015625)"/>
      <path id="DejaVuSans-43" d="M 4122 4306 
L 4122 3641 
Q 3803 3938 3442 4084 
Q 3081 4231 2675 4231 
Q 1875 4231 1450 3742 
Q 1025 3253 1025 2328 
Q 1025 1406 1450 917 
Q 1875 428 2675 428 
Q 3081 428 3442 575 
Q 3803 722 4122 1019 
L 4122 359 
Q 3791 134 3420 21 
Q 3050 -91 2638 -91 
Q 1578 -91 968 557 
Q 359 1206 359 2328 
Q 359 3453 968 4101 
Q 1578 4750 2638 4750 
Q 3056 4750 3426 4639 
Q 3797 4528 4122 4306 
z
" transform="scale(0.015625)"/>
      <path id="DejaVuSans-44" d="M 1259 4147 
L 1259 519 
L 2022 519 
Q 2988 519 3436 956 
Q 3884 1394 3884 2338 
Q 3884 3275 3436 3711 
Q 2988 4147 2022 4147 
L 1259 4147 
z
M 628 4666 
L 1925 4666 
Q 3281 4666 3915 4102 
Q 4550 3538 4550 2338 
Q 4550 1131 3912 565 
Q 3275 0 1925 0 
L 628 0 
L 628 4666 
z
" transform="scale(0.015625)"/>
      <path id="DejaVuSans-46" d="M 628 4666 
L 3309 4666 
L 3309 4134 
L 1259 4134 
L 1259 2759 
L 3109 2759 
L 3109 2228 
L 1259 2228 
L 1259 0 
L 628 0 
L 628 4666 
z
" transform="scale(0.015625)"/>
      <path id="DejaVuSans-20" transform="scale(0.015625)"/>
      <path id="DejaVuSans-6f" d="M 1959 3097 
Q 1497 3097 1228 2736 
Q 959 2375 959 1747 
Q 959 1119 1226 758 
Q 1494 397 1959 397 
Q 2419 397 2687 759 
Q 2956 1122 2956 1747 
Q 2956 2369 2687 2733 
Q 2419 3097 1959 3097 
z
M 1959 3584 
Q 2709 3584 3137 3096 
Q 3566 2609 3566 1747 
Q 3566 888 3137 398 
Q 2709 -91 1959 -91 
Q 1206 -91 779 398 
Q 353 888 353 1747 
Q 353 2609 779 3096 
Q 1206 3584 1959 3584 
z
" transform="scale(0.015625)"/>
      <path id="DejaVuSans-66" d="M 2375 4863 
L 2375 4384 
L 1825 4384 
Q 1516 4384 1395 4259 
Q 1275 4134 1275 3809 
L 1275 3500 
L 2222 3500 
L 2222 3053 
L 1275 3053 
L 1275 0 
L 697 0 
L 697 3053 
L 147 3053 
L 147 3500 
L 697 3500 
L 697 3744 
Q 697 4328 969 4595 
Q 1241 4863 1831 4863 
L 2375 4863 
z
" transform="scale(0.015625)"/>
      <path id="DejaVuSans-73" d="M 2834 3397 
L 2834 2853 
Q 2591 2978 2328 3040 
Q 2066 3103 1784 3103 
Q 1356 3103 1142 2972 
Q 928 2841 928 2578 
Q 928 2378 1081 2264 
Q 1234 2150 1697 2047 
L 1894 2003 
Q 2506 1872 2764 1633 
Q 3022 1394 3022 966 
Q 3022 478 2636 193 
Q 2250 -91 1575 -91 
Q 1294 -91 989 -36 
Q 684 19 347 128 
L 347 722 
Q 666 556 975 473 
Q 1284 391 1588 391 
Q 1994 391 2212 530 
Q 2431 669 2431 922 
Q 2431 1156 2273 1281 
Q 2116 1406 1581 1522 
L 1381 1569 
Q 847 1681 609 1914 
Q 372 2147 372 2553 
Q 372 3047 722 3315 
Q 1072 3584 1716 3584 
Q 2034 3584 2315 3537 
Q 2597 3491 2834 3397 
z
" transform="scale(0.015625)"/>
      <path id="DejaVuSans-63" d="M 3122 3366 
L 3122 2828 
Q 2878 2963 2633 3030 
Q 2388 3097 2138 3097 
Q 1578 3097 1268 2742 
Q 959 2388 959 1747 
Q 959 1106 1268 751 
Q 1578 397 2138 397 
Q 2388 397 2633 464 
Q 2878 531 3122 666 
L 3122 134 
Q 2881 22 2623 -34 
Q 2366 -91 2075 -91 
Q 1284 -91 818 406 
Q 353 903 353 1747 
Q 353 2603 823 3093 
Q 1294 3584 2113 3584 
Q 2378 3584 2631 3529 
Q 2884 3475 3122 3366 
z
" transform="scale(0.015625)"/>
      <path id="DejaVuSans-72" d="M 2631 2963 
Q 2534 3019 2420 3045 
Q 2306 3072 2169 3072 
Q 1681 3072 1420 2755 
Q 1159 2438 1159 1844 
L 1159 0 
L 581 0 
L 581 3500 
L 1159 3500 
L 1159 2956 
Q 1341 3275 1631 3429 
Q 1922 3584 2338 3584 
Q 2397 3584 2469 3576 
Q 2541 3569 2628 3553 
L 2631 2963 
z
" transform="scale(0.015625)"/>
      <path id="DejaVuSans-65" d="M 3597 1894 
L 3597 1613 
L 953 1613 
Q 991 1019 1311 708 
Q 1631 397 2203 397 
Q 2534 397 2845 478 
Q 3156 559 3463 722 
L 3463 178 
Q 3153 47 2828 -22 
Q 2503 -91 2169 -91 
Q 1331 -91 842 396 
Q 353 884 353 1716 
Q 353 2575 817 3079 
Q 1281 3584 2069 3584 
Q 2775 3584 3186 3129 
Q 3597 2675 3597 1894 
z
M 3022 2063 
Q 3016 2534 2758 2815 
Q 2500 3097 2075 3097 
Q 1594 3097 1305 2825 
Q 1016 2553 972 2059 
L 3022 2063 
z
" transform="scale(0.015625)"/>
     </defs>
     <use xlink:href="#DejaVuSans-45"/>
     <use xlink:href="#DejaVuSans-43" transform="translate(63.183594 0)"/>
     <use xlink:href="#DejaVuSans-44" transform="translate(133.007812 0)"/>
     <use xlink:href="#DejaVuSans-46" transform="translate(210.009766 0)"/>
     <use xlink:href="#DejaVuSans-20" transform="translate(267.529297 0)"/>
     <use xlink:href="#DejaVuSans-6f" transform="translate(299.316406 0)"/>
     <use xlink:href="#DejaVuSans-66" transform="translate(360.498047 0)"/>
     <use xlink:href="#DejaVuSans-20" transform="translate(395.703125 0)"/>
     <use xlink:href="#DejaVuSans-73" transform="translate(427.490234 0)"/>
     <use xlink:href="#DejaVuSans-63" transform="translate(479.589844 0)"/>
     <use xlink:href="#DejaVuSans-6f" transform="translate(534.570312 0)"/>
     <use xlink:href="#DejaVuSans-72" transform="translate(595.751953 0)"/>
     <use xlink:href="#DejaVuSans-65" transform="translate(634.615234 0)"/>
     <use xlink:href="#DejaVuSans-73" transform="translate(696.138672 0)"/>
     <use xlink:href="#DejaVuSans-20" transform="translate(748.238281 0)"/>
     <use xlink:href="#DejaVuSans-28" transform="translate(780.025391 0)"/>
     <use xlink:href="#DejaVuSans-2b" transform="translate(819.039062 0)"/>
     <use xlink:href="#DejaVuSans-29" transform="translate(902.828125 0)"/>
    </g>
   </g>
   <g id="legend_1">
    <g id="patch_7">
     <path d="M 55.863 78.194375 
L 152.942688 78.194375 
Q 154.942688 78.194375 154.942688 76.194375 
L 154.942688 33.16 
Q 154.942688 31.16 152.942688 31.16 
L 55.863 31.16 
Q 53.863 31.16 53.863 33.16 
L 53.863 76.194375 
Q 53.863 78.194375 55.863 78.194375 
z
" style="fill: #ffffff; opacity: 0.8; stroke: #cccccc; stroke-linejoin: miter"/>
    </g>
    <g id="line2d_25">
     <path d="M 57.863 39.258438 
L 67.863 39.258438 
L 77.863 39.258438 
" style="fill: none; stroke: #1f77b4; stroke-width: 1.5; stroke-linecap: square"/>
    </g>
    <g id="text_15">
     <!-- True ECDF -->
     <g transform="translate(85.863 42.758438) scale(0.1 -0.1)">
      <defs>
       <path id="DejaVuSans-54" d="M -19 4666 
L 3928 4666 
L 3928 4134 
L 2272 4134 
L 2272 0 
L 1638 0 
L 1638 4134 
L -19 4134 
L -19 4666 
z
" transform="scale(0.015625)"/>
       <path id="DejaVuSans-75" d="M 544 1381 
L 544 3500 
L 1119 3500 
L 1119 1403 
Q 1119 906 1312 657 
Q 1506 409 1894 409 
Q 2359 409 2629 706 
Q 2900 1003 2900 1516 
L 2900 3500 
L 3475 3500 
L 3475 0 
L 2900 0 
L 2900 538 
Q 2691 219 2414 64 
Q 2138 -91 1772 -91 
Q 1169 -91 856 284 
Q 544 659 544 1381 
z
M 1991 3584 
L 1991 3584 
z
" transform="scale(0.015625)"/>
      </defs>
      <use xlink:href="#DejaVuSans-54"/>
      <use xlink:href="#DejaVuSans-72" transform="translate(46.333984 0)"/>
      <use xlink:href="#DejaVuSans-75" transform="translate(87.447266 0)"/>
      <use xlink:href="#DejaVuSans-65" transform="translate(150.826172 0)"/>
      <use xlink:href="#DejaVuSans-20" transform="translate(212.349609 0)"/>
      <use xlink:href="#DejaVuSans-45" transform="translate(244.136719 0)"/>
      <use xlink:href="#DejaVuSans-43" transform="translate(307.320312 0)"/>
      <use xlink:href="#DejaVuSans-44" transform="translate(377.144531 0)"/>
      <use xlink:href="#DejaVuSans-46" transform="translate(454.146484 0)"/>
     </g>
    </g>
    <g id="line2d_26">
     <path d="M 57.863 53.936563 
L 67.863 53.936563 
L 77.863 53.936563 
" style="fill: none; stroke: #ff7f0e; stroke-width: 1.5; stroke-linecap: square"/>
    </g>
    <g id="text_16">
     <!-- Approx ECDF -->
     <g transform="translate(85.863 57.436563) scale(0.1 -0.1)">
      <defs>
       <path id="DejaVuSans-41" d="M 2188 4044 
L 1331 1722 
L 3047 1722 
L 2188 4044 
z
M 1831 4666 
L 2547 4666 
L 4325 0 
L 3669 0 
L 3244 1197 
L 1141 1197 
L 716 0 
L 50 0 
L 1831 4666 
z
" transform="scale(0.015625)"/>
       <path id="DejaVuSans-70" d="M 1159 525 
L 1159 -1331 
L 581 -1331 
L 581 3500 
L 1159 3500 
L 1159 2969 
Q 1341 3281 1617 3432 
Q 1894 3584 2278 3584 
Q 2916 3584 3314 3078 
Q 3713 2572 3713 1747 
Q 3713 922 3314 415 
Q 2916 -91 2278 -91 
Q 1894 -91 1617 61 
Q 1341 213 1159 525 
z
M 3116 1747 
Q 3116 2381 2855 2742 
Q 2594 3103 2138 3103 
Q 1681 3103 1420 2742 
Q 1159 2381 1159 1747 
Q 1159 1113 1420 752 
Q 1681 391 2138 391 
Q 2594 391 2855 752 
Q 3116 1113 3116 1747 
z
" transform="scale(0.015625)"/>
       <path id="DejaVuSans-78" d="M 3513 3500 
L 2247 1797 
L 3578 0 
L 2900 0 
L 1881 1375 
L 863 0 
L 184 0 
L 1544 1831 
L 300 3500 
L 978 3500 
L 1906 2253 
L 2834 3500 
L 3513 3500 
z
" transform="scale(0.015625)"/>
      </defs>
      <use xlink:href="#DejaVuSans-41"/>
      <use xlink:href="#DejaVuSans-70" transform="translate(68.408203 0)"/>
      <use xlink:href="#DejaVuSans-70" transform="translate(131.884766 0)"/>
      <use xlink:href="#DejaVuSans-72" transform="translate(195.361328 0)"/>
      <use xlink:href="#DejaVuSans-6f" transform="translate(234.224609 0)"/>
      <use xlink:href="#DejaVuSans-78" transform="translate(292.28125 0)"/>
      <use xlink:href="#DejaVuSans-20" transform="translate(351.460938 0)"/>
      <use xlink:href="#DejaVuSans-45" transform="translate(383.248047 0)"/>
      <use xlink:href="#DejaVuSans-43" transform="translate(446.431641 0)"/>
      <use xlink:href="#DejaVuSans-44" transform="translate(516.255859 0)"/>
      <use xlink:href="#DejaVuSans-46" transform="translate(593.257812 0)"/>
     </g>
    </g>
    <g id="PathCollection_2">
     <g>
      <use xlink:href="#m609a5f4a3f" x="67.863" y="69.489688" style="fill: #ff0000; stroke: #ff0000"/>
     </g>
    </g>
    <g id="text_17">
     <!-- Quantiles -->
     <g transform="translate(85.863 72.114688) scale(0.1 -0.1)">
      <defs>
       <path id="DejaVuSans-51" d="M 2522 4238 
Q 1834 4238 1429 3725 
Q 1025 3213 1025 2328 
Q 1025 1447 1429 934 
Q 1834 422 2522 422 
Q 3209 422 3611 934 
Q 4013 1447 4013 2328 
Q 4013 3213 3611 3725 
Q 3209 4238 2522 4238 
z
M 3406 84 
L 4238 -825 
L 3475 -825 
L 2784 -78 
Q 2681 -84 2626 -87 
Q 2572 -91 2522 -91 
Q 1538 -91 948 567 
Q 359 1225 359 2328 
Q 359 3434 948 4092 
Q 1538 4750 2522 4750 
Q 3503 4750 4090 4092 
Q 4678 3434 4678 2328 
Q 4678 1516 4351 937 
Q 4025 359 3406 84 
z
" transform="scale(0.015625)"/>
       <path id="DejaVuSans-61" d="M 2194 1759 
Q 1497 1759 1228 1600 
Q 959 1441 959 1056 
Q 959 750 1161 570 
Q 1363 391 1709 391 
Q 2188 391 2477 730 
Q 2766 1069 2766 1631 
L 2766 1759 
L 2194 1759 
z
M 3341 1997 
L 3341 0 
L 2766 0 
L 2766 531 
Q 2569 213 2275 61 
Q 1981 -91 1556 -91 
Q 1019 -91 701 211 
Q 384 513 384 1019 
Q 384 1609 779 1909 
Q 1175 2209 1959 2209 
L 2766 2209 
L 2766 2266 
Q 2766 2663 2505 2880 
Q 2244 3097 1772 3097 
Q 1472 3097 1187 3025 
Q 903 2953 641 2809 
L 641 3341 
Q 956 3463 1253 3523 
Q 1550 3584 1831 3584 
Q 2591 3584 2966 3190 
Q 3341 2797 3341 1997 
z
" transform="scale(0.015625)"/>
       <path id="DejaVuSans-6e" d="M 3513 2113 
L 3513 0 
L 2938 0 
L 2938 2094 
Q 2938 2591 2744 2837 
Q 2550 3084 2163 3084 
Q 1697 3084 1428 2787 
Q 1159 2491 1159 1978 
L 1159 0 
L 581 0 
L 581 3500 
L 1159 3500 
L 1159 2956 
Q 1366 3272 1645 3428 
Q 1925 3584 2291 3584 
Q 2894 3584 3203 3211 
Q 3513 2838 3513 2113 
z
" transform="scale(0.015625)"/>
       <path id="DejaVuSans-74" d="M 1172 4494 
L 1172 3500 
L 2356 3500 
L 2356 3053 
L 1172 3053 
L 1172 1153 
Q 1172 725 1289 603 
Q 1406 481 1766 481 
L 2356 481 
L 2356 0 
L 1766 0 
Q 1100 0 847 248 
Q 594 497 594 1153 
L 594 3053 
L 172 3053 
L 172 3500 
L 594 3500 
L 594 4494 
L 1172 4494 
z
" transform="scale(0.015625)"/>
       <path id="DejaVuSans-69" d="M 603 3500 
L 1178 3500 
L 1178 0 
L 603 0 
L 603 3500 
z
M 603 4863 
L 1178 4863 
L 1178 4134 
L 603 4134 
L 603 4863 
z
" transform="scale(0.015625)"/>
       <path id="DejaVuSans-6c" d="M 603 4863 
L 1178 4863 
L 1178 0 
L 603 0 
L 603 4863 
z
" transform="scale(0.015625)"/>
      </defs>
      <use xlink:href="#DejaVuSans-51"/>
      <use xlink:href="#DejaVuSans-75" transform="translate(78.710938 0)"/>
      <use xlink:href="#DejaVuSans-61" transform="translate(142.089844 0)"/>
      <use xlink:href="#DejaVuSans-6e" transform="translate(203.369141 0)"/>
      <use xlink:href="#DejaVuSans-74" transform="translate(266.748047 0)"/>
      <use xlink:href="#DejaVuSans-69" transform="translate(305.957031 0)"/>
      <use xlink:href="#DejaVuSans-6c" transform="translate(333.740234 0)"/>
      <use xlink:href="#DejaVuSans-65" transform="translate(361.523438 0)"/>
      <use xlink:href="#DejaVuSans-73" transform="translate(423.046875 0)"/>
     </g>
    </g>
   </g>
  </g>
 </g>
 <defs>
  <clipPath id="p7ffd3a3d8e">
   <rect x="48.863" y="26.16" width="152.786091" height="147.88"/>
  </clipPath>
 </defs>
</svg>
