<?xml version="1.0" encoding="utf-8" standalone="no"?>
<!DOCTYPE svg PUBLIC "-//W3C//DTD SVG 1.1//EN"
  "http://www.w3.org/Graphics/SVG/1.1/DTD/svg11.dtd">
<svg xmlns:xlink="http://www.w3.org/1999/xlink" width="288pt" height="288pt" viewBox="0 0 288 288" xmlns="http://www.w3.org/2000/svg" version="1.1">
 <metadata>
  <rdf:RDF xmlns:dc="http://purl.org/dc/elements/1.1/" xmlns:cc="http://creativecommons.org/ns#" xmlns:rdf="http://www.w3.org/1999/02/22-rdf-syntax-ns#">
   <cc:Work>
    <dc:type rdf:resource="http://purl.org/dc/dcmitype/StillImage"/>
    <dc:date>2025-05-16T17:32:37.346759</dc:date>
    <dc:format>image/svg+xml</dc:format>
    <dc:creator>
     <cc:Agent>
      <dc:title>Matplotlib v3.10.1, https://matplotlib.org/</dc:title>
     </cc:Agent>
    </dc:creator>
   </cc:Work>
  </rdf:RDF>
 </metadata>
 <defs>
  <style type="text/css">*{stroke-linejoin: round; stroke-linecap: butt}</style>
 </defs>
 <g id="figure_1">
  <g id="patch_1">
   <path d="M 0 288 
L 288 288 
L 288 0 
L 0 0 
z
" style="fill: #ffffff"/>
  </g>
  <g id="axes_1">
   <g id="patch_2">
    <path d="M 55.175804 245.356 
L 277.2 245.356 
L 277.2 26.16 
L 55.175804 26.16 
z
" style="fill: #ffffff"/>
   </g>
   <g id="matplotlib.axis_1">
    <g id="xtick_1">
     <g id="line2d_1">
      <path d="M 98.620088 245.356 
L 98.620088 26.16 
" clip-path="url(#pe315839e0e)" style="fill: none; stroke: #b0b0b0; stroke-width: 0.8; stroke-linecap: square"/>
     </g>
     <g id="line2d_2">
      <defs>
       <path id="m5dd306572b" d="M 0 0 
L 0 3.5 
" style="stroke: #000000; stroke-width: 0.8"/>
      </defs>
      <g>
       <use xlink:href="#m5dd306572b" x="98.620088" y="245.356" style="stroke: #000000; stroke-width: 0.8"/>
      </g>
     </g>
     <g id="text_1">
      <!-- $\mathdefault{10^{1}}$ -->
      <g transform="translate(89.820088 259.954437) scale(0.1 -0.1)">
       <defs>
        <path id="DejaVuSans-31" d="M 794 531 
L 1825 531 
L 1825 4091 
L 703 3866 
L 703 4441 
L 1819 4666 
L 2450 4666 
L 2450 531 
L 3481 531 
L 3481 0 
L 794 0 
L 794 531 
z
" transform="scale(0.015625)"/>
        <path id="DejaVuSans-30" d="M 2034 4250 
Q 1547 4250 1301 3770 
Q 1056 3291 1056 2328 
Q 1056 1369 1301 889 
Q 1547 409 2034 409 
Q 2525 409 2770 889 
Q 3016 1369 3016 2328 
Q 3016 3291 2770 3770 
Q 2525 4250 2034 4250 
z
M 2034 4750 
Q 2819 4750 3233 4129 
Q 3647 3509 3647 2328 
Q 3647 1150 3233 529 
Q 2819 -91 2034 -91 
Q 1250 -91 836 529 
Q 422 1150 422 2328 
Q 422 3509 836 4129 
Q 1250 4750 2034 4750 
z
" transform="scale(0.015625)"/>
       </defs>
       <use xlink:href="#DejaVuSans-31" transform="translate(0 0.684375)"/>
       <use xlink:href="#DejaVuSans-30" transform="translate(63.623047 0.684375)"/>
       <use xlink:href="#DejaVuSans-31" transform="translate(128.203125 38.965625) scale(0.7)"/>
      </g>
     </g>
    </g>
    <g id="xtick_2">
     <g id="line2d_3">
      <path d="M 182.432408 245.356 
L 182.432408 26.16 
" clip-path="url(#pe315839e0e)" style="fill: none; stroke: #b0b0b0; stroke-width: 0.8; stroke-linecap: square"/>
     </g>
     <g id="line2d_4">
      <g>
       <use xlink:href="#m5dd306572b" x="182.432408" y="245.356" style="stroke: #000000; stroke-width: 0.8"/>
      </g>
     </g>
     <g id="text_2">
      <!-- $\mathdefault{10^{2}}$ -->
      <g transform="translate(173.632408 259.954437) scale(0.1 -0.1)">
       <defs>
        <path id="DejaVuSans-32" d="M 1228 531 
L 3431 531 
L 3431 0 
L 469 0 
L 469 531 
Q 828 903 1448 1529 
Q 2069 2156 2228 2338 
Q 2531 2678 2651 2914 
Q 2772 3150 2772 3378 
Q 2772 3750 2511 3984 
Q 2250 4219 1831 4219 
Q 1534 4219 1204 4116 
Q 875 4013 500 3803 
L 500 4441 
Q 881 4594 1212 4672 
Q 1544 4750 1819 4750 
Q 2544 4750 2975 4387 
Q 3406 4025 3406 3419 
Q 3406 3131 3298 2873 
Q 3191 2616 2906 2266 
Q 2828 2175 2409 1742 
Q 1991 1309 1228 531 
z
" transform="scale(0.015625)"/>
       </defs>
       <use xlink:href="#DejaVuSans-31" transform="translate(0 0.765625)"/>
       <use xlink:href="#DejaVuSans-30" transform="translate(63.623047 0.765625)"/>
       <use xlink:href="#DejaVuSans-32" transform="translate(128.203125 39.046875) scale(0.7)"/>
      </g>
     </g>
    </g>
    <g id="xtick_3">
     <g id="line2d_5">
      <path d="M 266.244728 245.356 
L 266.244728 26.16 
" clip-path="url(#pe315839e0e)" style="fill: none; stroke: #b0b0b0; stroke-width: 0.8; stroke-linecap: square"/>
     </g>
     <g id="line2d_6">
      <g>
       <use xlink:href="#m5dd306572b" x="266.244728" y="245.356" style="stroke: #000000; stroke-width: 0.8"/>
      </g>
     </g>
     <g id="text_3">
      <!-- $\mathdefault{10^{3}}$ -->
      <g transform="translate(257.444728 259.954437) scale(0.1 -0.1)">
       <defs>
        <path id="DejaVuSans-33" d="M 2597 2516 
Q 3050 2419 3304 2112 
Q 3559 1806 3559 1356 
Q 3559 666 3084 287 
Q 2609 -91 1734 -91 
Q 1441 -91 1130 -33 
Q 819 25 488 141 
L 488 750 
Q 750 597 1062 519 
Q 1375 441 1716 441 
Q 2309 441 2620 675 
Q 2931 909 2931 1356 
Q 2931 1769 2642 2001 
Q 2353 2234 1838 2234 
L 1294 2234 
L 1294 2753 
L 1863 2753 
Q 2328 2753 2575 2939 
Q 2822 3125 2822 3475 
Q 2822 3834 2567 4026 
Q 2313 4219 1838 4219 
Q 1578 4219 1281 4162 
Q 984 4106 628 3988 
L 628 4550 
Q 988 4650 1302 4700 
Q 1616 4750 1894 4750 
Q 2613 4750 3031 4423 
Q 3450 4097 3450 3541 
Q 3450 3153 3228 2886 
Q 3006 2619 2597 2516 
z
" transform="scale(0.015625)"/>
       </defs>
       <use xlink:href="#DejaVuSans-31" transform="translate(0 0.765625)"/>
       <use xlink:href="#DejaVuSans-30" transform="translate(63.623047 0.765625)"/>
       <use xlink:href="#DejaVuSans-33" transform="translate(128.203125 39.046875) scale(0.7)"/>
      </g>
     </g>
    </g>
    <g id="xtick_4">
     <g id="line2d_7">
      <defs>
       <path id="mbcc643b53a" d="M 0 0 
L 0 2 
" style="stroke: #000000; stroke-width: 0.6"/>
      </defs>
      <g>
       <use xlink:href="#mbcc643b53a" x="65.267813" y="245.356" style="stroke: #000000; stroke-width: 0.6"/>
      </g>
     </g>
    </g>
    <g id="xtick_5">
     <g id="line2d_8">
      <g>
       <use xlink:href="#mbcc643b53a" x="73.390066" y="245.356" style="stroke: #000000; stroke-width: 0.6"/>
      </g>
     </g>
    </g>
    <g id="xtick_6">
     <g id="line2d_9">
      <g>
       <use xlink:href="#mbcc643b53a" x="80.02643" y="245.356" style="stroke: #000000; stroke-width: 0.6"/>
      </g>
     </g>
    </g>
    <g id="xtick_7">
     <g id="line2d_10">
      <g>
       <use xlink:href="#mbcc643b53a" x="85.637395" y="245.356" style="stroke: #000000; stroke-width: 0.6"/>
      </g>
     </g>
    </g>
    <g id="xtick_8">
     <g id="line2d_11">
      <g>
       <use xlink:href="#mbcc643b53a" x="90.497835" y="245.356" style="stroke: #000000; stroke-width: 0.6"/>
      </g>
     </g>
    </g>
    <g id="xtick_9">
     <g id="line2d_12">
      <g>
       <use xlink:href="#mbcc643b53a" x="94.785047" y="245.356" style="stroke: #000000; stroke-width: 0.6"/>
      </g>
     </g>
    </g>
    <g id="xtick_10">
     <g id="line2d_13">
      <g>
       <use xlink:href="#mbcc643b53a" x="123.85011" y="245.356" style="stroke: #000000; stroke-width: 0.6"/>
      </g>
     </g>
    </g>
    <g id="xtick_11">
     <g id="line2d_14">
      <g>
       <use xlink:href="#mbcc643b53a" x="138.608727" y="245.356" style="stroke: #000000; stroke-width: 0.6"/>
      </g>
     </g>
    </g>
    <g id="xtick_12">
     <g id="line2d_15">
      <g>
       <use xlink:href="#mbcc643b53a" x="149.080133" y="245.356" style="stroke: #000000; stroke-width: 0.6"/>
      </g>
     </g>
    </g>
    <g id="xtick_13">
     <g id="line2d_16">
      <g>
       <use xlink:href="#mbcc643b53a" x="157.202386" y="245.356" style="stroke: #000000; stroke-width: 0.6"/>
      </g>
     </g>
    </g>
    <g id="xtick_14">
     <g id="line2d_17">
      <g>
       <use xlink:href="#mbcc643b53a" x="163.83875" y="245.356" style="stroke: #000000; stroke-width: 0.6"/>
      </g>
     </g>
    </g>
    <g id="xtick_15">
     <g id="line2d_18">
      <g>
       <use xlink:href="#mbcc643b53a" x="169.449715" y="245.356" style="stroke: #000000; stroke-width: 0.6"/>
      </g>
     </g>
    </g>
    <g id="xtick_16">
     <g id="line2d_19">
      <g>
       <use xlink:href="#mbcc643b53a" x="174.310155" y="245.356" style="stroke: #000000; stroke-width: 0.6"/>
      </g>
     </g>
    </g>
    <g id="xtick_17">
     <g id="line2d_20">
      <g>
       <use xlink:href="#mbcc643b53a" x="178.597367" y="245.356" style="stroke: #000000; stroke-width: 0.6"/>
      </g>
     </g>
    </g>
    <g id="xtick_18">
     <g id="line2d_21">
      <g>
       <use xlink:href="#mbcc643b53a" x="207.66243" y="245.356" style="stroke: #000000; stroke-width: 0.6"/>
      </g>
     </g>
    </g>
    <g id="xtick_19">
     <g id="line2d_22">
      <g>
       <use xlink:href="#mbcc643b53a" x="222.421047" y="245.356" style="stroke: #000000; stroke-width: 0.6"/>
      </g>
     </g>
    </g>
    <g id="xtick_20">
     <g id="line2d_23">
      <g>
       <use xlink:href="#mbcc643b53a" x="232.892453" y="245.356" style="stroke: #000000; stroke-width: 0.6"/>
      </g>
     </g>
    </g>
    <g id="xtick_21">
     <g id="line2d_24">
      <g>
       <use xlink:href="#mbcc643b53a" x="241.014706" y="245.356" style="stroke: #000000; stroke-width: 0.6"/>
      </g>
     </g>
    </g>
    <g id="xtick_22">
     <g id="line2d_25">
      <g>
       <use xlink:href="#mbcc643b53a" x="247.651069" y="245.356" style="stroke: #000000; stroke-width: 0.6"/>
      </g>
     </g>
    </g>
    <g id="xtick_23">
     <g id="line2d_26">
      <g>
       <use xlink:href="#mbcc643b53a" x="253.262035" y="245.356" style="stroke: #000000; stroke-width: 0.6"/>
      </g>
     </g>
    </g>
    <g id="xtick_24">
     <g id="line2d_27">
      <g>
       <use xlink:href="#mbcc643b53a" x="258.122475" y="245.356" style="stroke: #000000; stroke-width: 0.6"/>
      </g>
     </g>
    </g>
    <g id="xtick_25">
     <g id="line2d_28">
      <g>
       <use xlink:href="#mbcc643b53a" x="262.409686" y="245.356" style="stroke: #000000; stroke-width: 0.6"/>
      </g>
     </g>
    </g>
    <g id="text_4">
     <!-- Q -->
     <g transform="translate(162.251964 273.632563) scale(0.1 -0.1)">
      <defs>
       <path id="DejaVuSans-51" d="M 2522 4238 
Q 1834 4238 1429 3725 
Q 1025 3213 1025 2328 
Q 1025 1447 1429 934 
Q 1834 422 2522 422 
Q 3209 422 3611 934 
Q 4013 1447 4013 2328 
Q 4013 3213 3611 3725 
Q 3209 4238 2522 4238 
z
M 3406 84 
L 4238 -825 
L 3475 -825 
L 2784 -78 
Q 2681 -84 2626 -87 
Q 2572 -91 2522 -91 
Q 1538 -91 948 567 
Q 359 1225 359 2328 
Q 359 3434 948 4092 
Q 1538 4750 2522 4750 
Q 3503 4750 4090 4092 
Q 4678 3434 4678 2328 
Q 4678 1516 4351 937 
Q 4025 359 3406 84 
z
" transform="scale(0.015625)"/>
      </defs>
      <use xlink:href="#DejaVuSans-51"/>
     </g>
    </g>
   </g>
   <g id="matplotlib.axis_2">
    <g id="ytick_1">
     <g id="line2d_29">
      <path d="M 55.175804 199.913151 
L 277.2 199.913151 
" clip-path="url(#pe315839e0e)" style="fill: none; stroke: #b0b0b0; stroke-width: 0.8; stroke-linecap: square"/>
     </g>
     <g id="line2d_30">
      <defs>
       <path id="m0f4c6271a9" d="M 0 0 
L -3.5 0 
" style="stroke: #000000; stroke-width: 0.8"/>
      </defs>
      <g>
       <use xlink:href="#m0f4c6271a9" x="55.175804" y="199.913151" style="stroke: #000000; stroke-width: 0.8"/>
      </g>
     </g>
     <g id="text_5">
      <!-- $\mathdefault{10^{-3}}$ -->
      <g transform="translate(24.675804 203.71237) scale(0.1 -0.1)">
       <defs>
        <path id="DejaVuSans-2212" d="M 678 2272 
L 4684 2272 
L 4684 1741 
L 678 1741 
L 678 2272 
z
" transform="scale(0.015625)"/>
       </defs>
       <use xlink:href="#DejaVuSans-31" transform="translate(0 0.765625)"/>
       <use xlink:href="#DejaVuSans-30" transform="translate(63.623047 0.765625)"/>
       <use xlink:href="#DejaVuSans-2212" transform="translate(128.203125 39.046875) scale(0.7)"/>
       <use xlink:href="#DejaVuSans-33" transform="translate(186.855469 39.046875) scale(0.7)"/>
      </g>
     </g>
    </g>
    <g id="ytick_2">
     <g id="line2d_31">
      <path d="M 55.175804 131.608817 
L 277.2 131.608817 
" clip-path="url(#pe315839e0e)" style="fill: none; stroke: #b0b0b0; stroke-width: 0.8; stroke-linecap: square"/>
     </g>
     <g id="line2d_32">
      <g>
       <use xlink:href="#m0f4c6271a9" x="55.175804" y="131.608817" style="stroke: #000000; stroke-width: 0.8"/>
      </g>
     </g>
     <g id="text_6">
      <!-- $\mathdefault{10^{-2}}$ -->
      <g transform="translate(24.675804 135.408035) scale(0.1 -0.1)">
       <use xlink:href="#DejaVuSans-31" transform="translate(0 0.765625)"/>
       <use xlink:href="#DejaVuSans-30" transform="translate(63.623047 0.765625)"/>
       <use xlink:href="#DejaVuSans-2212" transform="translate(128.203125 39.046875) scale(0.7)"/>
       <use xlink:href="#DejaVuSans-32" transform="translate(186.855469 39.046875) scale(0.7)"/>
      </g>
     </g>
    </g>
    <g id="ytick_3">
     <g id="line2d_33">
      <path d="M 55.175804 63.304482 
L 277.2 63.304482 
" clip-path="url(#pe315839e0e)" style="fill: none; stroke: #b0b0b0; stroke-width: 0.8; stroke-linecap: square"/>
     </g>
     <g id="line2d_34">
      <g>
       <use xlink:href="#m0f4c6271a9" x="55.175804" y="63.304482" style="stroke: #000000; stroke-width: 0.8"/>
      </g>
     </g>
     <g id="text_7">
      <!-- $\mathdefault{10^{-1}}$ -->
      <g transform="translate(24.675804 67.103701) scale(0.1 -0.1)">
       <use xlink:href="#DejaVuSans-31" transform="translate(0 0.684375)"/>
       <use xlink:href="#DejaVuSans-30" transform="translate(63.623047 0.684375)"/>
       <use xlink:href="#DejaVuSans-2212" transform="translate(128.203125 38.965625) scale(0.7)"/>
       <use xlink:href="#DejaVuSans-31" transform="translate(186.855469 38.965625) scale(0.7)"/>
      </g>
     </g>
    </g>
    <g id="ytick_4">
     <g id="line2d_35">
      <defs>
       <path id="md392e43935" d="M 0 0 
L -2 0 
" style="stroke: #000000; stroke-width: 0.6"/>
      </defs>
      <g>
       <use xlink:href="#md392e43935" x="55.175804" y="235.628036" style="stroke: #000000; stroke-width: 0.6"/>
      </g>
     </g>
    </g>
    <g id="ytick_5">
     <g id="line2d_36">
      <g>
       <use xlink:href="#md392e43935" x="55.175804" y="227.094179" style="stroke: #000000; stroke-width: 0.6"/>
      </g>
     </g>
    </g>
    <g id="ytick_6">
     <g id="line2d_37">
      <g>
       <use xlink:href="#md392e43935" x="55.175804" y="220.474805" style="stroke: #000000; stroke-width: 0.6"/>
      </g>
     </g>
    </g>
    <g id="ytick_7">
     <g id="line2d_38">
      <g>
       <use xlink:href="#md392e43935" x="55.175804" y="215.066382" style="stroke: #000000; stroke-width: 0.6"/>
      </g>
     </g>
    </g>
    <g id="ytick_8">
     <g id="line2d_39">
      <g>
       <use xlink:href="#md392e43935" x="55.175804" y="210.493626" style="stroke: #000000; stroke-width: 0.6"/>
      </g>
     </g>
    </g>
    <g id="ytick_9">
     <g id="line2d_40">
      <g>
       <use xlink:href="#md392e43935" x="55.175804" y="206.532525" style="stroke: #000000; stroke-width: 0.6"/>
      </g>
     </g>
    </g>
    <g id="ytick_10">
     <g id="line2d_41">
      <g>
       <use xlink:href="#md392e43935" x="55.175804" y="203.038586" style="stroke: #000000; stroke-width: 0.6"/>
      </g>
     </g>
    </g>
    <g id="ytick_11">
     <g id="line2d_42">
      <g>
       <use xlink:href="#md392e43935" x="55.175804" y="179.351498" style="stroke: #000000; stroke-width: 0.6"/>
      </g>
     </g>
    </g>
    <g id="ytick_12">
     <g id="line2d_43">
      <g>
       <use xlink:href="#md392e43935" x="55.175804" y="167.323701" style="stroke: #000000; stroke-width: 0.6"/>
      </g>
     </g>
    </g>
    <g id="ytick_13">
     <g id="line2d_44">
      <g>
       <use xlink:href="#md392e43935" x="55.175804" y="158.789844" style="stroke: #000000; stroke-width: 0.6"/>
      </g>
     </g>
    </g>
    <g id="ytick_14">
     <g id="line2d_45">
      <g>
       <use xlink:href="#md392e43935" x="55.175804" y="152.17047" style="stroke: #000000; stroke-width: 0.6"/>
      </g>
     </g>
    </g>
    <g id="ytick_15">
     <g id="line2d_46">
      <g>
       <use xlink:href="#md392e43935" x="55.175804" y="146.762048" style="stroke: #000000; stroke-width: 0.6"/>
      </g>
     </g>
    </g>
    <g id="ytick_16">
     <g id="line2d_47">
      <g>
       <use xlink:href="#md392e43935" x="55.175804" y="142.189292" style="stroke: #000000; stroke-width: 0.6"/>
      </g>
     </g>
    </g>
    <g id="ytick_17">
     <g id="line2d_48">
      <g>
       <use xlink:href="#md392e43935" x="55.175804" y="138.228191" style="stroke: #000000; stroke-width: 0.6"/>
      </g>
     </g>
    </g>
    <g id="ytick_18">
     <g id="line2d_49">
      <g>
       <use xlink:href="#md392e43935" x="55.175804" y="134.734252" style="stroke: #000000; stroke-width: 0.6"/>
      </g>
     </g>
    </g>
    <g id="ytick_19">
     <g id="line2d_50">
      <g>
       <use xlink:href="#md392e43935" x="55.175804" y="111.047163" style="stroke: #000000; stroke-width: 0.6"/>
      </g>
     </g>
    </g>
    <g id="ytick_20">
     <g id="line2d_51">
      <g>
       <use xlink:href="#md392e43935" x="55.175804" y="99.019367" style="stroke: #000000; stroke-width: 0.6"/>
      </g>
     </g>
    </g>
    <g id="ytick_21">
     <g id="line2d_52">
      <g>
       <use xlink:href="#md392e43935" x="55.175804" y="90.48551" style="stroke: #000000; stroke-width: 0.6"/>
      </g>
     </g>
    </g>
    <g id="ytick_22">
     <g id="line2d_53">
      <g>
       <use xlink:href="#md392e43935" x="55.175804" y="83.866136" style="stroke: #000000; stroke-width: 0.6"/>
      </g>
     </g>
    </g>
    <g id="ytick_23">
     <g id="line2d_54">
      <g>
       <use xlink:href="#md392e43935" x="55.175804" y="78.457713" style="stroke: #000000; stroke-width: 0.6"/>
      </g>
     </g>
    </g>
    <g id="ytick_24">
     <g id="line2d_55">
      <g>
       <use xlink:href="#md392e43935" x="55.175804" y="73.884957" style="stroke: #000000; stroke-width: 0.6"/>
      </g>
     </g>
    </g>
    <g id="ytick_25">
     <g id="line2d_56">
      <g>
       <use xlink:href="#md392e43935" x="55.175804" y="69.923856" style="stroke: #000000; stroke-width: 0.6"/>
      </g>
     </g>
    </g>
    <g id="ytick_26">
     <g id="line2d_57">
      <g>
       <use xlink:href="#md392e43935" x="55.175804" y="66.429917" style="stroke: #000000; stroke-width: 0.6"/>
      </g>
     </g>
    </g>
    <g id="ytick_27">
     <g id="line2d_58">
      <g>
       <use xlink:href="#md392e43935" x="55.175804" y="42.742828" style="stroke: #000000; stroke-width: 0.6"/>
      </g>
     </g>
    </g>
    <g id="ytick_28">
     <g id="line2d_59">
      <g>
       <use xlink:href="#md392e43935" x="55.175804" y="30.715032" style="stroke: #000000; stroke-width: 0.6"/>
      </g>
     </g>
    </g>
    <g id="text_8">
     <!-- Area Error -->
     <g transform="translate(18.596116 161.036125) rotate(-90) scale(0.1 -0.1)">
      <defs>
       <path id="DejaVuSans-41" d="M 2188 4044 
L 1331 1722 
L 3047 1722 
L 2188 4044 
z
M 1831 4666 
L 2547 4666 
L 4325 0 
L 3669 0 
L 3244 1197 
L 1141 1197 
L 716 0 
L 50 0 
L 1831 4666 
z
" transform="scale(0.015625)"/>
       <path id="DejaVuSans-72" d="M 2631 2963 
Q 2534 3019 2420 3045 
Q 2306 3072 2169 3072 
Q 1681 3072 1420 2755 
Q 1159 2438 1159 1844 
L 1159 0 
L 581 0 
L 581 3500 
L 1159 3500 
L 1159 2956 
Q 1341 3275 1631 3429 
Q 1922 3584 2338 3584 
Q 2397 3584 2469 3576 
Q 2541 3569 2628 3553 
L 2631 2963 
z
" transform="scale(0.015625)"/>
       <path id="DejaVuSans-65" d="M 3597 1894 
L 3597 1613 
L 953 1613 
Q 991 1019 1311 708 
Q 1631 397 2203 397 
Q 2534 397 2845 478 
Q 3156 559 3463 722 
L 3463 178 
Q 3153 47 2828 -22 
Q 2503 -91 2169 -91 
Q 1331 -91 842 396 
Q 353 884 353 1716 
Q 353 2575 817 3079 
Q 1281 3584 2069 3584 
Q 2775 3584 3186 3129 
Q 3597 2675 3597 1894 
z
M 3022 2063 
Q 3016 2534 2758 2815 
Q 2500 3097 2075 3097 
Q 1594 3097 1305 2825 
Q 1016 2553 972 2059 
L 3022 2063 
z
" transform="scale(0.015625)"/>
       <path id="DejaVuSans-61" d="M 2194 1759 
Q 1497 1759 1228 1600 
Q 959 1441 959 1056 
Q 959 750 1161 570 
Q 1363 391 1709 391 
Q 2188 391 2477 730 
Q 2766 1069 2766 1631 
L 2766 1759 
L 2194 1759 
z
M 3341 1997 
L 3341 0 
L 2766 0 
L 2766 531 
Q 2569 213 2275 61 
Q 1981 -91 1556 -91 
Q 1019 -91 701 211 
Q 384 513 384 1019 
Q 384 1609 779 1909 
Q 1175 2209 1959 2209 
L 2766 2209 
L 2766 2266 
Q 2766 2663 2505 2880 
Q 2244 3097 1772 3097 
Q 1472 3097 1187 3025 
Q 903 2953 641 2809 
L 641 3341 
Q 956 3463 1253 3523 
Q 1550 3584 1831 3584 
Q 2591 3584 2966 3190 
Q 3341 2797 3341 1997 
z
" transform="scale(0.015625)"/>
       <path id="DejaVuSans-20" transform="scale(0.015625)"/>
       <path id="DejaVuSans-45" d="M 628 4666 
L 3578 4666 
L 3578 4134 
L 1259 4134 
L 1259 2753 
L 3481 2753 
L 3481 2222 
L 1259 2222 
L 1259 531 
L 3634 531 
L 3634 0 
L 628 0 
L 628 4666 
z
" transform="scale(0.015625)"/>
       <path id="DejaVuSans-6f" d="M 1959 3097 
Q 1497 3097 1228 2736 
Q 959 2375 959 1747 
Q 959 1119 1226 758 
Q 1494 397 1959 397 
Q 2419 397 2687 759 
Q 2956 1122 2956 1747 
Q 2956 2369 2687 2733 
Q 2419 3097 1959 3097 
z
M 1959 3584 
Q 2709 3584 3137 3096 
Q 3566 2609 3566 1747 
Q 3566 888 3137 398 
Q 2709 -91 1959 -91 
Q 1206 -91 779 398 
Q 353 888 353 1747 
Q 353 2609 779 3096 
Q 1206 3584 1959 3584 
z
" transform="scale(0.015625)"/>
      </defs>
      <use xlink:href="#DejaVuSans-41"/>
      <use xlink:href="#DejaVuSans-72" transform="translate(68.408203 0)"/>
      <use xlink:href="#DejaVuSans-65" transform="translate(107.271484 0)"/>
      <use xlink:href="#DejaVuSans-61" transform="translate(168.794922 0)"/>
      <use xlink:href="#DejaVuSans-20" transform="translate(230.074219 0)"/>
      <use xlink:href="#DejaVuSans-45" transform="translate(261.861328 0)"/>
      <use xlink:href="#DejaVuSans-72" transform="translate(325.044922 0)"/>
      <use xlink:href="#DejaVuSans-72" transform="translate(364.408203 0)"/>
      <use xlink:href="#DejaVuSans-6f" transform="translate(403.271484 0)"/>
      <use xlink:href="#DejaVuSans-72" transform="translate(464.453125 0)"/>
     </g>
    </g>
   </g>
   <g id="line2d_60">
    <path d="M 65.267813 36.123455 
L 90.497835 56.685108 
L 115.727857 77.246762 
L 140.95788 97.808415 
L 166.187902 118.370069 
L 191.417924 138.931722 
L 216.647947 159.493376 
L 241.877969 180.055029 
L 267.107991 200.616683 
" clip-path="url(#pe315839e0e)" style="fill: none; stroke-dasharray: 1.5,2.475; stroke-dashoffset: 0; stroke: #000000; stroke-width: 1.5"/>
   </g>
   <g id="line2d_61">
    <path d="M 65.267813 101.989646 
L 90.497835 124.104498 
L 115.727857 132.456059 
L 140.95788 170.336821 
L 166.187902 181.417651 
L 191.417924 188.959698 
L 216.647947 205.850375 
L 241.877969 217.421534 
L 267.107991 235.392545 
" clip-path="url(#pe315839e0e)" style="fill: none; stroke-dasharray: 5.55,2.4; stroke-dashoffset: 0; stroke: #ff7f0e; stroke-width: 1.5"/>
    <defs>
     <path id="m3c834befce" d="M 0 3 
C 0.795609 3 1.55874 2.683901 2.12132 2.12132 
C 2.683901 1.55874 3 0.795609 3 0 
C 3 -0.795609 2.683901 -1.55874 2.12132 -2.12132 
C 1.55874 -2.683901 0.795609 -3 0 -3 
C -0.795609 -3 -1.55874 -2.683901 -2.12132 -2.12132 
C -2.683901 -1.55874 -3 -0.795609 -3 0 
C -3 0.795609 -2.683901 1.55874 -2.12132 2.12132 
C -1.55874 2.683901 -0.795609 3 0 3 
z
" style="stroke: #ff7f0e"/>
    </defs>
    <g clip-path="url(#pe315839e0e)">
     <use xlink:href="#m3c834befce" x="65.267813" y="101.989646" style="fill: #ff7f0e; stroke: #ff7f0e"/>
     <use xlink:href="#m3c834befce" x="90.497835" y="124.104498" style="fill: #ff7f0e; stroke: #ff7f0e"/>
     <use xlink:href="#m3c834befce" x="115.727857" y="132.456059" style="fill: #ff7f0e; stroke: #ff7f0e"/>
     <use xlink:href="#m3c834befce" x="140.95788" y="170.336821" style="fill: #ff7f0e; stroke: #ff7f0e"/>
     <use xlink:href="#m3c834befce" x="166.187902" y="181.417651" style="fill: #ff7f0e; stroke: #ff7f0e"/>
     <use xlink:href="#m3c834befce" x="191.417924" y="188.959698" style="fill: #ff7f0e; stroke: #ff7f0e"/>
     <use xlink:href="#m3c834befce" x="216.647947" y="205.850375" style="fill: #ff7f0e; stroke: #ff7f0e"/>
     <use xlink:href="#m3c834befce" x="241.877969" y="217.421534" style="fill: #ff7f0e; stroke: #ff7f0e"/>
     <use xlink:href="#m3c834befce" x="267.107991" y="235.392545" style="fill: #ff7f0e; stroke: #ff7f0e"/>
    </g>
   </g>
   <g id="LineCollection_1">
    <path d="M 65.267813 104.026364 
L 65.267813 103.9858 
" clip-path="url(#pe315839e0e)" style="fill: none; stroke: #2ca02c; stroke-width: 1.5"/>
    <path d="M 90.497835 119.505808 
L 90.497835 119.492628 
" clip-path="url(#pe315839e0e)" style="fill: none; stroke: #2ca02c; stroke-width: 1.5"/>
    <path d="M 115.727857 126.03401 
L 115.727857 125.969317 
" clip-path="url(#pe315839e0e)" style="fill: none; stroke: #2ca02c; stroke-width: 1.5"/>
    <path d="M 140.95788 131.532277 
L 140.95788 131.388828 
" clip-path="url(#pe315839e0e)" style="fill: none; stroke: #2ca02c; stroke-width: 1.5"/>
    <path d="M 166.187902 140.602596 
L 166.187902 140.581421 
" clip-path="url(#pe315839e0e)" style="fill: none; stroke: #2ca02c; stroke-width: 1.5"/>
    <path d="M 191.417924 118.418613 
L 191.417924 118.383325 
" clip-path="url(#pe315839e0e)" style="fill: none; stroke: #2ca02c; stroke-width: 1.5"/>
    <path d="M 216.647947 130.045885 
L 216.647947 129.993835 
" clip-path="url(#pe315839e0e)" style="fill: none; stroke: #2ca02c; stroke-width: 1.5"/>
    <path d="M 241.877969 123.501654 
L 241.877969 123.486955 
" clip-path="url(#pe315839e0e)" style="fill: none; stroke: #2ca02c; stroke-width: 1.5"/>
    <path d="M 267.107991 125.905778 
L 267.107991 125.872291 
" clip-path="url(#pe315839e0e)" style="fill: none; stroke: #2ca02c; stroke-width: 1.5"/>
   </g>
   <g id="LineCollection_2">
    <path d="M 65.267813 101.990836 
L 65.267813 101.990798 
" clip-path="url(#pe315839e0e)" style="fill: none; stroke: #d62728; stroke-width: 1.5"/>
    <path d="M 90.497835 123.091755 
L 90.497835 123.086754 
" clip-path="url(#pe315839e0e)" style="fill: none; stroke: #d62728; stroke-width: 1.5"/>
    <path d="M 115.727857 128.83939 
L 115.727857 128.834951 
" clip-path="url(#pe315839e0e)" style="fill: none; stroke: #d62728; stroke-width: 1.5"/>
    <path d="M 140.95788 154.512771 
L 140.95788 154.461929 
" clip-path="url(#pe315839e0e)" style="fill: none; stroke: #d62728; stroke-width: 1.5"/>
    <path d="M 166.187902 154.40603 
L 166.187902 154.397256 
" clip-path="url(#pe315839e0e)" style="fill: none; stroke: #d62728; stroke-width: 1.5"/>
    <path d="M 191.417924 152.060413 
L 191.417924 152.050801 
" clip-path="url(#pe315839e0e)" style="fill: none; stroke: #d62728; stroke-width: 1.5"/>
    <path d="M 216.647947 155.567665 
L 216.647947 155.564504 
" clip-path="url(#pe315839e0e)" style="fill: none; stroke: #d62728; stroke-width: 1.5"/>
    <path d="M 241.877969 144.655841 
L 241.877969 144.580048 
" clip-path="url(#pe315839e0e)" style="fill: none; stroke: #d62728; stroke-width: 1.5"/>
    <path d="M 267.107991 151.084639 
L 267.107991 151.070853 
" clip-path="url(#pe315839e0e)" style="fill: none; stroke: #d62728; stroke-width: 1.5"/>
   </g>
   <g id="LineCollection_3">
    <path d="M 65.267813 101.997003 
L 65.267813 101.997001 
" clip-path="url(#pe315839e0e)" style="fill: none; stroke: #9467bd; stroke-width: 1.5"/>
    <path d="M 90.497835 124.121903 
L 90.497835 124.121898 
" clip-path="url(#pe315839e0e)" style="fill: none; stroke: #9467bd; stroke-width: 1.5"/>
    <path d="M 115.727857 127.680062 
L 115.727857 127.671696 
" clip-path="url(#pe315839e0e)" style="fill: none; stroke: #9467bd; stroke-width: 1.5"/>
    <path d="M 140.95788 169.858956 
L 140.95788 169.853769 
" clip-path="url(#pe315839e0e)" style="fill: none; stroke: #9467bd; stroke-width: 1.5"/>
    <path d="M 166.187902 174.81903 
L 166.187902 174.816155 
" clip-path="url(#pe315839e0e)" style="fill: none; stroke: #9467bd; stroke-width: 1.5"/>
    <path d="M 191.417924 177.337342 
L 191.417924 177.325145 
" clip-path="url(#pe315839e0e)" style="fill: none; stroke: #9467bd; stroke-width: 1.5"/>
    <path d="M 216.647947 179.650271 
L 216.647947 179.641024 
" clip-path="url(#pe315839e0e)" style="fill: none; stroke: #9467bd; stroke-width: 1.5"/>
    <path d="M 241.877969 181.904895 
L 241.877969 181.89957 
" clip-path="url(#pe315839e0e)" style="fill: none; stroke: #9467bd; stroke-width: 1.5"/>
    <path d="M 267.107991 178.326538 
L 267.107991 178.314198 
" clip-path="url(#pe315839e0e)" style="fill: none; stroke: #9467bd; stroke-width: 1.5"/>
   </g>
   <g id="line2d_62">
    <path d="M 65.267813 104.006075 
L 90.497835 119.499217 
L 115.727857 126.001646 
L 140.95788 131.460466 
L 166.187902 140.592007 
L 191.417924 118.400963 
L 216.647947 130.019849 
L 241.877969 123.494304 
L 267.107991 125.88903 
" clip-path="url(#pe315839e0e)" style="fill: none; stroke: #2ca02c; stroke-width: 1.5; stroke-linecap: square"/>
    <defs>
     <path id="m9330220ae6" d="M 0 3 
C 0.795609 3 1.55874 2.683901 2.12132 2.12132 
C 2.683901 1.55874 3 0.795609 3 0 
C 3 -0.795609 2.683901 -1.55874 2.12132 -2.12132 
C 1.55874 -2.683901 0.795609 -3 0 -3 
C -0.795609 -3 -1.55874 -2.683901 -2.12132 -2.12132 
C -2.683901 -1.55874 -3 -0.795609 -3 0 
C -3 0.795609 -2.683901 1.55874 -2.12132 2.12132 
C -1.55874 2.683901 -0.795609 3 0 3 
z
" style="stroke: #2ca02c"/>
    </defs>
    <g clip-path="url(#pe315839e0e)">
     <use xlink:href="#m9330220ae6" x="65.267813" y="104.006075" style="fill: #2ca02c; stroke: #2ca02c"/>
     <use xlink:href="#m9330220ae6" x="90.497835" y="119.499217" style="fill: #2ca02c; stroke: #2ca02c"/>
     <use xlink:href="#m9330220ae6" x="115.727857" y="126.001646" style="fill: #2ca02c; stroke: #2ca02c"/>
     <use xlink:href="#m9330220ae6" x="140.95788" y="131.460466" style="fill: #2ca02c; stroke: #2ca02c"/>
     <use xlink:href="#m9330220ae6" x="166.187902" y="140.592007" style="fill: #2ca02c; stroke: #2ca02c"/>
     <use xlink:href="#m9330220ae6" x="191.417924" y="118.400963" style="fill: #2ca02c; stroke: #2ca02c"/>
     <use xlink:href="#m9330220ae6" x="216.647947" y="130.019849" style="fill: #2ca02c; stroke: #2ca02c"/>
     <use xlink:href="#m9330220ae6" x="241.877969" y="123.494304" style="fill: #2ca02c; stroke: #2ca02c"/>
     <use xlink:href="#m9330220ae6" x="267.107991" y="125.88903" style="fill: #2ca02c; stroke: #2ca02c"/>
    </g>
   </g>
   <g id="line2d_63">
    <path d="M 65.267813 101.990817 
L 90.497835 123.089254 
L 115.727857 128.83717 
L 140.95788 154.48734 
L 166.187902 154.401642 
L 191.417924 152.055607 
L 216.647947 155.566084 
L 241.877969 144.61792 
L 267.107991 151.077745 
" clip-path="url(#pe315839e0e)" style="fill: none; stroke: #d62728; stroke-width: 1.5; stroke-linecap: square"/>
    <defs>
     <path id="mcd4e7ca640" d="M 0 3 
C 0.795609 3 1.55874 2.683901 2.12132 2.12132 
C 2.683901 1.55874 3 0.795609 3 0 
C 3 -0.795609 2.683901 -1.55874 2.12132 -2.12132 
C 1.55874 -2.683901 0.795609 -3 0 -3 
C -0.795609 -3 -1.55874 -2.683901 -2.12132 -2.12132 
C -2.683901 -1.55874 -3 -0.795609 -3 0 
C -3 0.795609 -2.683901 1.55874 -2.12132 2.12132 
C -1.55874 2.683901 -0.795609 3 0 3 
z
" style="stroke: #d62728"/>
    </defs>
    <g clip-path="url(#pe315839e0e)">
     <use xlink:href="#mcd4e7ca640" x="65.267813" y="101.990817" style="fill: #d62728; stroke: #d62728"/>
     <use xlink:href="#mcd4e7ca640" x="90.497835" y="123.089254" style="fill: #d62728; stroke: #d62728"/>
     <use xlink:href="#mcd4e7ca640" x="115.727857" y="128.83717" style="fill: #d62728; stroke: #d62728"/>
     <use xlink:href="#mcd4e7ca640" x="140.95788" y="154.48734" style="fill: #d62728; stroke: #d62728"/>
     <use xlink:href="#mcd4e7ca640" x="166.187902" y="154.401642" style="fill: #d62728; stroke: #d62728"/>
     <use xlink:href="#mcd4e7ca640" x="191.417924" y="152.055607" style="fill: #d62728; stroke: #d62728"/>
     <use xlink:href="#mcd4e7ca640" x="216.647947" y="155.566084" style="fill: #d62728; stroke: #d62728"/>
     <use xlink:href="#mcd4e7ca640" x="241.877969" y="144.61792" style="fill: #d62728; stroke: #d62728"/>
     <use xlink:href="#mcd4e7ca640" x="267.107991" y="151.077745" style="fill: #d62728; stroke: #d62728"/>
    </g>
   </g>
   <g id="line2d_64">
    <path d="M 65.267813 101.997002 
L 90.497835 124.121901 
L 115.727857 127.675879 
L 140.95788 169.856362 
L 166.187902 174.817593 
L 191.417924 177.331243 
L 216.647947 179.645647 
L 241.877969 181.902232 
L 267.107991 178.320367 
" clip-path="url(#pe315839e0e)" style="fill: none; stroke: #9467bd; stroke-width: 1.5; stroke-linecap: square"/>
    <defs>
     <path id="m0462cba1a7" d="M 0 3 
C 0.795609 3 1.55874 2.683901 2.12132 2.12132 
C 2.683901 1.55874 3 0.795609 3 0 
C 3 -0.795609 2.683901 -1.55874 2.12132 -2.12132 
C 1.55874 -2.683901 0.795609 -3 0 -3 
C -0.795609 -3 -1.55874 -2.683901 -2.12132 -2.12132 
C -2.683901 -1.55874 -3 -0.795609 -3 0 
C -3 0.795609 -2.683901 1.55874 -2.12132 2.12132 
C -1.55874 2.683901 -0.795609 3 0 3 
z
" style="stroke: #9467bd"/>
    </defs>
    <g clip-path="url(#pe315839e0e)">
     <use xlink:href="#m0462cba1a7" x="65.267813" y="101.997002" style="fill: #9467bd; stroke: #9467bd"/>
     <use xlink:href="#m0462cba1a7" x="90.497835" y="124.121901" style="fill: #9467bd; stroke: #9467bd"/>
     <use xlink:href="#m0462cba1a7" x="115.727857" y="127.675879" style="fill: #9467bd; stroke: #9467bd"/>
     <use xlink:href="#m0462cba1a7" x="140.95788" y="169.856362" style="fill: #9467bd; stroke: #9467bd"/>
     <use xlink:href="#m0462cba1a7" x="166.187902" y="174.817593" style="fill: #9467bd; stroke: #9467bd"/>
     <use xlink:href="#m0462cba1a7" x="191.417924" y="177.331243" style="fill: #9467bd; stroke: #9467bd"/>
     <use xlink:href="#m0462cba1a7" x="216.647947" y="179.645647" style="fill: #9467bd; stroke: #9467bd"/>
     <use xlink:href="#m0462cba1a7" x="241.877969" y="181.902232" style="fill: #9467bd; stroke: #9467bd"/>
     <use xlink:href="#m0462cba1a7" x="267.107991" y="178.320367" style="fill: #9467bd; stroke: #9467bd"/>
    </g>
   </g>
   <g id="patch_3">
    <path d="M 55.175804 245.356 
L 55.175804 26.16 
" style="fill: none; stroke: #000000; stroke-width: 0.8; stroke-linejoin: miter; stroke-linecap: square"/>
   </g>
   <g id="patch_4">
    <path d="M 277.2 245.356 
L 277.2 26.16 
" style="fill: none; stroke: #000000; stroke-width: 0.8; stroke-linejoin: miter; stroke-linecap: square"/>
   </g>
   <g id="patch_5">
    <path d="M 55.175804 245.356 
L 277.2 245.356 
" style="fill: none; stroke: #000000; stroke-width: 0.8; stroke-linejoin: miter; stroke-linecap: square"/>
   </g>
   <g id="patch_6">
    <path d="M 55.175804 26.16 
L 277.2 26.16 
" style="fill: none; stroke: #000000; stroke-width: 0.8; stroke-linejoin: miter; stroke-linecap: square"/>
   </g>
   <g id="text_9">
    <!-- PR curve -->
    <g transform="translate(139.682902 20.16) scale(0.12 -0.12)">
     <defs>
      <path id="DejaVuSans-50" d="M 1259 4147 
L 1259 2394 
L 2053 2394 
Q 2494 2394 2734 2622 
Q 2975 2850 2975 3272 
Q 2975 3691 2734 3919 
Q 2494 4147 2053 4147 
L 1259 4147 
z
M 628 4666 
L 2053 4666 
Q 2838 4666 3239 4311 
Q 3641 3956 3641 3272 
Q 3641 2581 3239 2228 
Q 2838 1875 2053 1875 
L 1259 1875 
L 1259 0 
L 628 0 
L 628 4666 
z
" transform="scale(0.015625)"/>
      <path id="DejaVuSans-52" d="M 2841 2188 
Q 3044 2119 3236 1894 
Q 3428 1669 3622 1275 
L 4263 0 
L 3584 0 
L 2988 1197 
Q 2756 1666 2539 1819 
Q 2322 1972 1947 1972 
L 1259 1972 
L 1259 0 
L 628 0 
L 628 4666 
L 2053 4666 
Q 2853 4666 3247 4331 
Q 3641 3997 3641 3322 
Q 3641 2881 3436 2590 
Q 3231 2300 2841 2188 
z
M 1259 4147 
L 1259 2491 
L 2053 2491 
Q 2509 2491 2742 2702 
Q 2975 2913 2975 3322 
Q 2975 3731 2742 3939 
Q 2509 4147 2053 4147 
L 1259 4147 
z
" transform="scale(0.015625)"/>
      <path id="DejaVuSans-63" d="M 3122 3366 
L 3122 2828 
Q 2878 2963 2633 3030 
Q 2388 3097 2138 3097 
Q 1578 3097 1268 2742 
Q 959 2388 959 1747 
Q 959 1106 1268 751 
Q 1578 397 2138 397 
Q 2388 397 2633 464 
Q 2878 531 3122 666 
L 3122 134 
Q 2881 22 2623 -34 
Q 2366 -91 2075 -91 
Q 1284 -91 818 406 
Q 353 903 353 1747 
Q 353 2603 823 3093 
Q 1294 3584 2113 3584 
Q 2378 3584 2631 3529 
Q 2884 3475 3122 3366 
z
" transform="scale(0.015625)"/>
      <path id="DejaVuSans-75" d="M 544 1381 
L 544 3500 
L 1119 3500 
L 1119 1403 
Q 1119 906 1312 657 
Q 1506 409 1894 409 
Q 2359 409 2629 706 
Q 2900 1003 2900 1516 
L 2900 3500 
L 3475 3500 
L 3475 0 
L 2900 0 
L 2900 538 
Q 2691 219 2414 64 
Q 2138 -91 1772 -91 
Q 1169 -91 856 284 
Q 544 659 544 1381 
z
M 1991 3584 
L 1991 3584 
z
" transform="scale(0.015625)"/>
      <path id="DejaVuSans-76" d="M 191 3500 
L 800 3500 
L 1894 563 
L 2988 3500 
L 3597 3500 
L 2284 0 
L 1503 0 
L 191 3500 
z
" transform="scale(0.015625)"/>
     </defs>
     <use xlink:href="#DejaVuSans-50"/>
     <use xlink:href="#DejaVuSans-52" transform="translate(60.302734 0)"/>
     <use xlink:href="#DejaVuSans-20" transform="translate(129.785156 0)"/>
     <use xlink:href="#DejaVuSans-63" transform="translate(161.572266 0)"/>
     <use xlink:href="#DejaVuSans-75" transform="translate(216.552734 0)"/>
     <use xlink:href="#DejaVuSans-72" transform="translate(279.931641 0)"/>
     <use xlink:href="#DejaVuSans-76" transform="translate(321.044922 0)"/>
     <use xlink:href="#DejaVuSans-65" transform="translate(380.224609 0)"/>
    </g>
   </g>
   <g id="legend_1">
    <g id="patch_7">
     <path d="M 183.9 107.550625 
L 270.2 107.550625 
Q 272.2 107.550625 272.2 105.550625 
L 272.2 33.16 
Q 272.2 31.16 270.2 31.16 
L 183.9 31.16 
Q 181.9 31.16 181.9 33.16 
L 181.9 105.550625 
Q 181.9 107.550625 183.9 107.550625 
z
" style="fill: #ffffff; opacity: 0.8; stroke: #cccccc; stroke-linejoin: miter"/>
    </g>
    <g id="line2d_65">
     <path d="M 185.9 39.258437 
L 195.9 39.258437 
L 205.9 39.258437 
" style="fill: none; stroke-dasharray: 1.5,2.475; stroke-dashoffset: 0; stroke: #000000; stroke-width: 1.5"/>
    </g>
    <g id="text_10">
     <!-- 1/Q -->
     <g transform="translate(213.9 42.758437) scale(0.1 -0.1)">
      <defs>
       <path id="DejaVuSans-2f" d="M 1625 4666 
L 2156 4666 
L 531 -594 
L 0 -594 
L 1625 4666 
z
" transform="scale(0.015625)"/>
      </defs>
      <use xlink:href="#DejaVuSans-31"/>
      <use xlink:href="#DejaVuSans-2f" transform="translate(63.623047 0)"/>
      <use xlink:href="#DejaVuSans-51" transform="translate(97.314453 0)"/>
     </g>
    </g>
    <g id="line2d_66">
     <path d="M 185.9 53.936562 
L 195.9 53.936562 
L 205.9 53.936562 
" style="fill: none; stroke-dasharray: 5.55,2.4; stroke-dashoffset: 0; stroke: #ff7f0e; stroke-width: 1.5"/>
     <g>
      <use xlink:href="#m3c834befce" x="195.9" y="53.936562" style="fill: #ff7f0e; stroke: #ff7f0e"/>
     </g>
    </g>
    <g id="text_11">
     <!-- SA -->
     <g transform="translate(213.9 57.436562) scale(0.1 -0.1)">
      <defs>
       <path id="DejaVuSans-53" d="M 3425 4513 
L 3425 3897 
Q 3066 4069 2747 4153 
Q 2428 4238 2131 4238 
Q 1616 4238 1336 4038 
Q 1056 3838 1056 3469 
Q 1056 3159 1242 3001 
Q 1428 2844 1947 2747 
L 2328 2669 
Q 3034 2534 3370 2195 
Q 3706 1856 3706 1288 
Q 3706 609 3251 259 
Q 2797 -91 1919 -91 
Q 1588 -91 1214 -16 
Q 841 59 441 206 
L 441 856 
Q 825 641 1194 531 
Q 1563 422 1919 422 
Q 2459 422 2753 634 
Q 3047 847 3047 1241 
Q 3047 1584 2836 1778 
Q 2625 1972 2144 2069 
L 1759 2144 
Q 1053 2284 737 2584 
Q 422 2884 422 3419 
Q 422 4038 858 4394 
Q 1294 4750 2059 4750 
Q 2388 4750 2728 4690 
Q 3069 4631 3425 4513 
z
" transform="scale(0.015625)"/>
      </defs>
      <use xlink:href="#DejaVuSans-53"/>
      <use xlink:href="#DejaVuSans-41" transform="translate(65.351562 0)"/>
     </g>
    </g>
    <g id="LineCollection_4">
     <path d="M 195.9 73.614687 
L 195.9 63.614687 
" style="fill: none; stroke: #2ca02c; stroke-width: 1.5"/>
    </g>
    <g id="line2d_67">
     <path d="M 185.9 68.614687 
L 205.9 68.614687 
" style="fill: none; stroke: #2ca02c; stroke-width: 1.5; stroke-linecap: square"/>
    </g>
    <g id="line2d_68">
     <g>
      <use xlink:href="#m9330220ae6" x="195.9" y="68.614687" style="fill: #2ca02c; stroke: #2ca02c"/>
     </g>
    </g>
    <g id="text_12">
     <!-- DDP $\epsilon$=0.1 -->
     <g transform="translate(213.9 72.114687) scale(0.1 -0.1)">
      <defs>
       <path id="DejaVuSans-44" d="M 1259 4147 
L 1259 519 
L 2022 519 
Q 2988 519 3436 956 
Q 3884 1394 3884 2338 
Q 3884 3275 3436 3711 
Q 2988 4147 2022 4147 
L 1259 4147 
z
M 628 4666 
L 1925 4666 
Q 3281 4666 3915 4102 
Q 4550 3538 4550 2338 
Q 4550 1131 3912 565 
Q 3275 0 1925 0 
L 628 0 
L 628 4666 
z
" transform="scale(0.015625)"/>
       <path id="DejaVuSans-Oblique-3b5" d="M 1263 1888 
Q 925 1963 778 2166 
Q 669 2309 669 2503 
Q 669 3034 1175 3344 
Q 1575 3588 2188 3588 
Q 2425 3588 2684 3550 
Q 2944 3513 3234 3438 
L 3134 2916 
Q 2847 3006 2606 3047 
Q 2359 3088 2138 3088 
Q 1766 3088 1522 2944 
Q 1228 2772 1228 2522 
Q 1228 2356 1381 2241 
Q 1563 2103 1925 2103 
L 2409 2103 
L 2319 1628 
L 1856 1628 
Q 1425 1628 1172 1469 
Q 828 1253 828 916 
Q 828 703 1013 563 
Q 1244 388 1716 388 
Q 2006 388 2284 444 
Q 2563 503 2806 619 
L 2700 84 
Q 2403 -3 2131 -47 
Q 1859 -91 1609 -91 
Q 866 -91 516 194 
Q 250 413 250 781 
Q 250 1278 600 1584 
Q 859 1813 1263 1888 
z
" transform="scale(0.015625)"/>
       <path id="DejaVuSans-3d" d="M 678 2906 
L 4684 2906 
L 4684 2381 
L 678 2381 
L 678 2906 
z
M 678 1631 
L 4684 1631 
L 4684 1100 
L 678 1100 
L 678 1631 
z
" transform="scale(0.015625)"/>
       <path id="DejaVuSans-2e" d="M 684 794 
L 1344 794 
L 1344 0 
L 684 0 
L 684 794 
z
" transform="scale(0.015625)"/>
      </defs>
      <use xlink:href="#DejaVuSans-44" transform="translate(0 0.78125)"/>
      <use xlink:href="#DejaVuSans-44" transform="translate(77.001953 0.78125)"/>
      <use xlink:href="#DejaVuSans-50" transform="translate(154.003906 0.78125)"/>
      <use xlink:href="#DejaVuSans-20" transform="translate(214.306641 0.78125)"/>
      <use xlink:href="#DejaVuSans-Oblique-3b5" transform="translate(246.09375 0.78125)"/>
      <use xlink:href="#DejaVuSans-3d" transform="translate(300.146484 0.78125)"/>
      <use xlink:href="#DejaVuSans-30" transform="translate(383.935547 0.78125)"/>
      <use xlink:href="#DejaVuSans-2e" transform="translate(447.558594 0.78125)"/>
      <use xlink:href="#DejaVuSans-31" transform="translate(479.345703 0.78125)"/>
     </g>
    </g>
    <g id="LineCollection_5">
     <path d="M 195.9 88.292812 
L 195.9 78.292812 
" style="fill: none; stroke: #d62728; stroke-width: 1.5"/>
    </g>
    <g id="line2d_69">
     <path d="M 185.9 83.292812 
L 205.9 83.292812 
" style="fill: none; stroke: #d62728; stroke-width: 1.5; stroke-linecap: square"/>
    </g>
    <g id="line2d_70">
     <g>
      <use xlink:href="#mcd4e7ca640" x="195.9" y="83.292812" style="fill: #d62728; stroke: #d62728"/>
     </g>
    </g>
    <g id="text_13">
     <!-- DDP $\epsilon$=0.3 -->
     <g transform="translate(213.9 86.792812) scale(0.1 -0.1)">
      <use xlink:href="#DejaVuSans-44" transform="translate(0 0.78125)"/>
      <use xlink:href="#DejaVuSans-44" transform="translate(77.001953 0.78125)"/>
      <use xlink:href="#DejaVuSans-50" transform="translate(154.003906 0.78125)"/>
      <use xlink:href="#DejaVuSans-20" transform="translate(214.306641 0.78125)"/>
      <use xlink:href="#DejaVuSans-Oblique-3b5" transform="translate(246.09375 0.78125)"/>
      <use xlink:href="#DejaVuSans-3d" transform="translate(300.146484 0.78125)"/>
      <use xlink:href="#DejaVuSans-30" transform="translate(383.935547 0.78125)"/>
      <use xlink:href="#DejaVuSans-2e" transform="translate(447.558594 0.78125)"/>
      <use xlink:href="#DejaVuSans-33" transform="translate(479.345703 0.78125)"/>
     </g>
    </g>
    <g id="LineCollection_6">
     <path d="M 195.9 102.970937 
L 195.9 92.970937 
" style="fill: none; stroke: #9467bd; stroke-width: 1.5"/>
    </g>
    <g id="line2d_71">
     <path d="M 185.9 97.970937 
L 205.9 97.970937 
" style="fill: none; stroke: #9467bd; stroke-width: 1.5; stroke-linecap: square"/>
    </g>
    <g id="line2d_72">
     <g>
      <use xlink:href="#m0462cba1a7" x="195.9" y="97.970937" style="fill: #9467bd; stroke: #9467bd"/>
     </g>
    </g>
    <g id="text_14">
     <!-- DDP $\epsilon$=1 -->
     <g transform="translate(213.9 101.470937) scale(0.1 -0.1)">
      <use xlink:href="#DejaVuSans-44" transform="translate(0 0.09375)"/>
      <use xlink:href="#DejaVuSans-44" transform="translate(77.001953 0.09375)"/>
      <use xlink:href="#DejaVuSans-50" transform="translate(154.003906 0.09375)"/>
      <use xlink:href="#DejaVuSans-20" transform="translate(214.306641 0.09375)"/>
      <use xlink:href="#DejaVuSans-Oblique-3b5" transform="translate(246.09375 0.09375)"/>
      <use xlink:href="#DejaVuSans-3d" transform="translate(300.146484 0.09375)"/>
      <use xlink:href="#DejaVuSans-31" transform="translate(383.935547 0.09375)"/>
     </g>
    </g>
   </g>
  </g>
 </g>
 <defs>
  <clipPath id="pe315839e0e">
   <rect x="55.175804" y="26.16" width="222.024196" height="219.196"/>
  </clipPath>
 </defs>
</svg>
